{
.appVersion = "1271";
classes = (
{
automatic = 1;
code = "A Aacute Abreve Abreveacute Abrevedotbelow Abrevegrave Abrevehookabove Abrevetilde Acaron Acircumflex Acircumflexacute Acircumflexdotbelow Acircumflexgrave Acircumflexhookabove Acircumflextilde Adieresis Adotbelow Agrave Ahookabove Amacron Aogonek Aring Atilde AE B C Cacute Ccaron Ccedilla Cdotaccent D Eth Dcaron Dcroat E Eacute Ecaron Ecircumflex Ecircumflexacute Ecircumflexdotbelow Ecircumflexgrave Ecircumflexhookabove Ecircumflextilde Edieresis Edotaccent Edotbelow Egrave Ehookabove Emacron Eogonek Etilde F G Gbreve Gcommaaccent Gdotaccent H Hbar I Iacute Icaron Icircumflex Idieresis Idotaccent Idotbelow Igrave Ihookabove Imacron Iogonek Itilde J K Kcommaaccent L Lacute Lcaron Lcommaaccent Lslash M N Nacute Ncaron Ncommaaccent Eng Ntilde O Oacute Ocaron Ocircumflex Ocircumflexacute Ocircumflexdotbelow Ocircumflexgrave Ocircumflexhookabove Ocircumflextilde Odieresis Odotbelow Ograve Ohookabove Ohorn Ohornacute Ohorndotbelow Ohorngrave Ohornhookabove Ohorntilde Ohungarumlaut Omacron Oslash Otilde OE P Thorn Q R Racute Rcaron Rcommaaccent S Sacute Scaron Scedilla Scommaaccent Germandbls T Tbar Tcaron Tcedilla Tcommaaccent U Uacute Ucaron Ucircumflex Udieresis Udieresisacute Udieresiscaron Udieresisgrave Udieresismacron Udotbelow Ugrave Uhookabove Uhorn Uhornacute Uhorndotbelow Uhorngrave Uhornhookabove Uhorntilde Uhungarumlaut Umacron Uogonek Uring Utilde V W Wacute Wcircumflex Wdieresis Wgrave X Y Yacute Ycircumflex Ydieresis Ydotbelow Ygrave Yhookabove Ytilde Z Zacute Zcaron Zdotaccent Delta Omega";
name = Uppercase;
}
);
copyright = "Copyright © 2018 by Alfredo Marco Pradil. All rights reserved.";
customParameters = (
{
name = description;
value = "Copyright (c)2015, Hanken Grotesk by Alfredo Marco Pradil (ammpradil@gmail.com) ";
},
{
name = licenseURL;
value = "http://scripts.sil.org/OFL";
},
{
name = license;

glyphs = (
{
color = 1;
glyphname = A;
lastChange = "2019-05-10 16:07:30 +0000";
layers = (
{
anchors = (
{
name = bottom;
position = "{260, 0}";
},
{
name = ogonek;
position = "{509, 0}";
},
{
name = top;
position = "{396, 697}";
}
);
layerId = "F91D9E91-C1BC-4259-B0D8-112C0CBA2B8E";
paths = (
{
closed = 1;
nodes = (
"22 0 LINE",
"393 691 LINE",
"498 0 LINE",
"509 0 LINE",
"402 697 LINE",
"385 697 LINE",
"11 0 LINE"
);
},
{
closed = 1;
nodes = (
"473 215 LINE",
"472 225 LINE",
"138 225 LINE",
"133 215 LINE"
);
}
);
width = 616;
},
{
anchors = (
{
name = bottom;
position = "{283, 0}";
},
{
name = ogonek;
position = "{608, 0}";
},
{
name = top;
position = "{419, 697}";
}
);
background = {
paths = (
{
closed = 1;
nodes = (
"369 697 LINE",
"-44 0 LINE",
"102 0 LINE",
"414 544 LINE",
"375 544 LINE",
"477 0 LINE",
"607 0 LINE",
"463 697 LINE"
);
}
);
};
layerId = "5EAB4D72-96CB-4765-AAD5-A13175319428";
paths = (
{
closed = 1;
nodes = (
"102 0 LINE",
"385 493 LINE",
"477 0 LINE",
"607 0 LINE",
"465 697 LINE",
"371 697 LINE",
"-44 0 LINE"
);
},
{
closed = 1;
nodes = (
"465 152 LINE",
"444 259 LINE",
"235 259 LINE",
"173 152 LINE"
);
}
);
width = 659;
},
{
anchors = (
{
name = bottom;
position = "{260, 0}";
},
{
name = ogonek;
position = "{509, 0}";
},
{
name = top;
position = "{396, 697}";
}
);
associatedMasterId = "F91D9E91-C1BC-4259-B0D8-112C0CBA2B8E";
layerId = "53751825-CB7B-4971-87F0-7DBD00A65D7B";
paths = (
{
closed = 1;
nodes = (
"22 0 LINE",
"393 691 LINE",
"498 0 LINE",
"509 0 LINE",
"402 697 LINE",
"385 697 LINE",
"11 0 LINE"
);
},
{
closed = 1;
nodes = (
"473 205 LINE",
"472 215 LINE",
"131 215 LINE",
"126 205 LINE"
);
}
);
width = 616;
},
{
anchors = (
{
name = bottom;
position = "{272, 0}";
},
{
name = ogonek;
position = "{561, 0}";
},
{
name = top;
position = "{408, 697}";
}
);
layerId = "D76894BF-AD8F-4700-A820-B81A81AE60D1";
paths = (
{
closed = 1;
nodes = (
"64 0 LINE",
"388 585 LINE",
"486 0 LINE",
"561 0 LINE",
"435 697 LINE",
"377 697 LINE",
"-19 0 LINE"
);
},
{
closed = 1;
nodes = (
"468 187 LINE",
"456 248 LINE",
"186 248 LINE",
"150 187 LINE"
);
}
);
width = 638;
}
);
leftKerningGroup = A;
note = A;
rightKerningGroup = A;
unicode = 0041;
},
{
color = 1;
glyphname = AE;
lastChange = "2019-05-10 16:08:41 +0000";
layers = (
{
anchors = (
{
name = bottom;
position = "{414, 0}";
},
{
name = top;
position = "{550, 697}";
}
);
layerId = "F91D9E91-C1BC-4259-B0D8-112C0CBA2B8E";
paths = (
{
closed = 1;
nodes = (
"23 0 LINE",
"393 687 LINE",
"531 687 LINE",
"397 0 LINE",
"815 0 LINE",
"817 10 LINE",
"410 10 LINE",
"475 346 LINE",
"827 346 LINE",
"829 357 LINE",
"477 357 LINE",
"542 687 LINE",
"949 687 LINE",
"951 697 LINE",
"385 697 LINE",
"11 0 LINE"
);
},
{
closed = 1;
nodes = (
"446 235 LINE",
"448 245 LINE",
"145 245 LINE",
"140 235 LINE"
);
}
);
width = 923;
},
{
anchors = (
{
name = bottom;
position = "{436, 0}";
},
{
name = top;
position = "{572, 697}";
}
);
layerId = "5EAB4D72-96CB-4765-AAD5-A13175319428";
paths = (
{
closed = 1;
nodes = (
"94 0 LINE",
"427 592 LINE",
"509 592 LINE",
"394 0 LINE",
"861 0 LINE",
"883 115 LINE",
"544 115 LINE",
"581 301 LINE",
"896 301 LINE",
"918 416 LINE",
"603 416 LINE",
"635 582 LINE",
"974 582 LINE",
"997 697 LINE",
"370 697 LINE",
"-44 0 LINE"
);
},
{
closed = 1;
nodes = (
"440 152 LINE",
"458 248 LINE",
"220 248 LINE",
"162 152 LINE"
);
}
);
width = 966;
},
{
anchors = (
{
name = bottom;
position = "{414, 0}";
},
{
name = top;
position = "{550, 697}";
}
);
associatedMasterId = "F91D9E91-C1BC-4259-B0D8-112C0CBA2B8E";
layerId = "53751825-CB7B-4971-87F0-7DBD00A65D7B";
paths = (
{
closed = 1;
nodes = (
"23 0 LINE",
"122 185 LINE",
"433 185 LINE",
"397 0 LINE",
"815 0 LINE",
"817 10 LINE",
"410 10 LINE",
"475 346 LINE",
"827 346 LINE",
"829 357 LINE",
"477 357 LINE",
"542 687 LINE",
"949 687 LINE",
"951 697 LINE",
"385 697 LINE",
"11 0 LINE"
);
},
{
closed = 1;
nodes = (
"393 687 LINE",
"531 687 LINE",
"435 195 LINE",
"127 195 LINE"
);
}
);
width = 923;
},
{
anchors = (
{
name = bottom;
position = "{425, 0}";
},
{
name = top;
position = "{561, 697}";
}
);
layerId = "D76894BF-AD8F-4700-A820-B81A81AE60D1";
paths = (
{
closed = 1;
nodes = (
"60 0 LINE",
"410 636 LINE",
"519 636 LINE",
"395 0 LINE",
"839 0 LINE",
"852 66 LINE",
"481 66 LINE",
"531 322 LINE",
"863 322 LINE",
"876 388 LINE",
"544 388 LINE",
"591 631 LINE",
"962 631 LINE",
"975 697 LINE",
"376 697 LINE",
"-19 0 LINE"
);
},
{
closed = 1;
nodes = (
"442 207 LINE",
"452 263 LINE",
"168 263 LINE",
"135 207 LINE"
);
}
);
width = 940;
}
);
leftKerningGroup = A;
note = AE;
rightKerningGroup = E;
unicode = 00C6;
},
{
color = 1;
glyphname = B;
lastChange = "2019-05-10 16:44:51 +0000";
layers = (
{
anchors = (
{
name = bottom;
position = "{263, 0}";
},
{
name = top;
position = "{399, 697}";
}
);
layerId = "F91D9E91-C1BC-4259-B0D8-112C0CBA2B8E";
paths = (
{
closed = 1;
nodes = (
"272 0 LINE SMOOTH",
"429 0 OFFCURVE",
"530 84 OFFCURVE",
"530 232 CURVE SMOOTH",
"530 308 OFFCURVE",
"489 355 OFFCURVE",
"416 365 CURVE",
"504 391 OFFCURVE",
"563 478 OFFCURVE",
"563 570 CURVE SMOOTH",
"563 654 OFFCURVE",
"506 697 OFFCURVE",
"397 697 CURVE SMOOTH",
"217 697 LINE",
"81 0 LINE"
);
},
{
closed = 1;
nodes = (
"160 357 LINE",
"383 357 LINE SMOOTH",
"472 357 OFFCURVE",
"520 311 OFFCURVE",
"520 232 CURVE SMOOTH",
"520 92 OFFCURVE",
"427 10 OFFCURVE",
"274 10 CURVE SMOOTH",
"93 10 LINE"
);
},
{
closed = 1;
nodes = (
"225 687 LINE",
"396 687 LINE SMOOTH",
"501 687 OFFCURVE",
"553 647 OFFCURVE",
"553 570 CURVE SMOOTH",
"553 464 OFFCURVE",
"473 367 OFFCURVE",
"363 367 CURVE SMOOTH",
"162 367 LINE"
);
}
);
width = 622;
},
{
anchors = (
{
name = bottom;
position = "{266, 0}";
},
{
name = top;
position = "{402, 697}";
}
);
background = {
components = (
{
name = P;
}
);
};
layerId = "5EAB4D72-96CB-4765-AAD5-A13175319428";
paths = (
{
closed = 1;
nodes = (
"317 0 LINE SMOOTH",
"475 0 OFFCURVE",
"584 96 OFFCURVE",
"584 239 CURVE SMOOTH",
"584 304 OFFCURVE",
"561 348 OFFCURVE",
"499 372 CURVE",
"567 407 OFFCURVE",
"608 476 OFFCURVE",
"608 546 CURVE SMOOTH",
"608 642 OFFCURVE",
"529 697 OFFCURVE",
"406 697 CURVE SMOOTH",
"176 697 LINE",
"40 0 LINE"
);
},
{
closed = 1;
nodes = (
"225 308 LINE",
"362 308 LINE SMOOTH",
"428 308 OFFCURVE",
"458 270 OFFCURVE",
"458 229 CURVE SMOOTH",
"458 175 OFFCURVE",
"409 115 OFFCURVE",
"319 115 CURVE SMOOTH",
"187 115 LINE"
);
},
{
closed = 1;
nodes = (
"278 582 LINE",
"404 582 LINE SMOOTH",
"459 582 OFFCURVE",
"483 551 OFFCURVE",
"483 515 CURVE SMOOTH",
"483 469 OFFCURVE",
"443 416 OFFCURVE",
"376 416 CURVE SMOOTH",
"246 416 LINE"
);
}
);
width = 628;
},
{
anchors = (
{
name = bottom;
position = "{263, 0}";
},
{
name = top;
position = "{399, 697}";
}
);
associatedMasterId = "F91D9E91-C1BC-4259-B0D8-112C0CBA2B8E";
layerId = "53751825-CB7B-4971-87F0-7DBD00A65D7B";
paths = (
{
closed = 1;
nodes = (
"272 0 LINE SMOOTH",
"429 0 OFFCURVE",
"530 84 OFFCURVE",
"530 232 CURVE SMOOTH",
"530 308 OFFCURVE",
"489 355 OFFCURVE",
"416 365 CURVE",
"504 391 OFFCURVE",
"563 478 OFFCURVE",
"563 570 CURVE SMOOTH",
"563 654 OFFCURVE",
"506 697 OFFCURVE",
"397 697 CURVE SMOOTH",
"217 697 LINE",
"81 0 LINE"
);
},
{
closed = 1;
nodes = (
"160 357 LINE",
"383 357 LINE SMOOTH",
"472 357 OFFCURVE",
"520 311 OFFCURVE",
"520 232 CURVE SMOOTH",
"520 92 OFFCURVE",
"427 10 OFFCURVE",
"274 10 CURVE SMOOTH",
"93 10 LINE"
);
},
{
closed = 1;
nodes = (
"225 687 LINE",
"396 687 LINE SMOOTH",
"501 687 OFFCURVE",
"553 647 OFFCURVE",
"553 570 CURVE SMOOTH",
"553 464 OFFCURVE",
"473 367 OFFCURVE",
"363 367 CURVE SMOOTH",
"162 367 LINE"
);
}
);
width = 622;
},
{
anchors = (
{
name = bottom;
position = "{263, 0}";
},
{
name = top;
position = "{399, 697}";
}
);
layerId = "D76894BF-AD8F-4700-A820-B81A81AE60D1";
paths = (
{
closed = 1;
nodes = (
"295 0 LINE SMOOTH",
"451 0 OFFCURVE",
"558 90 OFFCURVE",
"558 236 CURVE SMOOTH",
"558 306 OFFCURVE",
"526 351 OFFCURVE",
"459 369 CURVE",
"536 399 OFFCURVE",
"586 477 OFFCURVE",
"586 557 CURVE SMOOTH",
"586 647 OFFCURVE",
"517 697 OFFCURVE",
"401 697 CURVE SMOOTH",
"194 697 LINE",
"58 0 LINE"
);
},
{
closed = 1;
nodes = (
"194 331 LINE",
"371 331 LINE SMOOTH",
"447 331 OFFCURVE",
"486 289 OFFCURVE",
"486 230 CURVE SMOOTH",
"486 136 OFFCURVE",
"415 66 OFFCURVE",
"297 66 CURVE SMOOTH",
"142 66 LINE"
);
},
{
closed = 1;
nodes = (
"252 631 LINE",
"399 631 LINE SMOOTH",
"477 631 OFFCURVE",
"515 596 OFFCURVE",
"515 541 CURVE SMOOTH",
"515 467 OFFCURVE",
"456 393 OFFCURVE",
"369 393 CURVE SMOOTH",
"206 393 LINE"
);
}
);
width = 623;
}
);
leftKerningGroup = B;
note = B;
rightKerningGroup = B;
unicode = 0042;
},
{
color = 1;
glyphname = C;
lastChange = "2019-05-10 16:44:50 +0000";
layers = (
{
anchors = (
{
name = bottom;
position = "{345, 0}";
},
{
name = top;
position = "{481, 697}";
}
);
layerId = "F91D9E91-C1BC-4259-B0D8-112C0CBA2B8E";
paths = (
{
closed = 1;
nodes = (
"467 -5 OFFCURVE",
"565 56 OFFCURVE",
"642 174 CURVE",
"632 178 LINE",
"559 64 OFFCURVE",
"465 5 OFFCURVE",
"335 5 CURVE SMOOTH",
"174 5 OFFCURVE",
"108 104 OFFCURVE",
"108 244 CURVE SMOOTH",
"108 485 OFFCURVE",
"243 692 OFFCURVE",
"479 692 CURVE SMOOTH",
"611 692 OFFCURVE",
"677 637 OFFCURVE",
"698 521 CURVE",
"709 525 LINE",
"686 644 OFFCURVE",
"617 702 OFFCURVE",
"480 702 CURVE SMOOTH",
"239 702 OFFCURVE",
"98 493 OFFCURVE",
"98 243 CURVE SMOOTH",
"98 85 OFFCURVE",
"179.994 -5 OFFCURVE",
"335 -5 CURVE SMOOTH"
);
}
);
width = 726;
},
{
anchors = (
{
name = bottom;
position = "{334, 0}";
},
{
name = top;
position = "{470, 697}";
}
);
background = {
paths = (
{
closed = 1;
nodes = (
"515 -10 OFFCURVE",
"626 61 OFFCURVE",
"682 191 CURVE",
"566 238 LINE",
"528 144 OFFCURVE",
"467 109 OFFCURVE",
"377 109 CURVE SMOOTH",
"227 109 OFFCURVE",
"164 215 OFFCURVE",
"164 354 CURVE SMOOTH",
"164 483 OFFCURVE",
"227 589 OFFCURVE",
"375 589 CURVE SMOOTH",
"466 589 OFFCURVE",
"537 554 OFFCURVE",
"564 462 CURVE",
"681 508 LINE",
"624 638 OFFCURVE",
"514 708 OFFCURVE",
"376 708 CURVE SMOOTH",
"146 708 OFFCURVE",
"39 539 OFFCURVE",
"39 348 CURVE SMOOTH",
"39 158 OFFCURVE",
"147 -10 OFFCURVE",
"377 -10 CURVE SMOOTH"
);
}
);
};
layerId = "5EAB4D72-96CB-4765-AAD5-A13175319428";
paths = (
{
closed = 1;
nodes = (
"494 -10 OFFCURVE",
"610 71 OFFCURVE",
"678 189 CURVE",
"569 241 LINE",
"526 164 OFFCURVE",
"452 109 OFFCURVE",
"345 109 CURVE SMOOTH",
"224 109 OFFCURVE",
"175 178 OFFCURVE",
"175 274 CURVE SMOOTH",
"175 443 OFFCURVE",
"281 589 OFFCURVE",
"449 589 CURVE SMOOTH",
"550 589 OFFCURVE",
"601 542 OFFCURVE",
"615 468 CURVE",
"735 505 LINE",
"712 621 OFFCURVE",
"626 708 OFFCURVE",
"461 708 CURVE SMOOTH",
"220 708 OFFCURVE",
"52 511 OFFCURVE",
"52 266 CURVE SMOOTH",
"52 112 OFFCURVE",
"137 -10 OFFCURVE",
"333 -10 CURVE SMOOTH"
);
}
);
width = 711;
},
{
anchors = (
{
name = bottom;
position = "{345, 0}";
},
{
name = top;
position = "{481, 697}";
}
);
associatedMasterId = "F91D9E91-C1BC-4259-B0D8-112C0CBA2B8E";
layerId = "53751825-CB7B-4971-87F0-7DBD00A65D7B";
paths = (
{
closed = 1;
nodes = (
"467 -5 OFFCURVE",
"565 56 OFFCURVE",
"642 174 CURVE",
"632 178 LINE",
"559 64 OFFCURVE",
"465 5 OFFCURVE",
"335 5 CURVE SMOOTH",
"174 5 OFFCURVE",
"108 104 OFFCURVE",
"108 244 CURVE SMOOTH",
"108 485 OFFCURVE",
"243 692 OFFCURVE",
"479 692 CURVE SMOOTH",
"611 692 OFFCURVE",
"677 637 OFFCURVE",
"698 521 CURVE",
"709 525 LINE",
"686 644 OFFCURVE",
"617 702 OFFCURVE",
"480 702 CURVE SMOOTH",
"239 702 OFFCURVE",
"98 493 OFFCURVE",
"98 243 CURVE SMOOTH",
"98 85 OFFCURVE",
"179.994 -5 OFFCURVE",
"335 -5 CURVE SMOOTH"
);
}
);
width = 726;
},
{
anchors = (
{
name = bottom;
position = "{338, 0}";
},
{
name = top;
position = "{474, 697}";
}
);
layerId = "D76894BF-AD8F-4700-A820-B81A81AE60D1";
paths = (
{
closed = 1;
nodes = (
"484 -8 OFFCURVE",
"590 68 OFFCURVE",
"660 182 CURVE",
"597 212 LINE",
"540 117 OFFCURVE",
"455 60 OFFCURVE",
"339 60 CURVE SMOOTH",
"199 60 OFFCURVE",
"142 144 OFFCURVE",
"142 260 CURVE SMOOTH",
"142 462 OFFCURVE",
"262 637 OFFCURVE",
"462 637 CURVE SMOOTH",
"577 637 OFFCURVE",
"635 586 OFFCURVE",
"652 493 CURVE",
"721 514 LINE",
"699 629 OFFCURVE",
"623 705 OFFCURVE",
"468 705 CURVE SMOOTH",
"227 705 OFFCURVE",
"72 502 OFFCURVE",
"72 255 CURVE SMOOTH",
"72 99 OFFCURVE",
"156 -8 OFFCURVE",
"332 -8 CURVE SMOOTH"
);
}
);
width = 714;
}
);
leftKerningGroup = C;
note = C;
rightKerningGroup = C;
unicode = 0043;
},
{
color = 1;
glyphname = D;
lastChange = "2019-05-10 16:44:51 +0000";
layers = (
{
anchors = (
{
name = bottom;
position = "{321, 0}";
},
{
name = center;
position = "{185, 349}";
},
{
name = top;
position = "{457, 697}";
}
);
layerId = "F91D9E91-C1BC-4259-B0D8-112C0CBA2B8E";
paths = (
{
closed = 1;
nodes = (
"254 0 LINE SMOOTH",
"515 0 OFFCURVE",
"681 181 OFFCURVE",
"681 440 CURVE SMOOTH",
"681 607 OFFCURVE",
"580 697 OFFCURVE",
"390 697 CURVE SMOOTH",
"217 697 LINE",
"81 0 LINE"
);
},
{
closed = 1;
nodes = (
"225 687 LINE",
"389 687 LINE SMOOTH",
"574 687 OFFCURVE",
"670 601 OFFCURVE",
"670 441 CURVE SMOOTH",
"670 190 OFFCURVE",
"513 10 OFFCURVE",
"256 10 CURVE SMOOTH",
"93 10 LINE"
);
}
);
width = 738;
},
{
anchors = (
{
name = bottom;
position = "{298, 0}";
},
{
name = center;
position = "{191, 349}";
},
{
name = top;
position = "{434, 697}";
}
);
layerId = "5EAB4D72-96CB-4765-AAD5-A13175319428";
paths = (
{
closed = 1;
nodes = (
"244 0 LINE SMOOTH",
"512 0 OFFCURVE",
"680 179 OFFCURVE",
"680 433 CURVE SMOOTH",
"680 602 OFFCURVE",
"576 697 OFFCURVE",
"375 697 CURVE SMOOTH",
"176 697 LINE",
"40 0 LINE"
);
},
{
closed = 1;
nodes = (
"278 582 LINE",
"356 582 LINE SMOOTH",
"497 582 OFFCURVE",
"557 540 OFFCURVE",
"557 435 CURVE SMOOTH",
"557 250 OFFCURVE",
"450 115 OFFCURVE",
"249 115 CURVE SMOOTH",
"187 115 LINE"
);
}
);
width = 691;
},
{
anchors = (
{
name = bottom;
position = "{321, 0}";
},
{
name = center;
position = "{185, 349}";
},
{
name = top;
position = "{457, 697}";
}
);
associatedMasterId = "F91D9E91-C1BC-4259-B0D8-112C0CBA2B8E";
layerId = "53751825-CB7B-4971-87F0-7DBD00A65D7B";
paths = (
{
closed = 1;
nodes = (
"254 0 LINE SMOOTH",
"515 0 OFFCURVE",
"681 181 OFFCURVE",
"681 440 CURVE SMOOTH",
"681 607 OFFCURVE",
"580 697 OFFCURVE",
"390 697 CURVE SMOOTH",
"217 697 LINE",
"81 0 LINE"
);
},
{
closed = 1;
nodes = (
"225 687 LINE",
"389 687 LINE SMOOTH",
"574 687 OFFCURVE",
"670 601 OFFCURVE",
"670 441 CURVE SMOOTH",
"670 190 OFFCURVE",
"513 10 OFFCURVE",
"256 10 CURVE SMOOTH",
"93 10 LINE"
);
}
);
width = 738;
},
{
anchors = (
{
name = bottom;
position = "{308, 0}";
},
{
name = center;
position = "{187, 349}";
},
{
name = top;
position = "{444, 697}";
}
);
layerId = "D76894BF-AD8F-4700-A820-B81A81AE60D1";
paths = (
{
closed = 1;
nodes = (
"248 0 LINE SMOOTH",
"512 0 OFFCURVE",
"679 180 OFFCURVE",
"679 436 CURVE SMOOTH",
"679 604 OFFCURVE",
"577 697 OFFCURVE",
"381 697 CURVE SMOOTH",
"194 697 LINE",
"58 0 LINE"
);
},
{
closed = 1;
nodes = (
"252 631 LINE",
"370 631 LINE SMOOTH",
"532 631 OFFCURVE",
"609 568 OFFCURVE",
"609 438 CURVE SMOOTH",
"609 222 OFFCURVE",
"478 66 OFFCURVE",
"251 66 CURVE SMOOTH",
"142 66 LINE"
);
}
);
width = 711;
}
);
leftKerningGroup = B;
note = D;
rightKerningGroup = D;
unicode = 0044;
},
{
color = 1;
glyphname = E;
lastChange = "2019-05-10 15:30:21 +0000";
layers = (
{
anchors = (
{
name = bottom;
position = "{305, 0}";
},
{
name = ogonek;
position = "{529, 0}";
},
{
name = top;
position = "{441, 697}";
},
{
name = topleft;
position = "{108, 697}";
}
);
layerId = "F91D9E91-C1BC-4259-B0D8-112C0CBA2B8E";
paths = (
{
closed = 1;
nodes = (
"529 0 LINE",
"531 10 LINE",
"93 10 LINE",
"158 346 LINE",
"541 346 LINE",
"543 357 LINE",
"160 357 LINE",
"225 687 LINE",
"663 687 LINE",
"665 697 LINE",
"217 697 LINE",
"81 0 LINE"
);
}
);
width = 637;
},
{
anchors = (
{
name = bottom;
position = "{272, 0}";
},
{
name = ogonek;
position = "{504, 0}";
},
{
name = top;
position = "{408, 697}";
},
{
name = topleft;
position = "{108, 697}";
}
);
layerId = "5EAB4D72-96CB-4765-AAD5-A13175319428";
paths = (
{
closed = 1;
nodes = (
"504 0 LINE",
"526 115 LINE",
"187 115 LINE",
"224 301 LINE",
"539 301 LINE",
"561 416 LINE",
"246 416 LINE",
"278 582 LINE",
"617 582 LINE",
"640 697 LINE",
"176 697 LINE",
"40 0 LINE"
);
}
);
width = 609;
},
{
anchors = (
{
name = bottom;
position = "{305, 0}";
},
{
name = ogonek;
position = "{529, 0}";
},
{
name = top;
position = "{441, 697}";
},
{
name = topleft;
position = "{108, 697}";
}
);
associatedMasterId = "F91D9E91-C1BC-4259-B0D8-112C0CBA2B8E";
layerId = "53751825-CB7B-4971-87F0-7DBD00A65D7B";
paths = (
{
closed = 1;
nodes = (
"529 0 LINE",
"531 10 LINE",
"93 10 LINE",
"158 346 LINE",
"541 346 LINE",
"543 357 LINE",
"160 357 LINE",
"225 687 LINE",
"663 687 LINE",
"665 697 LINE",
"217 697 LINE",
"81 0 LINE"
);
}
);
width = 637;
},
{
anchors = (
{
name = bottom;
position = "{286, 0}";
},
{
name = ogonek;
position = "{515, 0}";
},
{
name = top;
position = "{422, 697}";
},
{
name = topleft;
position = "{107, 697}";
}
);
layerId = "D76894BF-AD8F-4700-A820-B81A81AE60D1";
paths = (
{
closed = 1;
nodes = (
"515 0 LINE",
"527 66 LINE",
"142 66 LINE",
"192 322 LINE",
"539 322 LINE",
"551 388 LINE",
"205 388 LINE",
"252 631 LINE",
"637 631 LINE",
"651 697 LINE",
"194 697 LINE",
"58 0 LINE"
);
}
);
width = 616;
}
);
leftKerningGroup = B;
note = E;
rightKerningGroup = E;
unicode = 0045;
},
{
color = 1;
glyphname = F;
lastChange = "2019-05-10 16:44:50 +0000";
layers = (
{
anchors = (
{
name = bottom;
position = "{267, 0}";
},
{
name = top;
position = "{403, 697}";
}
);
layerId = "F91D9E91-C1BC-4259-B0D8-112C0CBA2B8E";
paths = (
{
closed = 1;
nodes = (
"91 0 LINE",
"158 346 LINE",
"541 346 LINE",
"543 357 LINE",
"160 357 LINE",
"225 687 LINE",
"663 687 LINE",
"665 697 LINE",
"217 697 LINE",
"81 0 LINE"
);
}
);
width = 629;
},
{
anchors = (
{
name = bottom;
position = "{255, 0}";
},
{
name = top;
position = "{391, 697}";
}
);
layerId = "5EAB4D72-96CB-4765-AAD5-A13175319428";
paths = (
{
closed = 1;
nodes = (
"165 0 LINE",
"224 301 LINE",
"549 301 LINE",
"571 416 LINE",
"246 416 LINE",
"278 582 LINE",
"647 582 LINE",
"670 697 LINE",
"176 697 LINE",
"40 0 LINE"
);
}
);
width = 605;
},
{
anchors = (
{
name = bottom;
position = "{267, 0}";
},
{
name = top;
position = "{403, 697}";
}
);
associatedMasterId = "F91D9E91-C1BC-4259-B0D8-112C0CBA2B8E";
layerId = "53751825-CB7B-4971-87F0-7DBD00A65D7B";
paths = (
{
closed = 1;
nodes = (
"91 0 LINE",
"158 346 LINE",
"541 346 LINE",
"543 357 LINE",
"160 357 LINE",
"225 687 LINE",
"663 687 LINE",
"665 697 LINE",
"217 697 LINE",
"81 0 LINE"
);
}
);
width = 629;
},
{
anchors = (
{
name = bottom;
position = "{259, 0}";
},
{
name = top;
position = "{395, 697}";
}
);
layerId = "D76894BF-AD8F-4700-A820-B81A81AE60D1";
paths = (
{
closed = 1;
nodes = (
"129 0 LINE",
"192 322 LINE",
"544 322 LINE",
"557 388 LINE",
"205 388 LINE",
"252 631 LINE",
"653 631 LINE",
"667 697 LINE",
"194 697 LINE",
"58 0 LINE"
);
}
);
width = 612;
}
);
leftKerningGroup = B;
note = F;
rightKerningGroup = F;
unicode = 0046;
},
{
color = 1;
glyphname = G;
lastChange = "2019-05-10 16:44:45 +0000";
layers = (
{
anchors = (
{
name = bottom;
position = "{333, 0}";
},
{
name = top;
position = "{469, 697}";
}
);
layerId = "F91D9E91-C1BC-4259-B0D8-112C0CBA2B8E";
paths = (
{
closed = 1;
nodes = (
"460 -5 OFFCURVE",
"587 56 OFFCURVE",
"637 190 CURVE",
"637 191 LINE",
"597 0 LINE",
"608 0 LINE",
"674 341 LINE",
"480 341 LINE",
"478 331 LINE",
"661 331 LINE",
"646 253 LINE SMOOTH",
"613 81 OFFCURVE",
"465 5 OFFCURVE",
"335 5 CURVE SMOOTH",
"174 5 OFFCURVE",
"108 104 OFFCURVE",
"108 244 CURVE SMOOTH",
"108 485 OFFCURVE",
"243 692 OFFCURVE",
"479 692 CURVE SMOOTH",
"611 692 OFFCURVE",
"677 637 OFFCURVE",
"698 521 CURVE",
"709 525 LINE",
"686 644 OFFCURVE",
"617 702 OFFCURVE",
"480 702 CURVE SMOOTH",
"239 702 OFFCURVE",
"98 493 OFFCURVE",
"98 243 CURVE SMOOTH",
"98 85 OFFCURVE",
"179.994 -5 OFFCURVE",
"335 -5 CURVE SMOOTH"
);
}
);
width = 759;
},
{
anchors = (
{
name = bottom;
position = "{328, 0}";
},
{
name = top;
position = "{464, 697}";
}
);
layerId = "5EAB4D72-96CB-4765-AAD5-A13175319428";
paths = (
{
closed = 1;
nodes = (
"435 -10 OFFCURVE",
"526 40 OFFCURVE",
"574 124 CURVE",
"559 148 LINE",
"545 0 LINE",
"644 0 LINE",
"717 377 LINE",
"437 377 LINE",
"418 276 LINE",
"574 276 LINE",
"574 290 LINE",
"551 171 OFFCURVE",
"459 109 OFFCURVE",
"344 109 CURVE SMOOTH",
"224 109 OFFCURVE",
"175 176 OFFCURVE",
"175 274 CURVE SMOOTH",
"175 444 OFFCURVE",
"279 589 OFFCURVE",
"448 589 CURVE SMOOTH",
"549 589 OFFCURVE",
"600 542 OFFCURVE",
"614 468 CURVE",
"734 505 LINE",
"711 621 OFFCURVE",
"625 708 OFFCURVE",
"460 708 CURVE SMOOTH",
"219 708 OFFCURVE",
"51 510 OFFCURVE",
"51 266 CURVE SMOOTH",
"51 112 OFFCURVE",
"136 -10 OFFCURVE",
"332 -10 CURVE SMOOTH"
);
}
);
width = 754;
},
{
anchors = (
{
name = bottom;
position = "{333, 0}";
},
{
name = top;
position = "{469, 697}";
}
);
associatedMasterId = "F91D9E91-C1BC-4259-B0D8-112C0CBA2B8E";
layerId = "53751825-CB7B-4971-87F0-7DBD00A65D7B";
paths = (
{
closed = 1;
nodes = (
"459 -5 OFFCURVE",
"585 55 OFFCURVE",
"636 187 CURVE",
"597 0 LINE",
"608 0 LINE",
"674 341 LINE",
"480 341 LINE",
"478 331 LINE",
"661 331 LINE",
"646 253 LINE SMOOTH",
"613 81 OFFCURVE",
"467 5 OFFCURVE",
"335 5 CURVE SMOOTH",
"174 5 OFFCURVE",
"108 104 OFFCURVE",
"108 244 CURVE SMOOTH",
"108 485 OFFCURVE",
"243 692 OFFCURVE",
"479 692 CURVE SMOOTH",
"611 692 OFFCURVE",
"677 637 OFFCURVE",
"698 521 CURVE",
"709 525 LINE",
"686 644 OFFCURVE",
"617 702 OFFCURVE",
"480 702 CURVE SMOOTH",
"239 702 OFFCURVE",
"98 493 OFFCURVE",
"98 243 CURVE SMOOTH",
"98 85 OFFCURVE",
"179.994 -5 OFFCURVE",
"335 -5 CURVE SMOOTH"
);
}
);
width = 759;
},
{
anchors = (
{
name = bottom;
position = "{330, 0}";
},
{
name = top;
position = "{466, 697}";
}
);
layerId = "D76894BF-AD8F-4700-A820-B81A81AE60D1";
paths = (
{
closed = 1;
nodes = (
"452 -8 OFFCURVE",
"558 44 OFFCURVE",
"608 140 CURVE",
"593 141 LINE",
"569 0 LINE",
"627 0 LINE",
"697 360 LINE",
"457 360 LINE",
"446 302 LINE",
"615 302 LINE",
"609 272 LINE SMOOTH",
"580 129 OFFCURVE",
"465 60 OFFCURVE",
"338 60 CURVE SMOOTH",
"201 60 OFFCURVE",
"144 140 OFFCURVE",
"144 271 CURVE SMOOTH",
"144 459 OFFCURVE",
"262 637 OFFCURVE",
"466 637 CURVE SMOOTH",
"579 637 OFFCURVE",
"637 583 OFFCURVE",
"653 493 CURVE",
"722 514 LINE",
"702 622 OFFCURVE",
"628 705 OFFCURVE",
"473 705 CURVE SMOOTH",
"229 705 OFFCURVE",
"73 498 OFFCURVE",
"73 268 CURVE SMOOTH",
"73 99 OFFCURVE",
"158 -8 OFFCURVE",
"331 -8 CURVE SMOOTH"
);
}
);
width = 755;
}
);
leftKerningGroup = C;
note = G;
rightKerningGroup = G;
unicode = 0047;
},
{
color = 1;
glyphname = H;
lastChange = "2019-05-10 16:44:50 +0000";
layers = (
{
anchors = (
{
name = bottom;
position = "{305, 0}";
},
{
name = center;
position = "{409, 535}";
},
{
name = top;
position = "{441, 697}";
},
{
name = topleft;
position = "{108, 697}";
}
);
layerId = "F91D9E91-C1BC-4259-B0D8-112C0CBA2B8E";
paths = (
{
closed = 1;
nodes = (
"91 0 LINE",
"159 347 LINE",
"586 347 LINE",
"518 0 LINE",
"528 0 LINE",
"664 697 LINE",
"654 697 LINE",
"588 358 LINE",
"161 358 LINE",
"227 697 LINE",
"217 697 LINE",
"81 0 LINE"
);
}
);
width = 705;
},
{
anchors = (
{
name = bottom;
position = "{318, 0}";
},
{
name = center;
position = "{428, 565}";
},
{
name = top;
position = "{454, 697}";
},
{
name = topleft;
position = "{108, 697}";
}
);
layerId = "5EAB4D72-96CB-4765-AAD5-A13175319428";
paths = (
{
closed = 1;
nodes = (
"165 0 LINE",
"224 301 LINE",
"529 301 LINE",
"470 0 LINE",
"595 0 LINE",
"731 697 LINE",
"606 697 LINE",
"551 416 LINE",
"246 416 LINE",
"301 697 LINE",
"176 697 LINE",
"40 0 LINE"
);
}
);
width = 731;
},
{
anchors = (
{
name = bottom;
position = "{305, 0}";
},
{
name = center;
position = "{409, 535}";
},
{
name = top;
position = "{441, 697}";
},
{
name = topleft;
position = "{108, 697}";
}
);
associatedMasterId = "F91D9E91-C1BC-4259-B0D8-112C0CBA2B8E";
layerId = "53751825-CB7B-4971-87F0-7DBD00A65D7B";
paths = (
{
closed = 1;
nodes = (
"91 0 LINE",
"159 347 LINE",
"586 347 LINE",
"518 0 LINE",
"528 0 LINE",
"664 697 LINE",
"654 697 LINE",
"588 358 LINE",
"161 358 LINE",
"227 697 LINE",
"217 697 LINE",
"81 0 LINE"
);
}
);
width = 705;
},
{
anchors = (
{
name = bottom;
position = "{369, 301}";
},
{
name = center;
position = "{415, 535}";
},
{
name = top;
position = "{447, 697}";
},
{
name = topleft;
position = "{107, 697}";
}
);
layerId = "D76894BF-AD8F-4700-A820-B81A81AE60D1";
paths = (
{
closed = 1;
nodes = (
"129 0 LINE",
"193 322 LINE",
"554 322 LINE",
"491 0 LINE",
"563 0 LINE",
"699 697 LINE",
"627 697 LINE",
"567 389 LINE",
"205 389 LINE",
"265 697 LINE",
"194 697 LINE",
"58 0 LINE"
);
}
);
width = 717;
}
);
leftKerningGroup = B;
note = H;
rightKerningGroup = H;
unicode = 0048;
},
{
color = 1;
glyphname = I;
lastChange = "2019-05-10 16:44:51 +0000";
layers = (
{
anchors = (
{
name = bottom;
position = "{86, 0}";
},
{
name = ogonek;
position = "{91, 0}";
},
{
name = top;
position = "{222, 697}";
},
{
name = topleft;
position = "{108, 697}";
}
);
layerId = "F91D9E91-C1BC-4259-B0D8-112C0CBA2B8E";
paths = (
{
closed = 1;
nodes = (
"91 0 LINE",
"227 697 LINE",
"217 697 LINE",
"81 0 LINE"
);
}
);
width = 268;
},
{
anchors = (
{
name = bottom;
position = "{103, 0}";
},
{
name = ogonek;
position = "{165, 0}";
},
{
name = top;
position = "{239, 697}";
},
{
name = topleft;
position = "{108, 697}";
}
);
layerId = "5EAB4D72-96CB-4765-AAD5-A13175319428";
paths = (
{
closed = 1;
nodes = (
"165 0 LINE",
"301 697 LINE",
"176 697 LINE",
"40 0 LINE"
);
}
);
width = 301;
},
{
anchors = (
{
name = bottom;
position = "{86, 0}";
},
{
name = ogonek;
position = "{91, 0}";
},
{
name = top;
position = "{222, 697}";
},
{
name = topleft;
position = "{108, 697}";
}
);
associatedMasterId = "F91D9E91-C1BC-4259-B0D8-112C0CBA2B8E";
layerId = "53751825-CB7B-4971-87F0-7DBD00A65D7B";
paths = (
{
closed = 1;
nodes = (
"91 0 LINE",
"227 697 LINE",
"217 697 LINE",
"81 0 LINE"
);
}
);
width = 268;
},
{
anchors = (
{
name = bottom;
position = "{94, 0}";
},
{
name = ogonek;
position = "{129, 0}";
},
{
name = top;
position = "{230, 697}";
},
{
name = topleft;
position = "{107, 697}";
}
);
layerId = "D76894BF-AD8F-4700-A820-B81A81AE60D1";
paths = (
{
closed = 1;
nodes = (
"129 0 LINE",
"265 697 LINE",
"194 697 LINE",
"58 0 LINE"
);
}
);
width = 283;
}
);
leftKerningGroup = B;
note = I;
rightKerningGroup = H;
unicode = 0049;
},
{
color = 1;
glyphname = J;
lastChange = "2019-05-10 16:44:51 +0000";
layers = (
{
anchors = (
{
name = bottom;
position = "{247, 0}";
},
{
name = top;
position = "{383, 697}";
}
);
layerId = "F91D9E91-C1BC-4259-B0D8-112C0CBA2B8E";
paths = (
{
closed = 1;
nodes = (
"354 -5 OFFCURVE",
"440 84 OFFCURVE",
"474 257 CURVE SMOOTH",
"560 697 LINE",
"246 697 LINE",
"244 687 LINE",
"548 687 LINE",
"464 257 LINE SMOOTH",
"431 89 OFFCURVE",
"349 5 OFFCURVE",
"221 5 CURVE SMOOTH",
"107 5 OFFCURVE",
"45 76 OFFCURVE",
"59 190 CURVE",
"49 190 LINE",
"35 70 OFFCURVE",
"100 -5 OFFCURVE",
"221 -5 CURVE SMOOTH"
);
}
);
width = 588;
},
{
anchors = (
{
name = bottom;
position = "{231, 0}";
},
{
name = top;
position = "{367, 697}";
}
);
layerId = "5EAB4D72-96CB-4765-AAD5-A13175319428";
paths = (
{
closed = 1;
nodes = (
"369 -10 OFFCURVE",
"455 98 OFFCURVE",
"482 237 CURVE SMOOTH",
"572 697 LINE",
"184 697 LINE",
"161 582 LINE",
"424 582 LINE",
"360 254 LINE SMOOTH",
"345 175 OFFCURVE",
"317 106 OFFCURVE",
"216 106 CURVE SMOOTH",
"144 106 OFFCURVE",
"124 158 OFFCURVE",
"132 226 CURVE",
"8 222 LINE",
"-7 99 OFFCURVE",
"59 -10 OFFCURVE",
"205 -10 CURVE SMOOTH"
);
}
);
width = 559;
},
{
anchors = (
{
name = bottom;
position = "{247, 0}";
},
{
name = top;
position = "{383, 697}";
}
);
associatedMasterId = "F91D9E91-C1BC-4259-B0D8-112C0CBA2B8E";
layerId = "53751825-CB7B-4971-87F0-7DBD00A65D7B";
paths = (
{
closed = 1;
nodes = (
"354 -5 OFFCURVE",
"440 84 OFFCURVE",
"474 257 CURVE SMOOTH",
"560 697 LINE",
"246 697 LINE",
"244 687 LINE",
"548 687 LINE",
"464 257 LINE SMOOTH",
"431 89 OFFCURVE",
"349 5 OFFCURVE",
"221 5 CURVE SMOOTH",
"107 5 OFFCURVE",
"45 76 OFFCURVE",
"59 190 CURVE",
"49 190 LINE",
"35 70 OFFCURVE",
"100 -5 OFFCURVE",
"221 -5 CURVE SMOOTH"
);
}
);
width = 588;
},
{
anchors = (
{
name = bottom;
position = "{235, 0}";
},
{
name = top;
position = "{371, 697}";
}
);
layerId = "D76894BF-AD8F-4700-A820-B81A81AE60D1";
paths = (
{
closed = 1;
nodes = (
"359 -8 OFFCURVE",
"444 90 OFFCURVE",
"475 246 CURVE SMOOTH",
"563 697 LINE",
"210 697 LINE",
"197 631 LINE",
"479 631 LINE",
"405 255 LINE SMOOTH",
"384 151 OFFCURVE",
"341 59 OFFCURVE",
"215 59 CURVE SMOOTH",
"123 59 OFFCURVE",
"84 120 OFFCURVE",
"95 209 CURVE",
"24 207 LINE",
"10 90 OFFCURVE",
"71 -8 OFFCURVE",
"209 -8 CURVE SMOOTH"
);
}
);
width = 568;
}
);
leftKerningGroup = J;
note = J;
rightKerningGroup = J;
unicode = 004A;
},
{
color = 1;
glyphname = K;
lastChange = "2019-05-10 16:44:51 +0000";
layers = (
{
anchors = (
{
name = bottom;
position = "{298, 0}";
},
{
name = top;
position = "{434, 697}";
}
);
layerId = "F91D9E91-C1BC-4259-B0D8-112C0CBA2B8E";
paths = (
{
closed = 1;
nodes = (
"91 0 LINE",
"132 209 LINE",
"699 697 LINE",
"684 697 LINE",
"134 223 LINE",
"227 697 LINE",
"217 697 LINE",
"81 0 LINE"
);
},
{
closed = 1;
nodes = (
"586 0 LINE",
"413 457 LINE",
"405 450 LINE",
"575 0 LINE"
);
}
);
width = 692;
},
{
anchors = (
{
name = bottom;
position = "{304, 0}";
},
{
name = top;
position = "{440, 697}";
}
);
layerId = "5EAB4D72-96CB-4765-AAD5-A13175319428";
paths = (
{
closed = 1;
nodes = (
"165 0 LINE",
"207 212 LINE",
"779 697 LINE",
"613 697 LINE",
"236 369 LINE",
"301 697 LINE",
"176 697 LINE",
"40 0 LINE"
);
},
{
closed = 1;
nodes = (
"648 0 LINE",
"459 447 LINE",
"370 370 LINE",
"515 0 LINE"
);
}
);
width = 703;
},
{
anchors = (
{
name = bottom;
position = "{298, 0}";
},
{
name = top;
position = "{434, 697}";
}
);
associatedMasterId = "F91D9E91-C1BC-4259-B0D8-112C0CBA2B8E";
layerId = "53751825-CB7B-4971-87F0-7DBD00A65D7B";
paths = (
{
closed = 1;
nodes = (
"91 0 LINE",
"132 209 LINE",
"699 697 LINE",
"684 697 LINE",
"134 223 LINE",
"227 697 LINE",
"217 697 LINE",
"81 0 LINE"
);
},
{
closed = 1;
nodes = (
"586 0 LINE",
"413 457 LINE",
"405 450 LINE",
"575 0 LINE"
);
}
);
width = 692;
},
{
anchors = (
{
name = bottom;
position = "{300, 0}";
},
{
name = top;
position = "{436, 697}";
}
);
layerId = "D76894BF-AD8F-4700-A820-B81A81AE60D1";
paths = (
{
closed = 1;
nodes = (
"129 0 LINE",
"171 211 LINE",
"741 697 LINE",
"645 697 LINE",
"187 301 LINE",
"265 697 LINE",
"194 697 LINE",
"58 0 LINE"
);
},
{
closed = 1;
nodes = (
"618 0 LINE",
"436 452 LINE",
"385 407 LINE",
"542 0 LINE"
);
}
);
width = 696;
}
);
leftKerningGroup = B;
note = K;
rightKerningGroup = K;
unicode = 004B;
},
{
color = 1;
glyphname = L;
lastChange = "2019-05-10 16:44:48 +0000";
layers = (
{
anchors = (
{
name = bottom;
position = "{217, 0}";
},
{
name = center;
position = "{225, 379}";
},
{
name = top;
position = "{222, 697}";
},
{
name = topright;
position = "{463, 493}";
}
);
layerId = "F91D9E91-C1BC-4259-B0D8-112C0CBA2B8E";
paths = (
{
closed = 1;
nodes = (
"431 0 LINE",
"433 10 LINE",
"93 10 LINE",
"227 697 LINE",
"217 697 LINE",
"81 0 LINE"
);
}
);
width = 529;
},
{
anchors = (
{
name = bottom;
position = "{252, 0}";
},
{
name = center;
position = "{190, 336}";
},
{
name = top;
position = "{239, 697}";
},
{
name = topright;
position = "{477, 493}";
}
);
layerId = "5EAB4D72-96CB-4765-AAD5-A13175319428";
paths = (
{
closed = 1;
nodes = (
"463 0 LINE",
"485 115 LINE",
"187 115 LINE",
"301 697 LINE",
"176 697 LINE",
"40 0 LINE"
);
}
);
width = 520;
},
{
anchors = (
{
name = bottom;
position = "{217, 0}";
},
{
name = center;
position = "{225, 379}";
},
{
name = top;
position = "{222, 697}";
},
{
name = topright;
position = "{463, 493}";
}
);
associatedMasterId = "F91D9E91-C1BC-4259-B0D8-112C0CBA2B8E";
layerId = "53751825-CB7B-4971-87F0-7DBD00A65D7B";
paths = (
{
closed = 1;
nodes = (
"431 0 LINE",
"433 10 LINE",
"93 10 LINE",
"227 697 LINE",
"217 697 LINE",
"81 0 LINE"
);
}
);
width = 529;
},
{
anchors = (
{
name = bottom;
position = "{265, 0}";
},
{
name = center;
position = "{219, 359}";
},
{
name = top;
position = "{230, 697}";
},
{
name = topright;
position = "{469, 493}";
}
);
layerId = "D76894BF-AD8F-4700-A820-B81A81AE60D1";
paths = (
{
closed = 1;
nodes = (
"447 0 LINE",
"460 66 LINE",
"142 66 LINE",
"265 697 LINE",
"194 697 LINE",
"58 0 LINE"
);
}
);
width = 522;
}
);
leftKerningGroup = B;
note = L;
rightKerningGroup = L;
unicode = 004C;
},
{
color = 1;
glyphname = M;
lastChange = "2019-05-10 16:12:38 +0000";
layers = (
{
anchors = (
{
name = bottom;
position = "{383, 0}";
},
{
name = top;
position = "{519, 697}";
}
);
layerId = "F91D9E91-C1BC-4259-B0D8-112C0CBA2B8E";
paths = (
{
closed = 1;
nodes = (
"91 0 LINE",
"225 687 LINE",
"227 687 LINE",
"388 54 LINE",
"399 54 LINE",
"806 687 LINE",
"808 687 LINE",
"674 0 LINE",
"684 0 LINE",
"820 697 LINE",
"801 697 LINE",
"393 61 LINE",
"396 61 LINE",
"234 697 LINE",
"217 697 LINE",
"81 0 LINE"
);
}
);
width = 861;
},
{
anchors = (
{
name = bottom;
position = "{399, 0}";
},
{
name = top;
position = "{535, 697}";
}
);
layerId = "5EAB4D72-96CB-4765-AAD5-A13175319428";
paths = (
{
closed = 1;
nodes = (
"165 0 LINE",
"276 572 LINE",
"258 572 LINE",
"351 61 LINE",
"472 61 LINE",
"763 572 LINE",
"743 572 LINE",
"632 0 LINE",
"757 0 LINE",
"893 697 LINE",
"713 697 LINE",
"409 159 LINE",
"445 153 LINE",
"354 697 LINE",
"176 697 LINE",
"40 0 LINE"
);
}
);
width = 893;
},
{
anchors = (
{
name = bottom;
position = "{383, 0}";
},
{
name = top;
position = "{519, 697}";
}
);
associatedMasterId = "F91D9E91-C1BC-4259-B0D8-112C0CBA2B8E";
layerId = "53751825-CB7B-4971-87F0-7DBD00A65D7B";
paths = (
{
closed = 1;
nodes = (
"91 0 LINE",
"225 687 LINE",
"227 687 LINE",
"388 54 LINE",
"399 54 LINE",
"806 687 LINE",
"808 687 LINE",
"674 0 LINE",
"684 0 LINE",
"820 697 LINE",
"801 697 LINE",
"395 65 LINE",
"234 697 LINE",
"217 697 LINE",
"81 0 LINE"
);
}
);
width = 861;
},
{
anchors = (
{
name = bottom;
position = "{390, 0}";
},
{
name = top;
position = "{526, 697}";
}
);
layerId = "D76894BF-AD8F-4700-A820-B81A81AE60D1";
paths = (
{
closed = 1;
nodes = (
"129 0 LINE",
"251 626 LINE",
"245 626 LINE",
"367 58 LINE",
"437 58 LINE",
"787 626 LINE",
"772 626 LINE",
"650 0 LINE",
"722 0 LINE",
"858 697 LINE",
"753 697 LINE",
"409 136 LINE",
"417 136 LINE",
"297 697 LINE",
"194 697 LINE",
"58 0 LINE"
);
}
);
width = 876;
}
);
leftKerningGroup = B;
note = M;
rightKerningGroup = H;
unicode = 004D;
},
{
color = 1;
glyphname = N;
lastChange = "2019-05-10 16:44:50 +0000";
layers = (
{
anchors = (
{
name = bottom;
position = "{296, 0}";
},
{
name = top;
position = "{432, 697}";
}
);
layerId = "F91D9E91-C1BC-4259-B0D8-112C0CBA2B8E";
paths = (
{
closed = 1;
nodes = (
"91 0 LINE",
"225 687 LINE",
"227 687 LINE",
"492 0 LINE",
"511 0 LINE",
"647 697 LINE",
"637 697 LINE",
"503 10 LINE",
"500 10 LINE",
"234 697 LINE",
"217 697 LINE",
"81 0 LINE"
);
}
);
width = 688;
},
{
anchors = (
{
name = bottom;
position = "{314, 0}";
},
{
name = top;
position = "{450, 697}";
}
);
layerId = "5EAB4D72-96CB-4765-AAD5-A13175319428";
paths = (
{
closed = 1;
nodes = (
"165 0 LINE",
"269 535 LINE",
"233 535 LINE",
"458 0 LINE",
"587 0 LINE",
"723 697 LINE",
"598 697 LINE",
"494 163 LINE",
"531 163 LINE",
"304 697 LINE",
"176 697 LINE",
"40 0 LINE"
);
}
);
width = 723;
},
{
anchors = (
{
name = bottom;
position = "{296, 0}";
},
{
name = top;
position = "{432, 697}";
}
);
associatedMasterId = "F91D9E91-C1BC-4259-B0D8-112C0CBA2B8E";
layerId = "53751825-CB7B-4971-87F0-7DBD00A65D7B";
paths = (
{
closed = 1;
nodes = (
"91 0 LINE",
"225 687 LINE",
"227 687 LINE",
"492 0 LINE",
"511 0 LINE",
"647 697 LINE",
"637 697 LINE",
"503 10 LINE",
"500 10 LINE",
"234 697 LINE",
"217 697 LINE",
"81 0 LINE"
);
}
);
width = 688;
},
{
anchors = (
{
name = bottom;
position = "{304, 0}";
},
{
name = top;
position = "{440, 697}";
}
);
layerId = "D76894BF-AD8F-4700-A820-B81A81AE60D1";
paths = (
{
closed = 1;
nodes = (
"129 0 LINE",
"247 606 LINE",
"229 606 LINE",
"473 0 LINE",
"550 0 LINE",
"686 697 LINE",
"615 697 LINE",
"497 92 LINE",
"515 92 LINE",
"270 697 LINE",
"194 697 LINE",
"58 0 LINE"
);
}
);
width = 704;
}
);
leftKerningGroup = B;
note = N;
rightKerningGroup = H;
unicode = 004E;
},
{
color = 1;
glyphname = Eng;
lastChange = "2019-05-10 16:44:50 +0000";
layers = (
{
layerId = "F91D9E91-C1BC-4259-B0D8-112C0CBA2B8E";
paths = (
{
closed = 1;
nodes = (
"443 -158 OFFCURVE",
"490 -109 OFFCURVE",
"506 -28 CURVE SMOOTH",
"647 697 LINE",
"637 697 LINE",
"503 10 LINE",
"500 10 LINE",
"234 697 LINE",
"217 697 LINE",
"81 0 LINE",
"91 0 LINE",
"225 687 LINE",
"227 687 LINE",
"492 0 LINE SMOOTH",
"495 -8 OFFCURVE",
"499 -13 OFFCURVE",
"494 -35 CURVE SMOOTH",
"483 -93 OFFCURVE",
"444 -147 OFFCURVE",
"364 -147 CURVE SMOOTH",
"347 -147 OFFCURVE",
"318 -141 OFFCURVE",
"298 -132 CURVE",
"293 -142 LINE",
"313 -151 OFFCURVE",
"344 -158 OFFCURVE",
"363 -158 CURVE SMOOTH"
);
}
);
width = 688;
},
{
layerId = "5EAB4D72-96CB-4765-AAD5-A13175319428";
paths = (
{
closed = 1;
nodes = (
"507 -182 OFFCURVE",
"568 -98 OFFCURVE",
"586 -5 CURVE SMOOTH",
"723 697 LINE",
"598 697 LINE",
"497 178 LINE",
"524 178 LINE",
"304 697 LINE",
"176 697 LINE",
"40 0 LINE",
"165 0 LINE",
"266 521 LINE",
"239 521 LINE",
"459 4 LINE SMOOTH",
"463 -5 OFFCURVE",
"465 -15 OFFCURVE",
"462 -29 CURVE SMOOTH",
"455 -66 OFFCURVE",
"419 -100 OFFCURVE",
"358 -100 CURVE SMOOTH",
"350 -100 OFFCURVE",
"337 -100 OFFCURVE",
"324 -98 CURVE",
"315 -175 LINE",
"340 -180 OFFCURVE",
"362 -182 OFFCURVE",
"386 -182 CURVE SMOOTH"
);
}
);
width = 723;
},
{
associatedMasterId = "F91D9E91-C1BC-4259-B0D8-112C0CBA2B8E";
layerId = "53751825-CB7B-4971-87F0-7DBD00A65D7B";
paths = (
{
closed = 1;
nodes = (
"443 -158 OFFCURVE",
"490 -109 OFFCURVE",
"506 -28 CURVE SMOOTH",
"647 697 LINE",
"637 697 LINE",
"503 10 LINE",
"500 10 LINE",
"234 697 LINE",
"217 697 LINE",
"81 0 LINE",
"91 0 LINE",
"225 687 LINE",
"227 687 LINE",
"492 0 LINE SMOOTH",
"494 -6 OFFCURVE",
"498 -15 OFFCURVE",
"494 -35 CURVE SMOOTH",
"483 -93 OFFCURVE",
"444 -147 OFFCURVE",
"364 -147 CURVE SMOOTH",
"347 -147 OFFCURVE",
"318 -141 OFFCURVE",
"298 -132 CURVE",
"293 -142 LINE",
"313 -151 OFFCURVE",
"344 -158 OFFCURVE",
"363 -158 CURVE SMOOTH"
);
}
);
width = 688;
},
{
layerId = "D76894BF-AD8F-4700-A820-B81A81AE60D1";
paths = (
{
closed = 1;
nodes = (
"476 -171 OFFCURVE",
"530 -103 OFFCURVE",
"547 -16 CURVE SMOOTH",
"686 697 LINE",
"615 697 LINE",
"499 100 LINE",
"512 100 LINE",
"270 697 LINE",
"194 697 LINE",
"58 0 LINE",
"129 0 LINE",
"246 598 LINE",
"232 598 LINE",
"473 2 LINE SMOOTH",
"476 -5 OFFCURVE",
"479 -16 OFFCURVE",
"476 -31 CURVE SMOOTH",
"467 -79 OFFCURVE",
"429 -122 OFFCURVE",
"360 -122 CURVE SMOOTH",
"347 -122 OFFCURVE",
"327 -119 OFFCURVE",
"311 -114 CURVE",
"304 -160 LINE",
"325 -166 OFFCURVE",
"351 -171 OFFCURVE",
"374 -171 CURVE SMOOTH"
);
}
);
width = 704;
}
);
leftKerningGroup = B;
note = Eng;
rightKerningGroup = H;
unicode = 014A;
},
{
color = 1;
glyphname = O;
lastChange = "2019-05-10 15:53:28 +0000";
layers = (
{
anchors = (
{
name = bottom;
position = "{341, 0}";
},
{
name = center;
position = "{409, 349}";
},
{
name = ogonek;
position = "{399, 0}";
},
{
name = top;
position = "{477, 697}";
},
{
name = topleft;
position = "{108, 697}";
},
{
name = topright;
position = "{766, 493}";
}
);
layerId = "F91D9E91-C1BC-4259-B0D8-112C0CBA2B8E";
paths = (
{
closed = 1;
nodes = (
"565 -5 OFFCURVE",
"722 208 OFFCURVE",
"722 443 CURVE SMOOTH",
"722 590 OFFCURVE",
"646 702 OFFCURVE",
"476 702 CURVE SMOOTH",
"252 702 OFFCURVE",
"96 488 OFFCURVE",
"96 253 CURVE SMOOTH",
"96 107 OFFCURVE",
"171 -5 OFFCURVE",
"340 -5 CURVE SMOOTH"
);
},
{
closed = 1;
nodes = (
"178 5 OFFCURVE",
"106 110 OFFCURVE",
"106 251 CURVE SMOOTH",
"106 481 OFFCURVE",
"252 692 OFFCURVE",
"475 692 CURVE SMOOTH",
"640 692 OFFCURVE",
"712 586 OFFCURVE",
"712 444 CURVE SMOOTH",
"712 214 OFFCURVE",
"564 5 OFFCURVE",
"340 5 CURVE SMOOTH"
);
}
);
width = 779;
},
{
anchors = (
{
name = bottom;
position = "{323, 0}";
},
{
name = center;
position = "{391, 349}";
},
{
name = ogonek;
position = "{404, 0}";
},
{
name = top;
position = "{459, 697}";
},
{
name = topleft;
position = "{104, 697}";
},
{
name = topright;
position = "{734, 493}";
}
);
layerId = "5EAB4D72-96CB-4765-AAD5-A13175319428";
paths = (
{
closed = 1;
nodes = (
"560 -10 OFFCURVE",
"731 191 OFFCURVE",
"731 428 CURVE SMOOTH",
"731 583 OFFCURVE",
"643 707 OFFCURVE",
"455 707 CURVE SMOOTH",
"221 707 OFFCURVE",
"51 505 OFFCURVE",
"51 268 CURVE SMOOTH",
"51 114 OFFCURVE",
"138 -10 OFFCURVE",
"327 -10 CURVE SMOOTH"
);
},
{
closed = 1;
nodes = (
"226 109 OFFCURVE",
"175 180 OFFCURVE",
"175 276 CURVE SMOOTH",
"175 437 OFFCURVE",
"282 588 OFFCURVE",
"443 588 CURVE SMOOTH",
"556 588 OFFCURVE",
"607 517 OFFCURVE",
"607 419 CURVE SMOOTH",
"607 260 OFFCURVE",
"498 109 OFFCURVE",
"339 109 CURVE SMOOTH"
);
}
);
width = 742;
},
{
anchors = (
{
name = bottom;
position = "{341, 0}";
},
{
name = center;
position = "{409, 349}";
},
{
name = ogonek;
position = "{399, 0}";
},
{
name = top;
position = "{477, 697}";
},
{
name = topleft;
position = "{108, 697}";
},
{
name = topright;
position = "{766, 493}";
}
);
associatedMasterId = "F91D9E91-C1BC-4259-B0D8-112C0CBA2B8E";
layerId = "53751825-CB7B-4971-87F0-7DBD00A65D7B";
paths = (
{
closed = 1;
nodes = (
"565 -5 OFFCURVE",
"722 208 OFFCURVE",
"722 443 CURVE SMOOTH",
"722 590 OFFCURVE",
"646 702 OFFCURVE",
"476 702 CURVE SMOOTH",
"252 702 OFFCURVE",
"96 488 OFFCURVE",
"96 253 CURVE SMOOTH",
"96 107 OFFCURVE",
"171 -5 OFFCURVE",
"340 -5 CURVE SMOOTH"
);
},
{
closed = 1;
nodes = (
"178 5 OFFCURVE",
"106 110 OFFCURVE",
"106 251 CURVE SMOOTH",
"106 481 OFFCURVE",
"252 692 OFFCURVE",
"475 692 CURVE SMOOTH",
"640 692 OFFCURVE",
"712 586 OFFCURVE",
"712 444 CURVE SMOOTH",
"712 214 OFFCURVE",
"564 5 OFFCURVE",
"340 5 CURVE SMOOTH"
);
}
);
width = 779;
},
{
anchors = (
{
name = bottom;
position = "{331, 0}";
},
{
name = center;
position = "{399, 349}";
},
{
name = ogonek;
position = "{401, 0}";
},
{
name = top;
position = "{466, 697}";
},
{
name = topleft;
position = "{105, 697}";
},
{
name = topright;
position = "{748, 493}";
}
);
layerId = "D76894BF-AD8F-4700-A820-B81A81AE60D1";
paths = (
{
closed = 1;
nodes = (
"561 -8 OFFCURVE",
"726 199 OFFCURVE",
"726 435 CURVE SMOOTH",
"726 586 OFFCURVE",
"643 705 OFFCURVE",
"464 705 CURVE SMOOTH",
"235 705 OFFCURVE",
"71 497 OFFCURVE",
"71 261 CURVE SMOOTH",
"71 111 OFFCURVE",
"153 -8 OFFCURVE",
"332 -8 CURVE SMOOTH"
);
},
{
closed = 1;
nodes = (
"203 60 OFFCURVE",
"142 147 OFFCURVE",
"142 264 CURVE SMOOTH",
"142 457 OFFCURVE",
"267 637 OFFCURVE",
"457 637 CURVE SMOOTH",
"594 637 OFFCURVE",
"655 549 OFFCURVE",
"655 431 CURVE SMOOTH",
"655 239 OFFCURVE",
"528 60 OFFCURVE",
"338 60 CURVE SMOOTH"
);
}
);
width = 757;
}
);
leftKerningGroup = C;
note = O;
rightKerningGroup = D;
unicode = 004F;
},
{
color = 1;
glyphname = OE;
lastChange = "2019-05-10 15:30:36 +0000";
layers = (
{
layerId = "F91D9E91-C1BC-4259-B0D8-112C0CBA2B8E";
paths = (
{
closed = 1;
nodes = (
"509 -5 OFFCURVE",
"627 106 OFFCURVE",
"684 251 CURVE",
"635 0 LINE",
"1083 0 LINE",
"1085 10 LINE",
"647 10 LINE",
"712 346 LINE",
"1095 346 LINE",
"1097 357 LINE",
"714 357 LINE",
"779 687 LINE",
"1217 687 LINE",
"1219 697 LINE",
"771 697 LINE",
"722 444 LINE",
"721 590 OFFCURVE",
"646 702 OFFCURVE",
"476 702 CURVE SMOOTH",
"252 702 OFFCURVE",
"96 488 OFFCURVE",
"96 253 CURVE SMOOTH",
"96 107 OFFCURVE",
"171 -5 OFFCURVE",
"340 -5 CURVE SMOOTH"
);
},
{
closed = 1;
nodes = (
"178 5 OFFCURVE",
"106 110 OFFCURVE",
"106 251 CURVE SMOOTH",
"106 481 OFFCURVE",
"252 692 OFFCURVE",
"475 692 CURVE SMOOTH",
"640 692 OFFCURVE",
"712 586 OFFCURVE",
"712 444 CURVE SMOOTH",
"712 214 OFFCURVE",
"564 5 OFFCURVE",
"340 5 CURVE SMOOTH"
);
}
);
width = 1191;
},
{
layerId = "5EAB4D72-96CB-4765-AAD5-A13175319428";
paths = (
{
closed = 1;
nodes = (
"411 -10 OFFCURVE",
"483 14 OFFCURVE",
"543 55 CURVE",
"532 0 LINE",
"996 0 LINE",
"1018 115 LINE",
"679 115 LINE",
"716 301 LINE",
"1031 301 LINE",
"1053 416 LINE",
"738 416 LINE",
"770 582 LINE",
"1109 582 LINE",
"1132 697 LINE",
"668 697 LINE",
"656 634 LINE",
"610 679 OFFCURVE",
"544 707 OFFCURVE",
"455 707 CURVE SMOOTH",
"221 707 OFFCURVE",
"51 505 OFFCURVE",
"51 268 CURVE SMOOTH",
"51 114 OFFCURVE",
"138 -10 OFFCURVE",
"327 -10 CURVE SMOOTH"
);
},
{
closed = 1;
nodes = (
"226 109 OFFCURVE",
"175 180 OFFCURVE",
"175 276 CURVE SMOOTH",
"175 437 OFFCURVE",
"282 588 OFFCURVE",
"443 588 CURVE SMOOTH",
"556 588 OFFCURVE",
"607 517 OFFCURVE",
"607 419 CURVE SMOOTH",
"607 260 OFFCURVE",
"498 109 OFFCURVE",
"339 109 CURVE SMOOTH"
);
}
);
width = 1101;
},
{
associatedMasterId = "F91D9E91-C1BC-4259-B0D8-112C0CBA2B8E";
layerId = "53751825-CB7B-4971-87F0-7DBD00A65D7B";
paths = (
{
closed = 1;
nodes = (
"509 -5 OFFCURVE",
"627 106 OFFCURVE",
"684 251 CURVE",
"635 0 LINE",
"1083 0 LINE",
"1085 10 LINE",
"647 10 LINE",
"712 346 LINE",
"1095 346 LINE",
"1097 357 LINE",
"714 357 LINE",
"779 687 LINE",
"1217 687 LINE",
"1219 697 LINE",
"771 697 LINE",
"722 444 LINE",
"721 590 OFFCURVE",
"646 702 OFFCURVE",
"476 702 CURVE SMOOTH",
"252 702 OFFCURVE",
"96 488 OFFCURVE",
"96 253 CURVE SMOOTH",
"96 107 OFFCURVE",
"171 -5 OFFCURVE",
"340 -5 CURVE SMOOTH"
);
},
{
closed = 1;
nodes = (
"178 5 OFFCURVE",
"106 110 OFFCURVE",
"106 251 CURVE SMOOTH",
"106 481 OFFCURVE",
"252 692 OFFCURVE",
"475 692 CURVE SMOOTH",
"640 692 OFFCURVE",
"712 586 OFFCURVE",
"712 444 CURVE SMOOTH",
"712 214 OFFCURVE",
"564 5 OFFCURVE",
"340 5 CURVE SMOOTH"
);
}
);
width = 1191;
},
{
layerId = "D76894BF-AD8F-4700-A820-B81A81AE60D1";
paths = (
{
closed = 1;
nodes = (
"456 -8 OFFCURVE",
"549 57 OFFCURVE",
"608 146 CURVE",
"579 0 LINE",
"1036 0 LINE",
"1048 66 LINE",
"663 66 LINE",
"713 322 LINE",
"1060 322 LINE",
"1073 388 LINE",
"726 388 LINE",
"773 631 LINE",
"1158 631 LINE",
"1172 697 LINE",
"715 697 LINE",
"686 545 LINE",
"660 640 OFFCURVE",
"588 705 OFFCURVE",
"464 705 CURVE SMOOTH",
"235 705 OFFCURVE",
"71 497 OFFCURVE",
"71 261 CURVE SMOOTH",
"71 111 OFFCURVE",
"153 -8 OFFCURVE",
"332 -8 CURVE SMOOTH"
);
},
{
closed = 1;
nodes = (
"203 60 OFFCURVE",
"142 147 OFFCURVE",
"142 264 CURVE SMOOTH",
"142 457 OFFCURVE",
"267 637 OFFCURVE",
"457 637 CURVE SMOOTH",
"594 637 OFFCURVE",
"655 549 OFFCURVE",
"655 431 CURVE SMOOTH",
"655 239 OFFCURVE",
"528 60 OFFCURVE",
"338 60 CURVE SMOOTH"
);
}
);
width = 1137;
}
);
leftKerningGroup = C;
note = OE;
rightKerningGroup = E;
unicode = 0152;
},
{
color = 1;
glyphname = P;
lastChange = "2019-05-10 16:44:50 +0000";
layers = (
{
anchors = (
{
name = bottom;
position = "{245, 0}";
},
{
name = top;
position = "{381, 697}";
}
);
layerId = "F91D9E91-C1BC-4259-B0D8-112C0CBA2B8E";
paths = (
{
closed = 1;
nodes = (
"91 0 LINE",
"153 321 LINE",
"309 321 LINE SMOOTH",
"450 321 OFFCURVE",
"544 389 OFFCURVE",
"567 507 CURVE SMOOTH",
"590 626 OFFCURVE",
"519 697 OFFCURVE",
"381 697 CURVE SMOOTH",
"217 697 LINE",
"81 0 LINE"
);
},
{
closed = 1;
nodes = (
"225 687 LINE",
"380 687 LINE SMOOTH",
"513 687 OFFCURVE",
"579 620 OFFCURVE",
"557 509 CURVE SMOOTH",
"535 395 OFFCURVE",
"446 331 OFFCURVE",
"310 331 CURVE SMOOTH",
"155 331 LINE"
);
}
);
width = 585;
},
{
anchors = (
{
name = bottom;
position = "{239, 0}";
},
{
name = top;
position = "{375, 697}";
}
);
background = {
paths = (
{
closed = 1;
nodes = (
"37 61 LINE",
"164 61 LINE",
"164 289 LINE",
"317 289 LINE SMOOTH",
"468 289 OFFCURVE",
"553 361 OFFCURVE",
"553 496 CURVE SMOOTH",
"553 622 OFFCURVE",
"471 699 OFFCURVE",
"318 699 CURVE SMOOTH",
"37 699 LINE"
);
},
{
closed = 1;
nodes = (
"164 389 LINE",
"164 597 LINE",
"302 597 LINE SMOOTH",
"382 597 OFFCURVE",
"427 560 OFFCURVE",
"427 493 CURVE SMOOTH",
"427 426 OFFCURVE",
"383 389 OFFCURVE",
"303 389 CURVE SMOOTH"
);
}
);
};
layerId = "5EAB4D72-96CB-4765-AAD5-A13175319428";
paths = (
{
closed = 1;
nodes = (
"164 0 LINE",
"220 289 LINE",
"327 289 LINE SMOOTH",
"479 289 OFFCURVE",
"574 345 OFFCURVE",
"600 477 CURVE SMOOTH",
"625 606 OFFCURVE",
"567 697 OFFCURVE",
"401 697 CURVE SMOOTH",
"176 697 LINE",
"40 0 LINE"
);
},
{
closed = 1;
nodes = (
"277 582 LINE",
"371 582 LINE SMOOTH",
"452 582 OFFCURVE",
"490 557 OFFCURVE",
"478 493 CURVE SMOOTH",
"464 421 OFFCURVE",
"412 404 OFFCURVE",
"331 404 CURVE SMOOTH",
"243 404 LINE"
);
}
);
width = 576;
},
{
anchors = (
{
name = bottom;
position = "{245, 0}";
},
{
name = top;
position = "{381, 697}";
}
);
associatedMasterId = "F91D9E91-C1BC-4259-B0D8-112C0CBA2B8E";
layerId = "53751825-CB7B-4971-87F0-7DBD00A65D7B";
paths = (
{
closed = 1;
nodes = (
"91 0 LINE",
"153 321 LINE",
"309 321 LINE SMOOTH",
"450 321 OFFCURVE",
"544 389 OFFCURVE",
"567 507 CURVE SMOOTH",
"590 626 OFFCURVE",
"519 697 OFFCURVE",
"381 697 CURVE SMOOTH",
"217 697 LINE",
"81 0 LINE"
);
},
{
closed = 1;
nodes = (
"225 687 LINE",
"380 687 LINE SMOOTH",
"513 687 OFFCURVE",
"579 620 OFFCURVE",
"557 509 CURVE SMOOTH",
"535 395 OFFCURVE",
"446 331 OFFCURVE",
"310 331 CURVE SMOOTH",
"155 331 LINE"
);
}
);
width = 585;
},
{
anchors = (
{
name = bottom;
position = "{241, 0}";
},
{
name = top;
position = "{377, 697}";
}
);
layerId = "D76894BF-AD8F-4700-A820-B81A81AE60D1";
paths = (
{
closed = 1;
nodes = (
"129 0 LINE",
"188 304 LINE",
"317 304 LINE SMOOTH",
"459 304 OFFCURVE",
"558 362 OFFCURVE",
"583 489 CURVE SMOOTH",
"608 618 OFFCURVE",
"542 697 OFFCURVE",
"391 697 CURVE SMOOTH",
"194 697 LINE",
"58 0 LINE"
);
},
{
closed = 1;
nodes = (
"252 631 LINE",
"374 631 LINE SMOOTH",
"475 631 OFFCURVE",
"531 589 OFFCURVE",
"514 502 CURVE SMOOTH",
"496 409 OFFCURVE",
"428 370 OFFCURVE",
"320 370 CURVE SMOOTH",
"201 370 LINE"
);
}
);
width = 579;
}
);
leftKerningGroup = B;
note = P;
rightKerningGroup = P;
unicode = 0050;
},
{
color = 1;
glyphname = Thorn;
lastChange = "2019-05-10 15:30:21 +0000";
layers = (
{
anchors = (
{
name = bottom;
position = "{245, 0}";
},
{
name = top;
position = "{381, 697}";
}
);
layerId = "F91D9E91-C1BC-4259-B0D8-112C0CBA2B8E";
paths = (
{
closed = 1;
nodes = (
"91 0 LINE",
"133 216 LINE",
"288 216 LINE SMOOTH",
"441 216 OFFCURVE",
"550 302 OFFCURVE",
"550 445 CURVE SMOOTH",
"550 538 OFFCURVE",
"482 592 OFFCURVE",
"361 592 CURVE SMOOTH",
"206 592 LINE",
"227 697 LINE",
"217 697 LINE",
"81 0 LINE"
);
},
{
closed = 1;
nodes = (
"204 582 LINE",
"360 582 LINE SMOOTH",
"477 582 OFFCURVE",
"541 531 OFFCURVE",
"541 443 CURVE SMOOTH",
"541 310 OFFCURVE",
"438 226 OFFCURVE",
"290 226 CURVE SMOOTH",
"135 226 LINE"
);
}
);
width = 585;
},
{
anchors = (
{
name = bottom;
position = "{234, 0}";
},
{
name = top;
position = "{370, 697}";
}
);
layerId = "5EAB4D72-96CB-4765-AAD5-A13175319428";
paths = (
{
closed = 1;
nodes = (
"154 0 LINE",
"192 196 LINE",
"294 196 LINE SMOOTH",
"462 196 OFFCURVE",
"576 277 OFFCURVE",
"576 436 CURVE SMOOTH",
"576 533 OFFCURVE",
"515 601 OFFCURVE",
"394 601 CURVE SMOOTH",
"271 601 LINE",
"290 697 LINE",
"176 697 LINE",
"40 0 LINE"
);
},
{
closed = 1;
nodes = (
"252 503 LINE",
"354 503 LINE SMOOTH",
"429 503 OFFCURVE",
"462 472 OFFCURVE",
"462 423 CURVE SMOOTH",
"462 340 OFFCURVE",
"405 300 OFFCURVE",
"309 300 CURVE SMOOTH",
"212 300 LINE"
);
}
);
width = 565;
},
{
anchors = (
{
name = bottom;
position = "{245, 0}";
},
{
name = top;
position = "{381, 697}";
}
);
associatedMasterId = "F91D9E91-C1BC-4259-B0D8-112C0CBA2B8E";
layerId = "53751825-CB7B-4971-87F0-7DBD00A65D7B";
paths = (
{
closed = 1;
nodes = (
"91 0 LINE",
"133 216 LINE",
"288 216 LINE SMOOTH",
"441 216 OFFCURVE",
"550 302 OFFCURVE",
"550 445 CURVE SMOOTH",
"550 538 OFFCURVE",
"482 592 OFFCURVE",
"361 592 CURVE SMOOTH",
"206 592 LINE",
"227 697 LINE",
"217 697 LINE",
"81 0 LINE"
);
},
{
closed = 1;
nodes = (
"204 582 LINE",
"360 582 LINE SMOOTH",
"477 582 OFFCURVE",
"541 531 OFFCURVE",
"541 443 CURVE SMOOTH",
"541 310 OFFCURVE",
"438 226 OFFCURVE",
"290 226 CURVE SMOOTH",
"135 226 LINE"
);
}
);
width = 585;
},
{
anchors = (
{
name = bottom;
position = "{238, 0}";
},
{
name = top;
position = "{374, 697}";
}
);
layerId = "D76894BF-AD8F-4700-A820-B81A81AE60D1";
paths = (
{
closed = 1;
nodes = (
"123 0 LINE",
"163 205 LINE",
"290 205 LINE SMOOTH",
"451 205 OFFCURVE",
"563 289 OFFCURVE",
"563 440 CURVE SMOOTH",
"563 535 OFFCURVE",
"498 597 OFFCURVE",
"377 597 CURVE SMOOTH",
"240 597 LINE",
"259 697 LINE",
"194 697 LINE",
"58 0 LINE"
);
},
{
closed = 1;
nodes = (
"228 540 LINE",
"356 540 LINE SMOOTH",
"450 540 OFFCURVE",
"498 499 OFFCURVE",
"498 432 CURVE SMOOTH",
"498 326 OFFCURVE",
"419 265 OFFCURVE",
"299 265 CURVE SMOOTH",
"175 265 LINE"
);
}
);
width = 573;
}
);
leftKerningGroup = B;
note = Thorn;
rightKerningGroup = Thorn;
unicode = 00DE;
},
{
color = 1;
glyphname = Q;
lastChange = "2019-05-10 16:28:52 +0000";
layers = (
{
anchors = (
{
name = bottom;
position = "{345, 0}";
},
{
name = top;
position = "{481, 697}";
}
);
background = {
paths = (
{
closed = 1;
nodes = (
"646 -19 LINE",
"566 79 LINE",
"642 145 OFFCURVE",
"691 242 OFFCURVE",
"712 348 CURVE SMOOTH",
"749 538 OFFCURVE",
"682 702 OFFCURVE",
"476 702 CURVE SMOOTH",
"272 702 OFFCURVE",
"143 538 OFFCURVE",
"106 349 CURVE SMOOTH",
"69 159 OFFCURVE",
"135 -5 OFFCURVE",
"340 -5 CURVE SMOOTH",
"427 -5 OFFCURVE",
"501 25 OFFCURVE",
"559 73 CURVE",
"639 -25 LINE"
);
},
{
closed = 1;
nodes = (
"145 5 OFFCURVE",
"79 157 OFFCURVE",
"116 348 CURVE SMOOTH",
"154 541 OFFCURVE",
"280 692 OFFCURVE",
"475 692 CURVE SMOOTH",
"675 692 OFFCURVE",
"738 536 OFFCURVE",
"702 350 CURVE SMOOTH",
"681 243 OFFCURVE",
"634 149 OFFCURVE",
"561 86 CURVE",
"450 223 LINE",
"442 217 LINE",
"554 80 LINE",
"497 33 OFFCURVE",
"425 5 OFFCURVE",
"340 5 CURVE SMOOTH"
);
}
);
};
layerId = "F91D9E91-C1BC-4259-B0D8-112C0CBA2B8E";
paths = (
{
closed = 1;
nodes = (
"565 -5 OFFCURVE",
"722 208 OFFCURVE",
"722 443 CURVE SMOOTH",
"722 590 OFFCURVE",
"646 702 OFFCURVE",
"476 702 CURVE SMOOTH",
"252 702 OFFCURVE",
"96 488 OFFCURVE",
"96 253 CURVE SMOOTH",
"96 107 OFFCURVE",
"171 -5 OFFCURVE",
"340 -5 CURVE SMOOTH"
);
},
{
closed = 1;
nodes = (
"645 -18 LINE",
"449 224 LINE",
"442 218 LINE",
"638 -24 LINE"
);
},
{
closed = 1;
nodes = (
"178 5 OFFCURVE",
"106 110 OFFCURVE",
"106 251 CURVE SMOOTH",
"106 481 OFFCURVE",
"252 692 OFFCURVE",
"475 692 CURVE SMOOTH",
"640 692 OFFCURVE",
"712 586 OFFCURVE",
"712 444 CURVE SMOOTH",
"712 214 OFFCURVE",
"564 5 OFFCURVE",
"340 5 CURVE SMOOTH"
);
}
);
width = 786;
},
{
anchors = (
{
name = bottom;
position = "{333, 0}";
},
{
name = top;
position = "{469, 697}";
}
);
background = {
paths = (
{
closed = 1;
nodes = (
"696 17 LINE",
"615 108 LINE",
"692 190 OFFCURVE",
"737 315 OFFCURVE",
"737 431 CURVE SMOOTH",
"737 584 OFFCURVE",
"653 707 OFFCURVE",
"458 707 CURVE SMOOTH",
"217 707 OFFCURVE",
"50 510 OFFCURVE",
"50 265 CURVE SMOOTH",
"50 112 OFFCURVE",
"134 -10 OFFCURVE",
"330 -10 CURVE SMOOTH",
"401 -10 OFFCURVE",
"465 5 OFFCURVE",
"523 38 CURVE",
"604 -59 LINE"
);
},
{
closed = 1;
nodes = (
"221 108 OFFCURVE",
"174 177 OFFCURVE",
"174 271 CURVE SMOOTH",
"174 440 OFFCURVE",
"279 589 OFFCURVE",
"446 589 CURVE SMOOTH",
"566 589 OFFCURVE",
"614 519 OFFCURVE",
"614 423 CURVE SMOOTH",
"614 353 OFFCURVE",
"587 268 OFFCURVE",
"542 207 CURVE",
"464 289 LINE",
"371 215 LINE",
"448 130 LINE",
"419 118 OFFCURVE",
"383 108 OFFCURVE",
"342 108 CURVE SMOOTH"
);
}
);
};
layerId = "5EAB4D72-96CB-4765-AAD5-A13175319428";
paths = (
{
closed = 1;
nodes = (
"559 -10 OFFCURVE",
"730 191 OFFCURVE",
"730 428 CURVE SMOOTH",
"730 583 OFFCURVE",
"642 707 OFFCURVE",
"454 707 CURVE SMOOTH",
"220 707 OFFCURVE",
"50 505 OFFCURVE",
"50 268 CURVE SMOOTH",
"50 114 OFFCURVE",
"137 -10 OFFCURVE",
"326 -10 CURVE SMOOTH"
);
},
{
closed = 1;
nodes = (
"687 21 LINE",
"464 289 LINE",
"371 215 LINE",
"594 -54 LINE"
);
},
{
closed = 1;
nodes = (
"225 109 OFFCURVE",
"174 180 OFFCURVE",
"174 276 CURVE SMOOTH",
"174 437 OFFCURVE",
"281 588 OFFCURVE",
"442 588 CURVE SMOOTH",
"555 588 OFFCURVE",
"606 517 OFFCURVE",
"606 419 CURVE SMOOTH",
"606 260 OFFCURVE",
"497 109 OFFCURVE",
"338 109 CURVE SMOOTH"
);
}
);
width = 762;
},
{
anchors = (
{
name = bottom;
position = "{345, 0}";
},
{
name = top;
position = "{481, 697}";
}
);
associatedMasterId = "F91D9E91-C1BC-4259-B0D8-112C0CBA2B8E";
layerId = "53751825-CB7B-4971-87F0-7DBD00A65D7B";
paths = (
{
closed = 1;
nodes = (
"646 -19 LINE",
"566 79 LINE",
"642 145 OFFCURVE",
"691 242 OFFCURVE",
"712 348 CURVE SMOOTH",
"749 538 OFFCURVE",
"682 702 OFFCURVE",
"476 702 CURVE SMOOTH",
"272 702 OFFCURVE",
"143 538 OFFCURVE",
"106 349 CURVE SMOOTH",
"69 159 OFFCURVE",
"135 -5 OFFCURVE",
"340 -5 CURVE SMOOTH",
"427 -5 OFFCURVE",
"501 25 OFFCURVE",
"559 73 CURVE",
"639 -25 LINE"
);
},
{
closed = 1;
nodes = (
"145 5 OFFCURVE",
"79 157 OFFCURVE",
"116 348 CURVE SMOOTH",
"154 541 OFFCURVE",
"280 692 OFFCURVE",
"475 692 CURVE SMOOTH",
"675 692 OFFCURVE",
"738 536 OFFCURVE",
"702 350 CURVE SMOOTH",
"681 243 OFFCURVE",
"634 149 OFFCURVE",
"561 86 CURVE",
"450 223 LINE",
"442 217 LINE",
"554 80 LINE",
"497 33 OFFCURVE",
"425 5 OFFCURVE",
"340 5 CURVE SMOOTH"
);
}
);
width = 786;
},
{
anchors = (
{
name = bottom;
position = "{340, 0}";
},
{
name = top;
position = "{476, 697}";
}
);
background = {
paths = (
{
closed = 1;
nodes = (
"672 0 LINE",
"591 94 LINE",
"670 172 OFFCURVE",
"714 281 OFFCURVE",
"725 397 CURVE SMOOTH",
"741 562 OFFCURVE",
"664 705 OFFCURVE",
"465 705 CURVE SMOOTH",
"243 705 OFFCURVE",
"94 526 OFFCURVE",
"74 303 CURVE SMOOTH",
"59 132 OFFCURVE",
"135 -8 OFFCURVE",
"334 -8 CURVE SMOOTH",
"415 -8 OFFCURVE",
"483 16 OFFCURVE",
"539 54 CURVE",
"619 -43 LINE"
);
},
{
closed = 1;
nodes = (
"181 60 OFFCURVE",
"130 172 OFFCURVE",
"145 307 CURVE SMOOTH",
"164 484 OFFCURVE",
"276 637 OFFCURVE",
"458 637 CURVE SMOOTH",
"612 637 OFFCURVE",
"671 532 OFFCURVE",
"654 388 CURVE SMOOTH",
"644 302 OFFCURVE",
"608 212 OFFCURVE",
"550 151 CURVE",
"456 258 LINE",
"403 216 LINE",
"496 107 LINE",
"454 78 OFFCURVE",
"400 60 OFFCURVE",
"340 60 CURVE SMOOTH"
);
}
);
};
layerId = "D76894BF-AD8F-4700-A820-B81A81AE60D1";
paths = (
{
closed = 1;
nodes = (
"561 -8 OFFCURVE",
"726 199 OFFCURVE",
"726 435 CURVE SMOOTH",
"726 586 OFFCURVE",
"643 705 OFFCURVE",
"464 705 CURVE SMOOTH",
"235 705 OFFCURVE",
"71 497 OFFCURVE",
"71 261 CURVE SMOOTH",
"71 111 OFFCURVE",
"153 -8 OFFCURVE",
"332 -8 CURVE SMOOTH"
);
},
{
closed = 1;
nodes = (
"666 -3 LINE",
"451 255 LINE",
"403 217 LINE",
"618 -42 LINE"
);
},
{
closed = 1;
nodes = (
"203 60 OFFCURVE",
"142 147 OFFCURVE",
"142 264 CURVE SMOOTH",
"142 457 OFFCURVE",
"267 637 OFFCURVE",
"457 637 CURVE SMOOTH",
"594 637 OFFCURVE",
"655 549 OFFCURVE",
"655 431 CURVE SMOOTH",
"655 239 OFFCURVE",
"528 60 OFFCURVE",
"338 60 CURVE SMOOTH"
);
}
);
width = 771;
}
);
leftKerningGroup = C;
note = Q;
rightKerningGroup = Q;
unicode = 0051;
},
{
color = 1;
glyphname = R;
lastChange = "2019-05-10 16:44:51 +0000";
layers = (
{
anchors = (
{
name = bottom;
position = "{261, 0}";
},
{
name = top;
position = "{397, 697}";
}
);
layerId = "F91D9E91-C1BC-4259-B0D8-112C0CBA2B8E";
paths = (
{
closed = 1;
nodes = (
"91 0 LINE",
"155 331 LINE",
"311 331 LINE SMOOTH",
"331 331 OFFCURVE",
"350 332 OFFCURVE",
"368 334 CURVE",
"494 354 OFFCURVE",
"572 434 OFFCURVE",
"572 554 CURVE SMOOTH",
"572 646 OFFCURVE",
"502 697 OFFCURVE",
"381 697 CURVE SMOOTH",
"217 697 LINE",
"81 0 LINE"
);
},
{
closed = 1;
nodes = (
"502 0 LINE",
"375 338 LINE",
"364 336 LINE",
"491 0 LINE"
);
},
{
closed = 1;
nodes = (
"225 687 LINE",
"380 687 LINE SMOOTH",
"496 687 OFFCURVE",
"562 640 OFFCURVE",
"562 553 CURVE SMOOTH",
"562 419 OFFCURVE",
"461 341 OFFCURVE",
"312 341 CURVE SMOOTH",
"157 341 LINE"
);
}
);
width = 617;
},
{
anchors = (
{
name = bottom;
position = "{263, 0}";
},
{
name = top;
position = "{399, 697}";
}
);
background = {
paths = (
{
closed = 1;
nodes = (
"405 300 LINE",
"501 326 OFFCURVE",
"553 398 OFFCURVE",
"553 493 CURVE SMOOTH",
"553 614 OFFCURVE",
"489 697 OFFCURVE",
"316 697 CURVE SMOOTH",
"88 697 LINE",
"88 0 LINE",
"212 0 LINE",
"212 289 LINE",
"273 289 LINE SMOOTH",
"289 289 OFFCURVE",
"302 289 OFFCURVE",
"320 289 CURVE"
);
},
{
closed = 1;
nodes = (
"212 580 LINE",
"315 580 LINE SMOOTH",
"401 580 OFFCURVE",
"428 549 OFFCURVE",
"428 493 CURVE SMOOTH",
"428 437 OFFCURVE",
"401 406 OFFCURVE",
"315 406 CURVE SMOOTH",
"212 406 LINE"
);
}
);
};
layerId = "5EAB4D72-96CB-4765-AAD5-A13175319428";
paths = (
{
closed = 1;
nodes = (
"164 0 LINE",
"220 289 LINE",
"269 289 LINE SMOOTH",
"298 289 OFFCURVE",
"327 289 OFFCURVE",
"358 289 CURVE",
"514 301 OFFCURVE",
"606 381 OFFCURVE",
"606 531 CURVE SMOOTH",
"606 631 OFFCURVE",
"543 697 OFFCURVE",
"401 697 CURVE SMOOTH",
"176 697 LINE",
"40 0 LINE"
);
},
{
closed = 1;
nodes = (
"563 0 LINE",
"428 318 LINE",
"314 303 LINE",
"430 0 LINE"
);
},
{
closed = 1;
nodes = (
"277 582 LINE",
"371 582 LINE SMOOTH",
"442 582 OFFCURVE",
"480 563 OFFCURVE",
"480 515 CURVE SMOOTH",
"480 429 OFFCURVE",
"420 404 OFFCURVE",
"331 404 CURVE SMOOTH",
"243 404 LINE"
);
}
);
width = 623;
},
{
anchors = (
{
name = bottom;
position = "{261, 0}";
},
{
name = top;
position = "{397, 697}";
}
);
associatedMasterId = "F91D9E91-C1BC-4259-B0D8-112C0CBA2B8E";
layerId = "53751825-CB7B-4971-87F0-7DBD00A65D7B";
paths = (
{
closed = 1;
nodes = (
"91 0 LINE",
"155 331 LINE",
"311 331 LINE SMOOTH",
"331 331 OFFCURVE",
"350 332 OFFCURVE",
"368 334 CURVE",
"481 352 OFFCURVE",
"548 412 OFFCURVE",
"568 512 CURVE SMOOTH",
"591 631 OFFCURVE",
"519 697 OFFCURVE",
"381 697 CURVE SMOOTH",
"217 697 LINE",
"81 0 LINE"
);
},
{
closed = 1;
nodes = (
"502 0 LINE",
"375 338 LINE",
"364 336 LINE",
"491 0 LINE"
);
},
{
closed = 1;
nodes = (
"225 687 LINE",
"380 687 LINE SMOOTH",
"513 687 OFFCURVE",
"580 625 OFFCURVE",
"558 514 CURVE SMOOTH",
"536 400 OFFCURVE",
"448 341 OFFCURVE",
"312 341 CURVE SMOOTH",
"157 341 LINE"
);
}
);
width = 617;
},
{
anchors = (
{
name = bottom;
position = "{261, 0}";
},
{
name = top;
position = "{397, 697}";
}
);
layerId = "D76894BF-AD8F-4700-A820-B81A81AE60D1";
paths = (
{
closed = 1;
nodes = (
"129 0 LINE",
"189 309 LINE",
"287 309 LINE SMOOTH",
"312 309 OFFCURVE",
"337 309 OFFCURVE",
"362 310 CURVE",
"504 326 OFFCURVE",
"589 406 OFFCURVE",
"589 542 CURVE SMOOTH",
"589 638 OFFCURVE",
"522 697 OFFCURVE",
"391 697 CURVE SMOOTH",
"194 697 LINE",
"58 0 LINE"
);
},
{
closed = 1;
nodes = (
"533 0 LINE",
"402 327 LINE",
"336 318 LINE",
"457 0 LINE"
);
},
{
closed = 1;
nodes = (
"252 631 LINE",
"374 631 LINE SMOOTH",
"466 631 OFFCURVE",
"517 599 OFFCURVE",
"517 533 CURVE SMOOTH",
"517 427 OFFCURVE",
"441 375 OFFCURVE",
"321 375 CURVE SMOOTH",
"202 375 LINE"
);
}
);
width = 618;
}
);
leftKerningGroup = B;
note = R;
rightKerningGroup = R;
unicode = 0052;
},
{
color = 1;
glyphname = S;
lastChange = "2019-05-10 16:28:27 +0000";
layers = (
{
anchors = (
{
name = bottom;
position = "{257, 0}";
},
{
name = top;
position = "{373, 697}";
}
);
layerId = "F91D9E91-C1BC-4259-B0D8-112C0CBA2B8E";
paths = (
{
closed = 1;
nodes = (
"380 -5 OFFCURVE",
"486 84 OFFCURVE",
"486 200 CURVE SMOOTH",
"486 301 OFFCURVE",
"406 335 OFFCURVE",
"320 373 CURVE SMOOTH",
"236 411 OFFCURVE",
"170 441 OFFCURVE",
"170 523 CURVE SMOOTH",
"170 613 OFFCURVE",
"248 692 OFFCURVE",
"366 692 CURVE SMOOTH",
"444 692 OFFCURVE",
"501 658 OFFCURVE",
"526 594 CURVE",
"535 600 LINE",
"508 669 OFFCURVE",
"444 702 OFFCURVE",
"367 702 CURVE SMOOTH",
"246 702 OFFCURVE",
"160 621 OFFCURVE",
"160 524 CURVE SMOOTH",
"160 439 OFFCURVE",
"225 405 OFFCURVE",
"311 367 CURVE SMOOTH",
"394 330 OFFCURVE",
"475 298 OFFCURVE",
"475 198 CURVE SMOOTH",
"475 89 OFFCURVE",
"377 5 OFFCURVE",
"251 5 CURVE SMOOTH",
"140 5 OFFCURVE",
"63 69 OFFCURVE",
"66 175 CURVE",
"56 173 LINE",
"53 63 OFFCURVE",
"134 -5 OFFCURVE",
"249 -5 CURVE SMOOTH"
);
}
);
width = 571;
},
{
anchors = (
{
name = bottom;
position = "{261, 0}";
},
{
name = top;
position = "{367, 697}";
}
);
layerId = "5EAB4D72-96CB-4765-AAD5-A13175319428";
paths = (
{
closed = 1;
nodes = (
"407 -8 OFFCURVE",
"524 88 OFFCURVE",
"524 221 CURVE SMOOTH",
"524 329 OFFCURVE",
"448 368 OFFCURVE",
"359 409 CURVE SMOOTH",
"302 435 OFFCURVE",
"244 460 OFFCURVE",
"244 514 CURVE SMOOTH",
"244 561 OFFCURVE",
"288 596 OFFCURVE",
"343 596 CURVE SMOOTH",
"388 596 OFFCURVE",
"434 573 OFFCURVE",
"448 525 CURVE",
"561 581 LINE",
"530 666 OFFCURVE",
"449 707 OFFCURVE",
"356 707 CURVE SMOOTH",
"222 707 OFFCURVE",
"118 623 OFFCURVE",
"118 499 CURVE SMOOTH",
"118 387 OFFCURVE",
"204 350 OFFCURVE",
"283 314 CURVE SMOOTH",
"343 287 OFFCURVE",
"398 260 OFFCURVE",
"398 202 CURVE SMOOTH",
"398 144 OFFCURVE",
"344 103 OFFCURVE",
"265 103 CURVE SMOOTH",
"195 103 OFFCURVE",
"133 136 OFFCURVE",
"140 223 CURVE",
"13 202 LINE",
"9 63 OFFCURVE",
"128 -8 OFFCURVE",
"257 -8 CURVE SMOOTH"
);
}
);
width = 559;
},
{
anchors = (
{
name = bottom;
position = "{237, 0}";
},
{
name = top;
position = "{373, 697}";
}
);
associatedMasterId = "F91D9E91-C1BC-4259-B0D8-112C0CBA2B8E";
layerId = "53751825-CB7B-4971-87F0-7DBD00A65D7B";
paths = (
{
closed = 1;
nodes = (
"380 -5 OFFCURVE",
"486 84 OFFCURVE",
"486 200 CURVE SMOOTH",
"486 301 OFFCURVE",
"406 335 OFFCURVE",
"320 373 CURVE SMOOTH",
"236 411 OFFCURVE",
"170 441 OFFCURVE",
"170 523 CURVE SMOOTH",
"170 613 OFFCURVE",
"248 692 OFFCURVE",
"366 692 CURVE SMOOTH",
"444 692 OFFCURVE",
"501 658 OFFCURVE",
"526 594 CURVE",
"535 600 LINE",
"508 669 OFFCURVE",
"444 702 OFFCURVE",
"367 702 CURVE SMOOTH",
"246 702 OFFCURVE",
"160 621 OFFCURVE",
"160 524 CURVE SMOOTH",
"160 439 OFFCURVE",
"225 405 OFFCURVE",
"311 367 CURVE SMOOTH",
"394 330 OFFCURVE",
"475 298 OFFCURVE",
"475 198 CURVE SMOOTH",
"475 89 OFFCURVE",
"377 5 OFFCURVE",
"251 5 CURVE SMOOTH",
"140 5 OFFCURVE",
"63 69 OFFCURVE",
"66 175 CURVE",
"56 173 LINE",
"53 63 OFFCURVE",
"134 -5 OFFCURVE",
"249 -5 CURVE SMOOTH"
);
}
);
width = 571;
},
{
anchors = (
{
name = bottom;
position = "{263, 0}";
},
{
name = top;
position = "{369, 697}";
}
);
layerId = "D76894BF-AD8F-4700-A820-B81A81AE60D1";
paths = (
{
closed = 1;
nodes = (
"393 -7 OFFCURVE",
"505 86 OFFCURVE",
"505 211 CURVE SMOOTH",
"505 316 OFFCURVE",
"428 352 OFFCURVE",
"340 392 CURVE SMOOTH",
"270 424 OFFCURVE",
"208 451 OFFCURVE",
"208 518 CURVE SMOOTH",
"208 585 OFFCURVE",
"268 641 OFFCURVE",
"353 641 CURVE SMOOTH",
"412 641 OFFCURVE",
"464 613 OFFCURVE",
"483 557 CURVE",
"548 590 LINE",
"517 671 OFFCURVE",
"441 705 OFFCURVE",
"360 705 CURVE SMOOTH",
"233 705 OFFCURVE",
"137 622 OFFCURVE",
"137 511 CURVE SMOOTH",
"137 413 OFFCURVE",
"211 376 OFFCURVE",
"294 339 CURVE SMOOTH",
"361 309 OFFCURVE",
"433 280 OFFCURVE",
"433 200 CURVE SMOOTH",
"433 118 OFFCURVE",
"357 57 OFFCURVE",
"257 57 CURVE SMOOTH",
"169 57 OFFCURVE",
"99 105 OFFCURVE",
"104 201 CURVE",
"32 188 LINE",
"29 64 OFFCURVE",
"128 -7 OFFCURVE",
"252 -7 CURVE SMOOTH"
);
}
);
width = 562;
}
);
leftKerningGroup = S;
note = S;
rightKerningGroup = S;
unicode = 0053;
},
{
color = 1;
glyphname = Germandbls;
lastChange = "2019-05-10 16:44:51 +0000";
layers = (
{
anchors = (
{
name = bottom;
position = "{292, 0}";
},
{
name = top;
position = "{428, 697}";
}
);
layerId = "F91D9E91-C1BC-4259-B0D8-112C0CBA2B8E";
paths = (
{
closed = 1;
nodes = (
"514 -5 OFFCURVE",
"596 57 OFFCURVE",
"596 154 CURVE SMOOTH",
"596 305 OFFCURVE",
"315 228 OFFCURVE",
"315 357 CURVE SMOOTH",
"315 402 OFFCURVE",
"339 430 OFFCURVE",
"366 454 CURVE SMOOTH",
"628 687 LINE",
"630 697 LINE",
"391 697 LINE SMOOTH",
"219 697 OFFCURVE",
"179 561 OFFCURVE",
"159 459 CURVE SMOOTH",
"70 -1 LINE",
"80 -1 LINE",
"169 459 LINE SMOOTH",
"197 603 OFFCURVE",
"255 687 OFFCURVE",
"390 687 CURVE SMOOTH",
"614 687 LINE",
"360 462 LINE SMOOTH",
"327 433 OFFCURVE",
"305 396 OFFCURVE",
"305 356 CURVE SMOOTH",
"305 216 OFFCURVE",
"586 294 OFFCURVE",
"586 153 CURVE SMOOTH",
"586 65 OFFCURVE",
"511 5 OFFCURVE",
"409 5 CURVE SMOOTH",
"324 5 OFFCURVE",
"261 51 OFFCURVE",
"250 120 CURVE",
"240 116 LINE",
"251 42 OFFCURVE",
"318 -5 OFFCURVE",
"409 -5 CURVE SMOOTH"
);
}
);
width = 681;
},
{
anchors = (
{
name = bottom;
position = "{308, 0}";
},
{
name = top;
position = "{444, 697}";
}
);
layerId = "5EAB4D72-96CB-4765-AAD5-A13175319428";
paths = (
{
closed = 1;
nodes = (
"534 -10 OFFCURVE",
"643 42 OFFCURVE",
"643 155 CURVE SMOOTH",
"643 311 OFFCURVE",
"433 287 OFFCURVE",
"433 350 CURVE SMOOTH",
"433 370 OFFCURVE",
"454 387 OFFCURVE",
"466 399 CURVE SMOOTH",
"698 628 LINE",
"711 697 LINE",
"424 697 LINE SMOOTH",
"185 697 OFFCURVE",
"132 548 OFFCURVE",
"109 431 CURVE SMOOTH",
"25 -1 LINE",
"150 -1 LINE",
"232 421 LINE SMOOTH",
"252 526 OFFCURVE",
"305 576 OFFCURVE",
"406 576 CURVE SMOOTH",
"494 576 LINE",
"393 479 LINE SMOOTH",
"346 434 OFFCURVE",
"306 389 OFFCURVE",
"306 330 CURVE SMOOTH",
"306 194 OFFCURVE",
"506 234 OFFCURVE",
"506 155 CURVE SMOOTH",
"506 126 OFFCURVE",
"479 106 OFFCURVE",
"435 106 CURVE SMOOTH",
"379 106 OFFCURVE",
"348 139 OFFCURVE",
"336 180 CURVE",
"222 132 LINE",
"233 55 OFFCURVE",
"310 -10 OFFCURVE",
"429 -10 CURVE SMOOTH"
);
}
);
width = 688;
},
{
anchors = (
{
name = bottom;
position = "{292, 0}";
},
{
name = top;
position = "{428, 697}";
}
);
associatedMasterId = "F91D9E91-C1BC-4259-B0D8-112C0CBA2B8E";
layerId = "53751825-CB7B-4971-87F0-7DBD00A65D7B";
paths = (
{
closed = 1;
nodes = (
"514 -5 OFFCURVE",
"596 57 OFFCURVE",
"596 154 CURVE SMOOTH",
"596 305 OFFCURVE",
"315 228 OFFCURVE",
"315 357 CURVE SMOOTH",
"315 402 OFFCURVE",
"339 430 OFFCURVE",
"366 454 CURVE SMOOTH",
"628 687 LINE",
"630 697 LINE",
"391 697 LINE SMOOTH",
"227 697 OFFCURVE",
"181 573 OFFCURVE",
"159 459 CURVE SMOOTH",
"70 -1 LINE",
"80 -1 LINE",
"169 459 LINE SMOOTH",
"192 575 OFFCURVE",
"236 687 OFFCURVE",
"390 687 CURVE SMOOTH",
"614 687 LINE",
"360 462 LINE SMOOTH",
"327 433 OFFCURVE",
"305 398 OFFCURVE",
"305 356 CURVE SMOOTH",
"305 216 OFFCURVE",
"586 294 OFFCURVE",
"586 153 CURVE SMOOTH",
"586 65 OFFCURVE",
"511 5 OFFCURVE",
"409 5 CURVE SMOOTH",
"324 5 OFFCURVE",
"261 51 OFFCURVE",
"250 120 CURVE",
"240 116 LINE",
"251 42 OFFCURVE",
"318 -5 OFFCURVE",
"409 -5 CURVE SMOOTH"
);
}
);
width = 681;
},
{
anchors = (
{
name = bottom;
position = "{300, 0}";
},
{
name = top;
position = "{436, 697}";
}
);
layerId = "D76894BF-AD8F-4700-A820-B81A81AE60D1";
paths = (
{
closed = 1;
nodes = (
"523 -8 OFFCURVE",
"620 49 OFFCURVE",
"620 155 CURVE SMOOTH",
"620 308 OFFCURVE",
"377 259 OFFCURVE",
"377 353 CURVE SMOOTH",
"377 385 OFFCURVE",
"399 407 OFFCURVE",
"418 425 CURVE SMOOTH",
"664 656 LINE",
"672 697 LINE",
"408 697 LINE SMOOTH",
"203 697 OFFCURVE",
"153 559 OFFCURVE",
"131 444 CURVE SMOOTH",
"45 -1 LINE",
"116 -1 LINE",
"202 439 LINE SMOOTH",
"226 560 OFFCURVE",
"280 628 OFFCURVE",
"398 628 CURVE SMOOTH",
"549 628 LINE",
"377 471 LINE SMOOTH",
"338 435 OFFCURVE",
"305 395 OFFCURVE",
"305 342 CURVE SMOOTH",
"305 204 OFFCURVE",
"542 262 OFFCURVE",
"542 154 CURVE SMOOTH",
"542 98 OFFCURVE",
"493 59 OFFCURVE",
"422 59 CURVE SMOOTH",
"353 59 OFFCURVE",
"306 98 OFFCURVE",
"295 152 CURVE",
"229 125 LINE",
"240 49 OFFCURVE",
"314 -8 OFFCURVE",
"419 -8 CURVE SMOOTH"
);
}
);
width = 681;
}
);
unicode = 1E9E;
},
{
color = 1;
glyphname = T;
lastChange = "2019-05-10 15:30:22 +0000";
layers = (
{
anchors = (
{
name = bottom;
position = "{275, 0}";
},
{
name = center;
position = "{343, 349}";
},
{
name = top;
position = "{411, 697}";
}
);
layerId = "F91D9E91-C1BC-4259-B0D8-112C0CBA2B8E";
paths = (
{
closed = 1;
nodes = (
"280 0 LINE",
"414 687 LINE",
"682 687 LINE",
"684 697 LINE",
"138 697 LINE",
"136 687 LINE",
"404 687 LINE",
"270 0 LINE"
);
}
);
width = 646;
},
{
anchors = (
{
name = bottom;
position = "{241, 0}";
},
{
name = center;
position = "{309, 349}";
},
{
name = top;
position = "{377, 697}";
}
);
layerId = "5EAB4D72-96CB-4765-AAD5-A13175319428";
paths = (
{
closed = 1;
nodes = (
"304 0 LINE",
"417 582 LINE",
"635 582 LINE",
"658 697 LINE",
"96 697 LINE",
"73 582 LINE",
"291 582 LINE",
"178 0 LINE"
);
}
);
width = 578;
},
{
anchors = (
{
name = bottom;
position = "{275, 0}";
},
{
name = center;
position = "{343, 349}";
},
{
name = top;
position = "{411, 697}";
}
);
associatedMasterId = "F91D9E91-C1BC-4259-B0D8-112C0CBA2B8E";
layerId = "53751825-CB7B-4971-87F0-7DBD00A65D7B";
paths = (
{
closed = 1;
nodes = (
"280 0 LINE",
"414 687 LINE",
"682 687 LINE",
"684 697 LINE",
"138 697 LINE",
"136 687 LINE",
"404 687 LINE",
"270 0 LINE"
);
}
);
width = 646;
},
{
anchors = (
{
name = bottom;
position = "{255, 0}";
},
{
name = center;
position = "{323, 349}";
},
{
name = top;
position = "{391, 697}";
}
);
layerId = "D76894BF-AD8F-4700-A820-B81A81AE60D1";
paths = (
{
closed = 1;
nodes = (
"291 0 LINE",
"414 631 LINE",
"656 631 LINE",
"669 697 LINE",
"114 697 LINE",
"101 631 LINE",
"342 631 LINE",
"220 0 LINE"
);
}
);
width = 607;
}
);
leftKerningGroup = T;
note = T;
rightKerningGroup = T;
unicode = 0054;
},
{
color = 1;
glyphname = U;
lastChange = "2019-05-10 16:44:51 +0000";
layers = (
{
anchors = (
{
name = bottom;
position = "{299, 0}";
},
{
name = ogonek;
position = "{352, 0}";
},
{
name = top;
position = "{435, 697}";
},
{
name = topright;
position = "{683, 493}";
}
);
layerId = "F91D9E91-C1BC-4259-B0D8-112C0CBA2B8E";
paths = (
{
closed = 1;
nodes = (
"447 -5 OFFCURVE",
"549 89 OFFCURVE",
"582 257 CURVE SMOOTH",
"668 697 LINE",
"658 697 LINE",
"572 257 LINE SMOOTH",
"540 95 OFFCURVE",
"444 5 OFFCURVE",
"298 5 CURVE SMOOTH",
"181 5 OFFCURVE",
"118 66 OFFCURVE",
"118 178 CURVE SMOOTH",
"118 196 OFFCURVE",
"121 227 OFFCURVE",
"126 252 CURVE SMOOTH",
"213 697 LINE",
"203 697 LINE",
"116 252 LINE SMOOTH",
"111 227 OFFCURVE",
"108 197 OFFCURVE",
"108 176 CURVE SMOOTH",
"108 59 OFFCURVE",
"174 -5 OFFCURVE",
"298 -5 CURVE SMOOTH"
);
}
);
width = 695;
},
{
anchors = (
{
name = bottom;
position = "{292, 0}";
},
{
name = ogonek;
position = "{378, 0}";
},
{
name = top;
position = "{428, 697}";
},
{
name = topright;
position = "{723, 493}";
}
);
layerId = "5EAB4D72-96CB-4765-AAD5-A13175319428";
paths = (
{
closed = 1;
nodes = (
"466 -10 OFFCURVE",
"573 76 OFFCURVE",
"607 252 CURVE SMOOTH",
"694 697 LINE",
"569 697 LINE",
"486 271 LINE SMOOTH",
"466 169 OFFCURVE",
"423 111 OFFCURVE",
"307 111 CURVE SMOOTH",
"223 111 OFFCURVE",
"194 139 OFFCURVE",
"194 199 CURVE SMOOTH",
"194 212 OFFCURVE",
"196 236 OFFCURVE",
"201 261 CURVE SMOOTH",
"286 697 LINE",
"161 697 LINE",
"75 257 LINE SMOOTH",
"70 231 OFFCURVE",
"67 206 OFFCURVE",
"67 183 CURVE SMOOTH",
"67 59 OFFCURVE",
"144 -10 OFFCURVE",
"295 -10 CURVE SMOOTH"
);
}
);
width = 680;
},
{
anchors = (
{
name = bottom;
position = "{299, 0}";
},
{
name = ogonek;
position = "{352, 0}";
},
{
name = top;
position = "{435, 697}";
},
{
name = topright;
position = "{683, 493}";
}
);
associatedMasterId = "F91D9E91-C1BC-4259-B0D8-112C0CBA2B8E";
layerId = "53751825-CB7B-4971-87F0-7DBD00A65D7B";
paths = (
{
closed = 1;
nodes = (
"447 -5 OFFCURVE",
"549 89 OFFCURVE",
"582 257 CURVE SMOOTH",
"668 697 LINE",
"658 697 LINE",
"572 257 LINE SMOOTH",
"540 95 OFFCURVE",
"444 5 OFFCURVE",
"298 5 CURVE SMOOTH",
"181 5 OFFCURVE",
"118 66 OFFCURVE",
"118 178 CURVE SMOOTH",
"118 200 OFFCURVE",
"121 227 OFFCURVE",
"126 252 CURVE SMOOTH",
"213 697 LINE",
"203 697 LINE",
"116 252 LINE SMOOTH",
"111 227 OFFCURVE",
"108 200 OFFCURVE",
"108 176 CURVE SMOOTH",
"108 59 OFFCURVE",
"174 -5 OFFCURVE",
"298 -5 CURVE SMOOTH"
);
}
);
width = 695;
},
{
anchors = (
{
name = bottom;
position = "{294, 0}";
},
{
name = ogonek;
position = "{365, 0}";
},
{
name = top;
position = "{430, 697}";
},
{
name = topright;
position = "{703, 493}";
}
);
layerId = "D76894BF-AD8F-4700-A820-B81A81AE60D1";
paths = (
{
closed = 1;
nodes = (
"456 -8 OFFCURVE",
"560 82 OFFCURVE",
"594 254 CURVE SMOOTH",
"681 697 LINE",
"609 697 LINE",
"525 264 LINE SMOOTH",
"500 134 OFFCURVE",
"431 62 OFFCURVE",
"302 62 CURVE SMOOTH",
"203 62 OFFCURVE",
"157 105 OFFCURVE",
"157 189 CURVE SMOOTH",
"157 206 OFFCURVE",
"160 232 OFFCURVE",
"165 257 CURVE SMOOTH",
"251 697 LINE",
"179 697 LINE",
"93 255 LINE SMOOTH",
"88 229 OFFCURVE",
"85 203 OFFCURVE",
"85 180 CURVE SMOOTH",
"85 59 OFFCURVE",
"157 -8 OFFCURVE",
"295 -8 CURVE SMOOTH"
);
}
);
width = 684;
}
);
leftKerningGroup = U;
note = U;
rightKerningGroup = J;
unicode = 0055;
},
{
color = 1;
glyphname = V;
lastChange = "2019-05-10 16:44:51 +0000";
layers = (
{
anchors = (
{
name = bottom;
position = "{291, 0}";
},
{
name = top;
position = "{427, 697}";
}
);
layerId = "F91D9E91-C1BC-4259-B0D8-112C0CBA2B8E";
paths = (
{
closed = 1;
nodes = (
"299 0 LINE",
"708 697 LINE",
"696 697 LINE",
"295 10 LINE",
"291 10 LINE",
"156 697 LINE",
"146 697 LINE",
"283 0 LINE"
);
}
);
width = 678;
},
{
anchors = (
{
name = bottom;
position = "{282, 0}";
},
{
name = top;
position = "{418, 697}";
}
);
layerId = "5EAB4D72-96CB-4765-AAD5-A13175319428";
paths = (
{
closed = 1;
nodes = (
"330 0 LINE",
"743 697 LINE",
"597 697 LINE",
"285 153 LINE",
"324 153 LINE",
"222 697 LINE",
"92 697 LINE",
"236 0 LINE"
);
}
);
width = 659;
},
{
anchors = (
{
name = bottom;
position = "{291, 0}";
},
{
name = top;
position = "{427, 697}";
}
);
associatedMasterId = "F91D9E91-C1BC-4259-B0D8-112C0CBA2B8E";
layerId = "53751825-CB7B-4971-87F0-7DBD00A65D7B";
paths = (
{
closed = 1;
nodes = (
"299 0 LINE",
"708 697 LINE",
"696 697 LINE",
"295 10 LINE",
"291 10 LINE",
"156 697 LINE",
"146 697 LINE",
"283 0 LINE"
);
}
);
width = 678;
},
{
anchors = (
{
name = bottom;
position = "{285, 0}";
},
{
name = top;
position = "{421, 697}";
}
);
layerId = "D76894BF-AD8F-4700-A820-B81A81AE60D1";
paths = (
{
closed = 1;
nodes = (
"314 0 LINE",
"725 697 LINE",
"642 697 LINE",
"288 86 LINE",
"307 86 LINE",
"190 697 LINE",
"116 697 LINE",
"257 0 LINE"
);
}
);
width = 665;
}
);
leftKerningGroup = V;
note = V;
rightKerningGroup = V;
unicode = 0056;
},
{
color = 1;
glyphname = W;
lastChange = "2019-05-10 16:13:45 +0000";
layers = (
{
anchors = (
{
name = bottom;
position = "{432, 0}";
},
{
name = top;
position = "{568, 697}";
}
);
layerId = "F91D9E91-C1BC-4259-B0D8-112C0CBA2B8E";
paths = (
{
closed = 1;
nodes = (
"224 0 LINE",
"560 651 LINE",
"557 651 LINE",
"639 0 LINE",
"655 0 LINE",
"984 697 LINE",
"972 697 LINE",
"647 5 LINE",
"650 5 LINE",
"567 663 LINE",
"554 663 LINE",
"216 5 LINE",
"218 5 LINE",
"161 697 LINE",
"151 697 LINE",
"208 0 LINE"
);
}
);
width = 959;
},
{
anchors = (
{
name = bottom;
position = "{445, 0}";
},
{
name = top;
position = "{581, 697}";
}
);
background = {
paths = (
{
closed = 1;
nodes = (
"650 0 LINE",
"1063 697 LINE",
"917 697 LINE",
"605 153 LINE",
"644 153 LINE",
"542 697 LINE",
"412 697 LINE",
"556 0 LINE"
);
}
);
};
layerId = "5EAB4D72-96CB-4765-AAD5-A13175319428";
paths = (
{
closed = 1;
nodes = (
"294 0 LINE",
"561 507 LINE",
"529 513 LINE",
"597 0 LINE",
"719 0 LINE",
"1063 697 LINE",
"926 697 LINE",
"657 142 LINE",
"688 137 LINE",
"620 657 LINE",
"513 657 LINE",
"246 143 LINE",
"276 137 LINE",
"223 697 LINE",
"99 697 LINE",
"173 0 LINE"
);
}
);
width = 986;
},
{
anchors = (
{
name = bottom;
position = "{432, 0}";
},
{
name = top;
position = "{568, 697}";
}
);
associatedMasterId = "F91D9E91-C1BC-4259-B0D8-112C0CBA2B8E";
layerId = "53751825-CB7B-4971-87F0-7DBD00A65D7B";
paths = (
{
closed = 1;
nodes = (
"224 0 LINE",
"558 647 LINE",
"639 0 LINE",
"655 0 LINE",
"984 697 LINE",
"972 697 LINE",
"649 9 LINE",
"567 663 LINE",
"554 663 LINE",
"218 9 LINE",
"161 697 LINE",
"151 697 LINE",
"208 0 LINE"
);
}
);
width = 959;
},
{
anchors = (
{
name = bottom;
position = "{438, 0}";
},
{
name = top;
position = "{574, 697}";
}
);
layerId = "D76894BF-AD8F-4700-A820-B81A81AE60D1";
paths = (
{
closed = 1;
nodes = (
"260 0 LINE",
"548 551 LINE",
"542 551 LINE",
"615 0 LINE",
"688 0 LINE",
"1025 697 LINE",
"946 697 LINE",
"663 102 LINE",
"667 102 LINE",
"594 660 LINE",
"531 660 LINE",
"240 102 LINE",
"245 102 LINE",
"193 697 LINE",
"122 697 LINE",
"188 0 LINE"
);
}
);
width = 971;
}
);
leftKerningGroup = W;
note = W;
rightKerningGroup = W;
unicode = 0057;
},
{
color = 1;
glyphname = X;
lastChange = "2019-05-10 16:44:51 +0000";
layers = (
{
anchors = (
{
name = bottom;
position = "{271, 0}";
},
{
name = top;
position = "{407, 697}";
}
);
layerId = "F91D9E91-C1BC-4259-B0D8-112C0CBA2B8E";
paths = (
{
closed = 1;
nodes = (
"23 0 LINE",
"337 345 LINE",
"518 0 LINE",
"530 0 LINE",
"345 355 LINE",
"658 697 LINE",
"645 697 LINE",
"340 363 LINE",
"166 697 LINE",
"155 697 LINE",
"333 355 LINE",
"11 0 LINE"
);
}
);
width = 637;
},
{
anchors = (
{
name = bottom;
position = "{282, 0}";
},
{
name = top;
position = "{418, 697}";
}
);
layerId = "5EAB4D72-96CB-4765-AAD5-A13175319428";
paths = (
{
closed = 1;
nodes = (
"126 0 LINE",
"345 258 LINE",
"465 0 LINE",
"601 0 LINE",
"436 348 LINE",
"737 697 LINE",
"582 697 LINE",
"361 435 LINE",
"245 697 LINE",
"101 697 LINE",
"264 348 LINE",
"-38 0 LINE"
);
}
);
width = 660;
},
{
anchors = (
{
name = bottom;
position = "{271, 0}";
},
{
name = top;
position = "{407, 697}";
}
);
associatedMasterId = "F91D9E91-C1BC-4259-B0D8-112C0CBA2B8E";
layerId = "53751825-CB7B-4971-87F0-7DBD00A65D7B";
paths = (
{
closed = 1;
nodes = (
"23 0 LINE",
"337 345 LINE",
"518 0 LINE",
"530 0 LINE",
"345 355 LINE",
"658 697 LINE",
"645 697 LINE",
"340 363 LINE",
"166 697 LINE",
"155 697 LINE",
"333 355 LINE",
"11 0 LINE"
);
}
);
width = 637;
},
{
anchors = (
{
name = bottom;
position = "{276, 0}";
},
{
name = top;
position = "{412, 697}";
}
);
layerId = "D76894BF-AD8F-4700-A820-B81A81AE60D1";
paths = (
{
closed = 1;
nodes = (
"77 0 LINE",
"340 299 LINE",
"489 0 LINE",
"567 0 LINE",
"393 351 LINE",
"699 697 LINE",
"611 697 LINE",
"350 401 LINE",
"207 697 LINE",
"125 697 LINE",
"295 351 LINE",
"-16 0 LINE"
);
}
);
width = 647;
}
);
leftKerningGroup = X;
note = X;
rightKerningGroup = X;
unicode = 0058;
},
{
color = 1;
glyphname = Y;
lastChange = "2019-05-10 16:44:50 +0000";
layers = (
{
anchors = (
{
name = bottom;
position = "{279, 0}";
},
{
name = top;
position = "{415, 697}";
},
{
name = topleft;
position = "{108, 697}";
}
);
layerId = "F91D9E91-C1BC-4259-B0D8-112C0CBA2B8E";
paths = (
{
closed = 1;
nodes = (
"283 0 LINE",
"334 261 LINE",
"689 697 LINE",
"676 697 LINE",
"331 273 LINE",
"152 697 LINE",
"141 697 LINE",
"324 261 LINE",
"273 0 LINE"
);
}
);
width = 654;
},
{
anchors = (
{
name = bottom;
position = "{275, 0}";
},
{
name = top;
position = "{411, 697}";
},
{
name = topleft;
position = "{107, 697}";
}
);
layerId = "5EAB4D72-96CB-4765-AAD5-A13175319428";
paths = (
{
closed = 1;
nodes = (
"338 0 LINE",
"392 272 LINE",
"738 697 LINE",
"588 697 LINE",
"347 392 LINE",
"230 697 LINE",
"85 697 LINE",
"267 272 LINE",
"213 0 LINE"
);
}
);
width = 647;
},
{
anchors = (
{
name = bottom;
position = "{279, 0}";
},
{
name = top;
position = "{415, 697}";
},
{
name = topleft;
position = "{108, 697}";
}
);
associatedMasterId = "F91D9E91-C1BC-4259-B0D8-112C0CBA2B8E";
layerId = "53751825-CB7B-4971-87F0-7DBD00A65D7B";
paths = (
{
closed = 1;
nodes = (
"283 0 LINE",
"334 261 LINE",
"689 697 LINE",
"676 697 LINE",
"331 273 LINE",
"152 697 LINE",
"141 697 LINE",
"324 261 LINE",
"273 0 LINE"
);
}
);
width = 654;
},
{
anchors = (
{
name = bottom;
position = "{276, 0}";
},
{
name = top;
position = "{412, 697}";
},
{
name = topleft;
position = "{106, 697}";
}
);
layerId = "D76894BF-AD8F-4700-A820-B81A81AE60D1";
paths = (
{
closed = 1;
nodes = (
"311 0 LINE",
"364 267 LINE",
"714 697 LINE",
"628 697 LINE",
"338 336 LINE",
"192 697 LINE",
"110 697 LINE",
"292 267 LINE",
"240 0 LINE"
);
}
);
width = 648;
}
);
leftKerningGroup = Y;
note = Y;
rightKerningGroup = Y;
unicode = 0059;
},
{
color = 1;
glyphname = Z;
lastChange = "2019-05-10 16:44:50 +0000";
layers = (
{
anchors = (
{
name = bottom;
position = "{279, 0}";
},
{
name = center;
position = "{347, 349}";
},
{
name = top;
position = "{415, 697}";
}
);
layerId = "F91D9E91-C1BC-4259-B0D8-112C0CBA2B8E";
paths = (
{
closed = 1;
nodes = (
"542 0 LINE",
"544 10 LINE",
"21 10 LINE",
"22 12 LINE",
"678 682 LINE",
"681 697 LINE",
"169 697 LINE",
"167 687 LINE",
"669 687 LINE",
"668 686 LINE",
"12 16 LINE",
"9 0 LINE"
);
}
);
width = 654;
},
{
anchors = (
{
name = bottom;
position = "{264, 0}";
},
{
name = center;
position = "{332, 349}";
},
{
name = top;
position = "{400, 697}";
}
);
layerId = "5EAB4D72-96CB-4765-AAD5-A13175319428";
paths = (
{
closed = 1;
nodes = (
"541 0 LINE",
"563 115 LINE",
"122 115 LINE",
"133 71 LINE",
"660 606 LINE",
"677 697 LINE",
"138 697 LINE",
"115 582 LINE",
"535 582 LINE",
"525 624 LINE",
"-5 87 LINE",
"-21 0 LINE"
);
}
);
width = 624;
},
{
anchors = (
{
name = bottom;
position = "{279, 0}";
},
{
name = center;
position = "{347, 349}";
},
{
name = top;
position = "{415, 697}";
}
);
associatedMasterId = "F91D9E91-C1BC-4259-B0D8-112C0CBA2B8E";
layerId = "53751825-CB7B-4971-87F0-7DBD00A65D7B";
paths = (
{
closed = 1;
nodes = (
"542 0 LINE",
"544 10 LINE",
"21 10 LINE",
"22 12 LINE",
"678 682 LINE",
"681 697 LINE",
"169 697 LINE",
"167 687 LINE",
"669 687 LINE",
"668 686 LINE",
"12 16 LINE",
"9 0 LINE"
);
}
);
width = 654;
},
{
anchors = (
{
name = bottom;
position = "{270, 0}";
},
{
name = center;
position = "{338, 349}";
},
{
name = top;
position = "{406, 697}";
}
);
layerId = "D76894BF-AD8F-4700-A820-B81A81AE60D1";
paths = (
{
closed = 1;
nodes = (
"540 0 LINE",
"553 66 LINE",
"74 66 LINE",
"80 43 LINE",
"667 641 LINE",
"678 697 LINE",
"151 697 LINE",
"138 631 LINE",
"597 631 LINE",
"591 653 LINE",
"2 54 LINE",
"-8 0 LINE"
);
}
);
width = 634;
}
);
leftKerningGroup = Z;
note = Z;
rightKerningGroup = Z;
unicode = 005A;
},
{
color = 1;
glyphname = a;
lastChange = "2019-05-10 16:44:51 +0000";
layers = (
{
anchors = (
{
name = bottom;
position = "{260, 0}";
},
{
name = ogonek;
position = "{464, 0}";
},
{
name = top;
position = "{356, 493}";
}
);
layerId = "F91D9E91-C1BC-4259-B0D8-112C0CBA2B8E";
paths = (
{
closed = 1;
nodes = (
"345 -5 OFFCURVE",
"442 67 OFFCURVE",
"488 172 CURVE",
"488 173 LINE",
"454 0 LINE",
"464 0 LINE",
"560 493 LINE",
"550 493 LINE",
"516 321 LINE",
"517 322 LINE",
"511 425 OFFCURVE",
"443 498 OFFCURVE",
"337 498 CURVE SMOOTH",
"185 498 OFFCURVE",
"57 347 OFFCURVE",
"57 191 CURVE SMOOTH",
"57 76 OFFCURVE",
"130 -5 OFFCURVE",
"241 -5 CURVE SMOOTH"
);
},
{
closed = 1;
nodes = (
"136 5 OFFCURVE",
"67 83 OFFCURVE",
"67 191 CURVE SMOOTH",
"67 338 OFFCURVE",
"186 488 OFFCURVE",
"337 488 CURVE SMOOTH",
"461 488 OFFCURVE",
"529 382 OFFCURVE",
"502 247 CURVE SMOOTH",
"475 109 OFFCURVE",
"363 5 OFFCURVE",
"241 5 CURVE SMOOTH"
);
}
);
width = 615;
},
{
anchors = (
{
name = bottom;
position = "{239, 0}";
},
{
name = ogonek;
position = "{455, 0}";
},
{
name = top;
position = "{335, 493}";
}
);
guideLines = (
{
angle = 79.1677;
position = "{335, 0}";
}
);
layerId = "5EAB4D72-96CB-4765-AAD5-A13175319428";
paths = (
{
closed = 1;
nodes = (
"258 -10 OFFCURVE",
"327 14 OFFCURVE",
"372 95 CURVE",
"356 110 LINE",
"335 0 LINE",
"455 0 LINE",
"551 493 LINE",
"430 493 LINE",
"408 386 LINE",
"431 412 LINE",
"418 462 OFFCURVE",
"358 503 OFFCURVE",
"285 503 CURVE SMOOTH",
"126 503 OFFCURVE",
"27 344 OFFCURVE",
"27 179 CURVE SMOOTH",
"27 67 OFFCURVE",
"84 -10 OFFCURVE",
"197 -10 CURVE SMOOTH"
);
},
{
closed = 1;
nodes = (
"174 101 OFFCURVE",
"146 133 OFFCURVE",
"146 190 CURVE SMOOTH",
"146 293 OFFCURVE",
"203 394 OFFCURVE",
"305 394 CURVE SMOOTH",
"372 394 OFFCURVE",
"400 354 OFFCURVE",
"400 297 CURVE SMOOTH",
"400 196 OFFCURVE",
"339 101 OFFCURVE",
"236 101 CURVE SMOOTH"
);
}
);
width = 573;
},
{
anchors = (
{
name = bottom;
position = "{260, 0}";
},
{
name = ogonek;
position = "{464, 0}";
},
{
name = top;
position = "{356, 493}";
}
);
associatedMasterId = "F91D9E91-C1BC-4259-B0D8-112C0CBA2B8E";
layerId = "53751825-CB7B-4971-87F0-7DBD00A65D7B";
paths = (
{
closed = 1;
nodes = (
"344 -5 OFFCURVE",
"440 66 OFFCURVE",
"487 169 CURVE",
"454 0 LINE",
"464 0 LINE",
"560 493 LINE",
"550 493 LINE",
"517 325 LINE",
"510 427 OFFCURVE",
"442 498 OFFCURVE",
"337 498 CURVE SMOOTH",
"185 498 OFFCURVE",
"57 347 OFFCURVE",
"57 191 CURVE SMOOTH",
"57 76 OFFCURVE",
"130 -5 OFFCURVE",
"241 -5 CURVE SMOOTH"
);
},
{
closed = 1;
nodes = (
"136 5 OFFCURVE",
"67 83 OFFCURVE",
"67 191 CURVE SMOOTH",
"67 338 OFFCURVE",
"186 488 OFFCURVE",
"337 488 CURVE SMOOTH",
"461 488 OFFCURVE",
"529 382 OFFCURVE",
"502 247 CURVE SMOOTH",
"475 109 OFFCURVE",
"363 5 OFFCURVE",
"241 5 CURVE SMOOTH"
);
}
);
width = 615;
},
{
anchors = (
{
name = bottom;
position = "{246, 0}";
},
{
name = ogonek;
position = "{456, 0}";
},
{
name = top;
position = "{332, 493}";
}
);
layerId = "D76894BF-AD8F-4700-A820-B81A81AE60D1";
paths = (
{
closed = 1;
nodes = (
"311 -8 OFFCURVE",
"396 35 OFFCURVE",
"431 112 CURVE",
"410 113 LINE",
"388 0 LINE",
"456 0 LINE",
"552 493 LINE",
"483 493 LINE",
"461 382 LINE",
"483 383 LINE",
"467 453 OFFCURVE",
"399 501 OFFCURVE",
"312 501 CURVE SMOOTH",
"154 501 OFFCURVE",
"38 345 OFFCURVE",
"38 188 CURVE SMOOTH",
"38 71 OFFCURVE",
"103 -8 OFFCURVE",
"225 -8 CURVE SMOOTH"
);
},
{
closed = 1;
nodes = (
"153 56 OFFCURVE",
"106 109 OFFCURVE",
"106 195 CURVE SMOOTH",
"106 311 OFFCURVE",
"192 438 OFFCURVE",
"317 438 CURVE SMOOTH",
"408 438 OFFCURVE",
"456 372 OFFCURVE",
"445 273 CURVE SMOOTH",
"432 156 OFFCURVE",
"347 56 OFFCURVE",
"235 56 CURVE SMOOTH"
);
}
);
width = 588;
}
);
leftKerningGroup = c;
note = a;
rightKerningGroup = a;
unicode = 0061;
},
{
color = 1;
glyphname = ae;
lastChange = "2019-05-10 16:44:51 +0000";
layers = (
{
anchors = (
{
name = bottom;
position = "{395, 0}";
},
{
name = top;
position = "{491, 493}";
}
);
layerId = "F91D9E91-C1BC-4259-B0D8-112C0CBA2B8E";
paths = (
{
closed = 1;
nodes = (
"258 -5 OFFCURVE",
"352 36 OFFCURVE",
"414 192 CURVE",
"417 192 LINE",
"410 71 OFFCURVE",
"473 -5 OFFCURVE",
"586 -5 CURVE SMOOTH",
"661 -5 OFFCURVE",
"711 14 OFFCURVE",
"779 70 CURVE",
"772 78 LINE",
"707 23 OFFCURVE",
"661 5 OFFCURVE",
"586 5 CURVE SMOOTH",
"487 5 OFFCURVE",
"427 67 OFFCURVE",
"427 176 CURVE SMOOTH",
"427 199 OFFCURVE",
"430 224 OFFCURVE",
"435 251 CURVE",
"823 251 LINE",
"833 277 OFFCURVE",
"838 307 OFFCURVE",
"838 335 CURVE SMOOTH",
"838 413 OFFCURVE",
"800 498 OFFCURVE",
"674 498 CURVE SMOOTH",
"578 498 OFFCURVE",
"493 430 OFFCURVE",
"448 324 CURVE",
"448 323 LINE",
"467 428 OFFCURVE",
"417 498 OFFCURVE",
"303 498 CURVE SMOOTH",
"226 498 OFFCURVE",
"168 471 OFFCURVE",
"107 403 CURVE",
"115 397 LINE",
"173 462 OFFCURVE",
"227 488 OFFCURVE",
"303 488 CURVE SMOOTH",
"395 488 OFFCURVE",
"441 445 OFFCURVE",
"441 361 CURVE SMOOTH",
"441 335 OFFCURVE",
"436 309 OFFCURVE",
"429 274 CURVE",
"280 274 LINE SMOOTH",
"140 274 OFFCURVE",
"33 227 OFFCURVE",
"33 104 CURVE SMOOTH",
"33 36 OFFCURVE",
"84 -5 OFFCURVE",
"171 -5 CURVE SMOOTH"
);
},
{
closed = 1;
nodes = (
"89 5 OFFCURVE",
"43 43 OFFCURVE",
"43 106 CURVE SMOOTH",
"43 219 OFFCURVE",
"143 264 OFFCURVE",
"279 264 CURVE SMOOTH",
"427 264 LINE",
"377 93 OFFCURVE",
"298 5 OFFCURVE",
"171 5 CURVE SMOOTH"
);
},
{
closed = 1;
nodes = (
"469 396 OFFCURVE",
"564 488 OFFCURVE",
"674 488 CURVE SMOOTH",
"792 488 OFFCURVE",
"828 410 OFFCURVE",
"828 337 CURVE SMOOTH",
"828 313 OFFCURVE",
"823 283 OFFCURVE",
"816 261 CURVE",
"437 261 LINE"
);
}
);
width = 885;
},
{
anchors = (
{
name = bottom;
position = "{367, 0}";
},
{
name = top;
position = "{463, 493}";
}
);
layerId = "5EAB4D72-96CB-4765-AAD5-A13175319428";
paths = (
{
closed = 1;
nodes = (
"213 -10 OFFCURVE",
"276 -7 OFFCURVE",
"354 73 CURVE",
"369 73 LINE",
"393 28 OFFCURVE",
"446 -6 OFFCURVE",
"532 -6 CURVE SMOOTH",
"612 -6 OFFCURVE",
"679 14 OFFCURVE",
"750 76 CURVE",
"677 155 LINE",
"636 118 OFFCURVE",
"596 101 OFFCURVE",
"541 101 CURVE SMOOTH",
"480 101 OFFCURVE",
"458 132 OFFCURVE",
"458 182 CURVE SMOOTH",
"458 188 OFFCURVE",
"458 195 OFFCURVE",
"459 202 CURVE",
"786 203 LINE",
"798 244 OFFCURVE",
"805 282 OFFCURVE",
"805 317 CURVE SMOOTH",
"805 425 OFFCURVE",
"745 499 OFFCURVE",
"621 499 CURVE SMOOTH",
"546 499 OFFCURVE",
"490 467 OFFCURVE",
"434 403 CURVE",
"473 414 LINE",
"457 454 OFFCURVE",
"409 503 OFFCURVE",
"290 503 CURVE SMOOTH",
"199 503 OFFCURVE",
"132 472 OFFCURVE",
"70 413 CURVE",
"145 333 LINE",
"183 370 OFFCURVE",
"227 398 OFFCURVE",
"294 398 CURVE SMOOTH",
"349 398 OFFCURVE",
"372 375 OFFCURVE",
"372 337 CURVE SMOOTH",
"372 330 OFFCURVE",
"370 317 OFFCURVE",
"366 294 CURVE",
"260 294 LINE SMOOTH",
"137 294 OFFCURVE",
"5 273 OFFCURVE",
"5 122 CURVE SMOOTH",
"5 39 OFFCURVE",
"71 -10 OFFCURVE",
"157 -10 CURVE SMOOTH"
);
},
{
closed = 1;
nodes = (
"148 92 OFFCURVE",
"127 107 OFFCURVE",
"127 130 CURVE SMOOTH",
"127 178 OFFCURVE",
"183 207 OFFCURVE",
"255 207 CURVE SMOOTH",
"349 207 LINE",
"329 149 OFFCURVE",
"271 92 OFFCURVE",
"191 92 CURVE SMOOTH"
);
},
{
closed = 1;
nodes = (
"485 340 OFFCURVE",
"531 398 OFFCURVE",
"602 398 CURVE SMOOTH",
"663 398 OFFCURVE",
"695 373 OFFCURVE",
"695 329 CURVE SMOOTH",
"695 317 OFFCURVE",
"693 303 OFFCURVE",
"688 289 CURVE",
"475 289 LINE"
);
}
);
width = 827;
},
{
anchors = (
{
name = bottom;
position = "{395, 0}";
},
{
name = top;
position = "{491, 493}";
}
);
associatedMasterId = "F91D9E91-C1BC-4259-B0D8-112C0CBA2B8E";
layerId = "53751825-CB7B-4971-87F0-7DBD00A65D7B";
paths = (
{
closed = 1;
nodes = (
"258 -5 OFFCURVE",
"352 36 OFFCURVE",
"414 192 CURVE",
"417 192 LINE",
"410 71 OFFCURVE",
"473 -5 OFFCURVE",
"586 -5 CURVE SMOOTH",
"661 -5 OFFCURVE",
"711 14 OFFCURVE",
"779 70 CURVE",
"772 78 LINE",
"707 23 OFFCURVE",
"661 5 OFFCURVE",
"586 5 CURVE SMOOTH",
"487 5 OFFCURVE",
"427 67 OFFCURVE",
"427 176 CURVE SMOOTH",
"427 199 OFFCURVE",
"430 224 OFFCURVE",
"435 251 CURVE",
"823 251 LINE",
"833 277 OFFCURVE",
"838 307 OFFCURVE",
"838 335 CURVE SMOOTH",
"838 413 OFFCURVE",
"800 498 OFFCURVE",
"674 498 CURVE SMOOTH",
"579 498 OFFCURVE",
"495 431 OFFCURVE",
"449 327 CURVE",
"466 430 OFFCURVE",
"416 498 OFFCURVE",
"303 498 CURVE SMOOTH",
"226 498 OFFCURVE",
"168 471 OFFCURVE",
"107 403 CURVE",
"115 397 LINE",
"173 462 OFFCURVE",
"227 488 OFFCURVE",
"303 488 CURVE SMOOTH",
"395 488 OFFCURVE",
"441 445 OFFCURVE",
"441 361 CURVE SMOOTH",
"441 335 OFFCURVE",
"436 309 OFFCURVE",
"429 274 CURVE",
"280 274 LINE SMOOTH",
"140 274 OFFCURVE",
"33 227 OFFCURVE",
"33 104 CURVE SMOOTH",
"33 36 OFFCURVE",
"84 -5 OFFCURVE",
"171 -5 CURVE SMOOTH"
);
},
{
closed = 1;
nodes = (
"89 5 OFFCURVE",
"43 43 OFFCURVE",
"43 106 CURVE SMOOTH",
"43 219 OFFCURVE",
"143 264 OFFCURVE",
"279 264 CURVE SMOOTH",
"427 264 LINE",
"377 93 OFFCURVE",
"298 5 OFFCURVE",
"171 5 CURVE SMOOTH"
);
},
{
closed = 1;
nodes = (
"469 396 OFFCURVE",
"564 488 OFFCURVE",
"674 488 CURVE SMOOTH",
"792 488 OFFCURVE",
"828 410 OFFCURVE",
"828 337 CURVE SMOOTH",
"828 313 OFFCURVE",
"823 283 OFFCURVE",
"816 261 CURVE",
"437 261 LINE"
);
}
);
width = 885;
},
{
anchors = (
{
name = bottom;
position = "{377, 0}";
},
{
name = top;
position = "{473, 493}";
}
);
layerId = "D76894BF-AD8F-4700-A820-B81A81AE60D1";
paths = (
{
closed = 1;
nodes = (
"238 -8 OFFCURVE",
"335 13 OFFCURVE",
"401 129 CURVE",
"388 129 LINE",
"398 48 OFFCURVE",
"456 -6 OFFCURVE",
"554 -6 CURVE SMOOTH",
"631 -6 OFFCURVE",
"691 14 OFFCURVE",
"760 73 CURVE",
"718 119 LINE",
"666 74 OFFCURVE",
"624 56 OFFCURVE",
"559 56 CURVE SMOOTH",
"480 56 OFFCURVE",
"450 102 OFFCURVE",
"450 179 CURVE SMOOTH",
"450 192 OFFCURVE",
"452 210 OFFCURVE",
"455 225 CURVE",
"800 225 LINE",
"812 260 OFFCURVE",
"818 294 OFFCURVE",
"818 326 CURVE SMOOTH",
"818 425 OFFCURVE",
"759 499 OFFCURVE",
"643 499 CURVE SMOOTH",
"558 499 OFFCURVE",
"490 458 OFFCURVE",
"441 381 CURVE",
"456 381 LINE",
"453 449 OFFCURVE",
"400 501 OFFCURVE",
"293 501 CURVE SMOOTH",
"212 501 OFFCURVE",
"148 474 OFFCURVE",
"84 408 CURVE",
"128 363 LINE",
"175 413 OFFCURVE",
"225 440 OFFCURVE",
"295 440 CURVE SMOOTH",
"370 440 OFFCURVE",
"398 402 OFFCURVE",
"398 345 CURVE SMOOTH",
"398 327 OFFCURVE",
"395 307 OFFCURVE",
"390 285 CURVE",
"266 285 LINE SMOOTH",
"135 285 OFFCURVE",
"15 251 OFFCURVE",
"15 114 CURVE SMOOTH",
"15 38 OFFCURVE",
"74 -8 OFFCURVE",
"170 -8 CURVE SMOOTH"
);
},
{
closed = 1;
nodes = (
"118 51 OFFCURVE",
"85 77 OFFCURVE",
"85 119 CURVE SMOOTH",
"85 197 OFFCURVE",
"162 232 OFFCURVE",
"263 232 CURVE SMOOTH",
"380 232 LINE",
"346 121 OFFCURVE",
"282 51 OFFCURVE",
"179 51 CURVE SMOOTH"
);
},
{
closed = 1;
nodes = (
"485 368 OFFCURVE",
"545 440 OFFCURVE",
"633 440 CURVE SMOOTH",
"712 440 OFFCURVE",
"755 397 OFFCURVE",
"755 333 CURVE SMOOTH",
"755 315 OFFCURVE",
"751 296 OFFCURVE",
"745 276 CURVE",
"464 276 LINE"
);
}
);
width = 850;
}
);
leftKerningGroup = a;
note = ae;
rightKerningGroup = e;
unicode = 00E6;
},
{
color = 1;
glyphname = b;
lastChange = "2019-05-10 16:01:43 +0000";
layers = (
{
anchors = (
{
name = bottom;
position = "{251, 0}";
},
{
name = top;
position = "{196, 697}";
}
);
layerId = "F91D9E91-C1BC-4259-B0D8-112C0CBA2B8E";
paths = (
{
closed = 1;
nodes = (
"431 -5 OFFCURVE",
"539 154 OFFCURVE",
"539 315 CURVE SMOOTH",
"539 423 OFFCURVE",
"482 498 OFFCURVE",
"374 498 CURVE SMOOTH",
"270 498 OFFCURVE",
"173 426 OFFCURVE",
"127 322 CURVE",
"127 321 LINE",
"201 697 LINE",
"191 697 LINE",
"55 0 LINE",
"65 0 LINE",
"99 173 LINE",
"98 172 LINE",
"104 68 OFFCURVE",
"172 -5 OFFCURVE",
"278 -5 CURVE SMOOTH"
);
},
{
closed = 1;
nodes = (
"174 5 OFFCURVE",
"107 81 OFFCURVE",
"107 190 CURVE SMOOTH",
"107 337 OFFCURVE",
"223 488 OFFCURVE",
"374 488 CURVE SMOOTH",
"476 488 OFFCURVE",
"529 417 OFFCURVE",
"529 315 CURVE SMOOTH",
"529 161 OFFCURVE",
"429 5 OFFCURVE",
"278 5 CURVE SMOOTH"
);
}
);
width = 598;
},
{
anchors = (
{
name = bottom;
position = "{237, 0}";
},
{
name = top;
position = "{219, 697}";
}
);
layerId = "5EAB4D72-96CB-4765-AAD5-A13175319428";
paths = (
{
closed = 1;
nodes = (
"446 -10 OFFCURVE",
"547 147 OFFCURVE",
"547 313 CURVE SMOOTH",
"547 433 OFFCURVE",
"481 503 OFFCURVE",
"377 503 CURVE SMOOTH",
"312 503 OFFCURVE",
"240 475 OFFCURVE",
"206 420 CURVE",
"217 394 LINE",
"279 697 LINE",
"159 697 LINE",
"23 0 LINE",
"143 0 LINE",
"167 106 LINE",
"141 86 LINE",
"157 22 OFFCURVE",
"220 -10 OFFCURVE",
"289 -10 CURVE SMOOTH"
);
},
{
closed = 1;
nodes = (
"202 101 OFFCURVE",
"174 139 OFFCURVE",
"174 196 CURVE SMOOTH",
"174 296 OFFCURVE",
"237 394 OFFCURVE",
"337 394 CURVE SMOOTH",
"399 394 OFFCURVE",
"428 361 OFFCURVE",
"428 302 CURVE SMOOTH",
"428 199 OFFCURVE",
"372 101 OFFCURVE",
"270 101 CURVE SMOOTH"
);
}
);
width = 573;
},
{
anchors = (
{
name = bottom;
position = "{251, 0}";
},
{
name = top;
position = "{196, 697}";
}
);
associatedMasterId = "F91D9E91-C1BC-4259-B0D8-112C0CBA2B8E";
layerId = "53751825-CB7B-4971-87F0-7DBD00A65D7B";
paths = (
{
closed = 1;
nodes = (
"431 -5 OFFCURVE",
"539 154 OFFCURVE",
"539 315 CURVE SMOOTH",
"539 423 OFFCURVE",
"482 498 OFFCURVE",
"374 498 CURVE SMOOTH",
"271 498 OFFCURVE",
"175 427 OFFCURVE",
"128 325 CURVE",
"201 697 LINE",
"191 697 LINE",
"55 0 LINE",
"65 0 LINE",
"98 169 LINE",
"105 66 OFFCURVE",
"173 -5 OFFCURVE",
"278 -5 CURVE SMOOTH"
);
},
{
closed = 1;
nodes = (
"174 5 OFFCURVE",
"107 81 OFFCURVE",
"107 190 CURVE SMOOTH",
"107 337 OFFCURVE",
"223 488 OFFCURVE",
"374 488 CURVE SMOOTH",
"476 488 OFFCURVE",
"529 417 OFFCURVE",
"529 315 CURVE SMOOTH",
"529 161 OFFCURVE",
"429 5 OFFCURVE",
"278 5 CURVE SMOOTH"
);
}
);
width = 598;
},
{
anchors = (
{
name = bottom;
position = "{243, 0}";
},
{
name = top;
position = "{207, 697}";
}
);
layerId = "D76894BF-AD8F-4700-A820-B81A81AE60D1";
paths = (
{
closed = 1;
nodes = (
"435 -8 OFFCURVE",
"551 148 OFFCURVE",
"551 305 CURVE SMOOTH",
"551 422 OFFCURVE",
"486 501 OFFCURVE",
"364 501 CURVE SMOOTH",
"278 501 OFFCURVE",
"193 458 OFFCURVE",
"158 381 CURVE",
"186 380 LINE",
"249 697 LINE",
"173 697 LINE",
"37 0 LINE",
"113 0 LINE",
"137 127 LINE",
"106 110 LINE",
"122 40 OFFCURVE",
"190 -8 OFFCURVE",
"277 -8 CURVE SMOOTH"
);
},
{
closed = 1;
nodes = (
"181 55 OFFCURVE",
"133 121 OFFCURVE",
"144 220 CURVE SMOOTH",
"157 337 OFFCURVE",
"242 437 OFFCURVE",
"354 437 CURVE SMOOTH",
"436 437 OFFCURVE",
"483 384 OFFCURVE",
"483 298 CURVE SMOOTH",
"483 182 OFFCURVE",
"397 55 OFFCURVE",
"272 55 CURVE SMOOTH"
);
}
);
width = 589;
}
);
leftKerningGroup = b;
note = b;
rightKerningGroup = b;
unicode = 0062;
},
{
color = 1;
glyphname = c;
lastChange = "2019-05-10 15:30:21 +0000";
layers = (
{
anchors = (
{
name = bottom;
position = "{204, 0}";
},
{
name = top;
position = "{300, 493}";
}
);
layerId = "F91D9E91-C1BC-4259-B0D8-112C0CBA2B8E";
paths = (
{
closed = 1;
nodes = (
"306 -5 OFFCURVE",
"380 40 OFFCURVE",
"424 120 CURVE",
"414 124 LINE",
"373 48 OFFCURVE",
"304 5 OFFCURVE",
"223 5 CURVE SMOOTH",
"117 5 OFFCURVE",
"69 80 OFFCURVE",
"69 178 CURVE SMOOTH",
"69 332 OFFCURVE",
"169 488 OFFCURVE",
"318 488 CURVE SMOOTH",
"393 488 OFFCURVE",
"449 444 OFFCURVE",
"467 369 CURVE",
"478 373 LINE",
"458 452 OFFCURVE",
"401 498 OFFCURVE",
"318 498 CURVE SMOOTH",
"167 498 OFFCURVE",
"59 337 OFFCURVE",
"59 177 CURVE SMOOTH",
"59 67 OFFCURVE",
"120 -5 OFFCURVE",
"223 -5 CURVE SMOOTH"
);
}
);
width = 503;
},
{
anchors = (
{
name = bottom;
position = "{200, 0}";
},
{
name = top;
position = "{296, 493}";
}
);
layerId = "5EAB4D72-96CB-4765-AAD5-A13175319428";
paths = (
{
closed = 1;
nodes = (
"318 -10 OFFCURVE",
"402 40 OFFCURVE",
"453 132 CURVE",
"352 182 LINE",
"329 131 OFFCURVE",
"282 95 OFFCURVE",
"231 95 CURVE SMOOTH",
"167 95 OFFCURVE",
"144 137 OFFCURVE",
"144 190 CURVE SMOOTH",
"144 290 OFFCURVE",
"205 398 OFFCURVE",
"301 398 CURVE SMOOTH",
"347 398 OFFCURVE",
"377 369 OFFCURVE",
"379 317 CURVE",
"499 354 LINE",
"480 452 OFFCURVE",
"411 503 OFFCURVE",
"310 503 CURVE SMOOTH",
"145 503 OFFCURVE",
"23 359 OFFCURVE",
"23 193 CURVE SMOOTH",
"23 83 OFFCURVE",
"84 -10 OFFCURVE",
"223 -10 CURVE SMOOTH"
);
}
);
width = 494;
},
{
anchors = (
{
name = bottom;
position = "{204, 0}";
},
{
name = top;
position = "{300, 493}";
}
);
associatedMasterId = "F91D9E91-C1BC-4259-B0D8-112C0CBA2B8E";
layerId = "53751825-CB7B-4971-87F0-7DBD00A65D7B";
paths = (
{
closed = 1;
nodes = (
"306 -5 OFFCURVE",
"380 40 OFFCURVE",
"424 120 CURVE",
"414 124 LINE",
"373 48 OFFCURVE",
"304 5 OFFCURVE",
"223 5 CURVE SMOOTH",
"117 5 OFFCURVE",
"69 80 OFFCURVE",
"69 178 CURVE SMOOTH",
"69 332 OFFCURVE",
"169 488 OFFCURVE",
"318 488 CURVE SMOOTH",
"393 488 OFFCURVE",
"449 444 OFFCURVE",
"467 369 CURVE",
"478 373 LINE",
"458 452 OFFCURVE",
"401 498 OFFCURVE",
"318 498 CURVE SMOOTH",
"167 498 OFFCURVE",
"59 337 OFFCURVE",
"59 177 CURVE SMOOTH",
"59 67 OFFCURVE",
"120 -5 OFFCURVE",
"223 -5 CURVE SMOOTH"
);
}
);
width = 503;
},
{
anchors = (
{
name = bottom;
position = "{201, 0}";
},
{
name = top;
position = "{297, 493}";
}
);
layerId = "D76894BF-AD8F-4700-A820-B81A81AE60D1";
paths = (
{
closed = 1;
nodes = (
"311 -8 OFFCURVE",
"391 40 OFFCURVE",
"439 126 CURVE",
"380 155 LINE",
"349 92 OFFCURVE",
"291 53 OFFCURVE",
"226 53 CURVE SMOOTH",
"143 53 OFFCURVE",
"108 111 OFFCURVE",
"108 184 CURVE SMOOTH",
"108 310 OFFCURVE",
"188 440 OFFCURVE",
"308 440 CURVE SMOOTH",
"367 440 OFFCURVE",
"410 404 OFFCURVE",
"419 341 CURVE",
"488 363 LINE",
"469 452 OFFCURVE",
"405 501 OFFCURVE",
"313 501 CURVE SMOOTH",
"155 501 OFFCURVE",
"39 349 OFFCURVE",
"39 186 CURVE SMOOTH",
"39 76 OFFCURVE",
"100 -8 OFFCURVE",
"222 -8 CURVE SMOOTH"
);
}
);
width = 497;
}
);
leftKerningGroup = c;
note = c;
rightKerningGroup = c;
unicode = 0063;
},
{
color = 1;
glyphname = d;
lastChange = "2019-05-10 15:34:40 +0000";
layers = (
{
anchors = (
{
name = bottom;
position = "{260, 0}";
},
{
name = center;
position = "{530, 608}";
},
{
name = top;
position = "{595, 697}";
},
{
name = topright;
position = "{666, 493}";
}
);
layerId = "F91D9E91-C1BC-4259-B0D8-112C0CBA2B8E";
paths = (
{
closed = 1;
nodes = (
"345 -5 OFFCURVE",
"442 67 OFFCURVE",
"488 172 CURVE",
"488 173 LINE",
"454 0 LINE",
"464 0 LINE",
"600 697 LINE",
"590 697 LINE",
"516 321 LINE",
"517 322 LINE",
"511 425 OFFCURVE",
"443 498 OFFCURVE",
"337 498 CURVE SMOOTH",
"185 498 OFFCURVE",
"57 347 OFFCURVE",
"57 191 CURVE SMOOTH",
"57 76 OFFCURVE",
"130 -5 OFFCURVE",
"241 -5 CURVE SMOOTH"
);
},
{
closed = 1;
nodes = (
"136 5 OFFCURVE",
"67 83 OFFCURVE",
"67 191 CURVE SMOOTH",
"67 338 OFFCURVE",
"186 488 OFFCURVE",
"337 488 CURVE SMOOTH",
"441 488 OFFCURVE",
"508 412 OFFCURVE",
"508 304 CURVE SMOOTH",
"508 157 OFFCURVE",
"392 5 OFFCURVE",
"241 5 CURVE SMOOTH"
);
}
);
width = 614;
},
{
anchors = (
{
name = bottom;
position = "{243, 0}";
},
{
name = center;
position = "{470, 608}";
},
{
name = top;
position = "{531, 697}";
},
{
name = topright;
position = "{665, 493}";
}
);
background = {
paths = (
{
closed = 1;
nodes = (
"248 -10 OFFCURVE",
"304 6 OFFCURVE",
"347 57 CURVE",
"336 0 LINE",
"456 0 LINE",
"552 493 LINE",
"431 493 LINE",
"420 439 LINE",
"396 476 OFFCURVE",
"345 503 OFFCURVE",
"286 503 CURVE SMOOTH",
"127 503 OFFCURVE",
"28 344 OFFCURVE",
"28 179 CURVE SMOOTH",
"28 67 OFFCURVE",
"85 -10 OFFCURVE",
"198 -10 CURVE SMOOTH"
);
},
{
closed = 1;
nodes = (
"175 101 OFFCURVE",
"147 133 OFFCURVE",
"147 190 CURVE SMOOTH",
"147 293 OFFCURVE",
"204 394 OFFCURVE",
"306 394 CURVE SMOOTH",
"373 394 OFFCURVE",
"401 354 OFFCURVE",
"401 297 CURVE SMOOTH",
"401 196 OFFCURVE",
"340 101 OFFCURVE",
"237 101 CURVE SMOOTH"
);
}
);
};
layerId = "5EAB4D72-96CB-4765-AAD5-A13175319428";
paths = (
{
closed = 1;
nodes = (
"258 -10 OFFCURVE",
"327 9 OFFCURVE",
"373 97 CURVE",
"358 110 LINE",
"335 0 LINE",
"455 0 LINE",
"591 697 LINE",
"471 697 LINE",
"408 386 LINE",
"431 412 LINE",
"418 462 OFFCURVE",
"358 503 OFFCURVE",
"285 503 CURVE SMOOTH",
"126 503 OFFCURVE",
"27 344 OFFCURVE",
"27 179 CURVE SMOOTH",
"27 67 OFFCURVE",
"84 -10 OFFCURVE",
"197 -10 CURVE SMOOTH"
);
},
{
closed = 1;
nodes = (
"174 101 OFFCURVE",
"146 133 OFFCURVE",
"146 190 CURVE SMOOTH",
"146 293 OFFCURVE",
"203 394 OFFCURVE",
"305 394 CURVE SMOOTH",
"372 394 OFFCURVE",
"400 354 OFFCURVE",
"400 297 CURVE SMOOTH",
"400 196 OFFCURVE",
"339 101 OFFCURVE",
"236 101 CURVE SMOOTH"
);
}
);
width = 573;
},
{
anchors = (
{
name = bottom;
position = "{260, 0}";
},
{
name = center;
position = "{530, 608}";
},
{
name = top;
position = "{595, 697}";
},
{
name = topright;
position = "{666, 493}";
}
);
associatedMasterId = "F91D9E91-C1BC-4259-B0D8-112C0CBA2B8E";
layerId = "53751825-CB7B-4971-87F0-7DBD00A65D7B";
paths = (
{
closed = 1;
nodes = (
"344 -5 OFFCURVE",
"440 66 OFFCURVE",
"487 169 CURVE",
"454 0 LINE",
"464 0 LINE",
"600 697 LINE",
"590 697 LINE",
"517 325 LINE",
"510 427 OFFCURVE",
"442 498 OFFCURVE",
"337 498 CURVE SMOOTH",
"185 498 OFFCURVE",
"57 347 OFFCURVE",
"57 191 CURVE SMOOTH",
"57 76 OFFCURVE",
"130 -5 OFFCURVE",
"241 -5 CURVE SMOOTH"
);
},
{
closed = 1;
nodes = (
"136 5 OFFCURVE",
"67 83 OFFCURVE",
"67 191 CURVE SMOOTH",
"67 338 OFFCURVE",
"186 488 OFFCURVE",
"337 488 CURVE SMOOTH",
"441 488 OFFCURVE",
"508 412 OFFCURVE",
"508 304 CURVE SMOOTH",
"508 157 OFFCURVE",
"392 5 OFFCURVE",
"241 5 CURVE SMOOTH"
);
}
);
width = 614;
},
{
anchors = (
{
name = bottom;
position = "{237, 0}";
},
{
name = center;
position = "{492, 606}";
},
{
name = top;
position = "{558, 697}";
},
{
name = topright;
position = "{662, 493}";
}
);
layerId = "D76894BF-AD8F-4700-A820-B81A81AE60D1";
paths = (
{
closed = 1;
nodes = (
"311 -8 OFFCURVE",
"396 35 OFFCURVE",
"431 112 CURVE",
"410 113 LINE",
"388 0 LINE",
"456 0 LINE",
"592 697 LINE",
"523 697 LINE",
"461 382 LINE",
"483 383 LINE",
"467 453 OFFCURVE",
"399 501 OFFCURVE",
"312 501 CURVE SMOOTH",
"154 501 OFFCURVE",
"38 345 OFFCURVE",
"38 188 CURVE SMOOTH",
"38 71 OFFCURVE",
"103 -8 OFFCURVE",
"225 -8 CURVE SMOOTH"
);
},
{
closed = 1;
nodes = (
"153 56 OFFCURVE",
"106 109 OFFCURVE",
"106 195 CURVE SMOOTH",
"106 311 OFFCURVE",
"192 438 OFFCURVE",
"317 438 CURVE SMOOTH",
"408 438 OFFCURVE",
"456 372 OFFCURVE",
"445 273 CURVE SMOOTH",
"432 156 OFFCURVE",
"347 56 OFFCURVE",
"235 56 CURVE SMOOTH"
);
}
);
width = 588;
}
);
leftKerningGroup = c;
note = d;
rightKerningGroup = d;
unicode = 0064;
},
{
color = 1;
glyphname = eth;
lastChange = "2019-05-10 16:44:51 +0000";
layers = (
{
layerId = "F91D9E91-C1BC-4259-B0D8-112C0CBA2B8E";
paths = (
{
closed = 1;
nodes = (
"415 -5 OFFCURVE",
"531 180 OFFCURVE",
"566 359 CURVE SMOOTH",
"575 403 OFFCURVE",
"579 444 OFFCURVE",
"579 480 CURVE SMOOTH",
"579 628 OFFCURVE",
"495 703 OFFCURVE",
"240 707 CURVE",
"239 697 LINE",
"463 693 OFFCURVE",
"570 636 OFFCURVE",
"570 475 CURVE SMOOTH",
"570 424 OFFCURVE",
"559 363 OFFCURVE",
"538 290 CURVE",
"560 407 OFFCURVE",
"510 510 OFFCURVE",
"392 510 CURVE SMOOTH",
"206 510 OFFCURVE",
"52 342 OFFCURVE",
"52 158 CURVE SMOOTH",
"52 59 OFFCURVE",
"113 -5 OFFCURVE",
"217 -5 CURVE SMOOTH"
);
},
{
closed = 1;
nodes = (
"120 5 OFFCURVE",
"62 65 OFFCURVE",
"62 158 CURVE SMOOTH",
"62 336 OFFCURVE",
"208 500 OFFCURVE",
"392 500 CURVE SMOOTH",
"499 500 OFFCURVE",
"535 419 OFFCURVE",
"535 336 CURVE SMOOTH",
"535 303 OFFCURVE",
"529 262 OFFCURVE",
"516 231 CURVE SMOOTH",
"463 105 OFFCURVE",
"362 5 OFFCURVE",
"217 5 CURVE SMOOTH"
);
},
{
closed = 1;
nodes = (
"681 672 LINE",
"679 680 LINE",
"359 571 LINE",
"361 563 LINE"
);
}
);
width = 617;
},
{
layerId = "5EAB4D72-96CB-4765-AAD5-A13175319428";
paths = (
{
closed = 1;
nodes = (
"392 -6 OFFCURVE",
"527 148 OFFCURVE",
"570 368 CURVE SMOOTH",
"578 408 OFFCURVE",
"582 445 OFFCURVE",
"582 480 CURVE SMOOTH",
"582 621 OFFCURVE",
"510 719 OFFCURVE",
"301 735 CURVE",
"282 655 LINE",
"413 650 OFFCURVE",
"469 594 OFFCURVE",
"469 508 CURVE SMOOTH",
"469 491 OFFCURVE",
"467 461 OFFCURVE",
"463 430 CURVE",
"438 475 OFFCURVE",
"385 496 OFFCURVE",
"330 496 CURVE SMOOTH",
"169 496 OFFCURVE",
"15 346 OFFCURVE",
"15 175 CURVE SMOOTH",
"15 68 OFFCURVE",
"83 -6 OFFCURVE",
"209 -6 CURVE SMOOTH"
);
},
{
closed = 1;
nodes = (
"171 97 OFFCURVE",
"127 124 OFFCURVE",
"127 184 CURVE SMOOTH",
"127 276 OFFCURVE",
"208 398 OFFCURVE",
"337 398 CURVE SMOOTH",
"408 398 OFFCURVE",
"438 358 OFFCURVE",
"438 308 CURVE SMOOTH",
"438 299 OFFCURVE",
"437 290 OFFCURVE",
"435 281 CURVE SMOOTH",
"418 195 OFFCURVE",
"335 97 OFFCURVE",
"225 97 CURVE SMOOTH"
);
},
{
closed = 1;
nodes = (
"590 616 LINE",
"586 668 LINE",
"263 586 LINE",
"268 534 LINE"
);
}
);
width = 582;
},
{
associatedMasterId = "F91D9E91-C1BC-4259-B0D8-112C0CBA2B8E";
layerId = "53751825-CB7B-4971-87F0-7DBD00A65D7B";
paths = (
{
closed = 1;
nodes = (
"415 -5 OFFCURVE",
"531 180 OFFCURVE",
"566 359 CURVE SMOOTH",
"575 403 OFFCURVE",
"579 444 OFFCURVE",
"579 480 CURVE SMOOTH",
"579 628 OFFCURVE",
"495 703 OFFCURVE",
"240 707 CURVE",
"239 697 LINE",
"463 693 OFFCURVE",
"570 636 OFFCURVE",
"570 475 CURVE SMOOTH",
"570 424 OFFCURVE",
"559 363 OFFCURVE",
"538 290 CURVE",
"560 407 OFFCURVE",
"510 510 OFFCURVE",
"392 510 CURVE SMOOTH",
"206 510 OFFCURVE",
"52 342 OFFCURVE",
"52 158 CURVE SMOOTH",
"52 59 OFFCURVE",
"113 -5 OFFCURVE",
"217 -5 CURVE SMOOTH"
);
},
{
closed = 1;
nodes = (
"120 5 OFFCURVE",
"62 65 OFFCURVE",
"62 158 CURVE SMOOTH",
"62 336 OFFCURVE",
"208 500 OFFCURVE",
"392 500 CURVE SMOOTH",
"499 500 OFFCURVE",
"535 419 OFFCURVE",
"535 336 CURVE SMOOTH",
"535 303 OFFCURVE",
"529 262 OFFCURVE",
"516 231 CURVE SMOOTH",
"463 105 OFFCURVE",
"362 5 OFFCURVE",
"217 5 CURVE SMOOTH"
);
},
{
closed = 1;
nodes = (
"681 672 LINE",
"679 680 LINE",
"359 571 LINE",
"361 563 LINE"
);
}
);
width = 617;
},
{
layerId = "D76894BF-AD8F-4700-A820-B81A81AE60D1";
paths = (
{
closed = 1;
nodes = (
"402 -6 OFFCURVE",
"529 163 OFFCURVE",
"568 364 CURVE SMOOTH",
"576 406 OFFCURVE",
"580 443 OFFCURVE",
"580 477 CURVE SMOOTH",
"580 639 OFFCURVE",
"484 697 OFFCURVE",
"272 722 CURVE",
"262 675 LINE",
"424 658 OFFCURVE",
"524 616 OFFCURVE",
"524 479 CURVE SMOOTH",
"524 457 OFFCURVE",
"521 432 OFFCURVE",
"516 405 CURVE",
"497 462 OFFCURVE",
"442 503 OFFCURVE",
"359 503 CURVE SMOOTH",
"186 503 OFFCURVE",
"32 344 OFFCURVE",
"32 167 CURVE SMOOTH",
"32 64 OFFCURVE",
"97 -6 OFFCURVE",
"212 -6 CURVE SMOOTH"
);
},
{
closed = 1;
nodes = (
"147 54 OFFCURVE",
"96 97 OFFCURVE",
"96 172 CURVE SMOOTH",
"96 304 OFFCURVE",
"208 446 OFFCURVE",
"362 446 CURVE SMOOTH",
"450 446 OFFCURVE",
"483 386 OFFCURVE",
"483 321 CURVE SMOOTH",
"483 300 OFFCURVE",
"479 276 OFFCURVE",
"473 258 CURVE SMOOTH",
"439 155 OFFCURVE",
"349 54 OFFCURVE",
"221 54 CURVE SMOOTH"
);
},
{
closed = 1;
nodes = (
"632 639 LINE",
"629 684 LINE",
"308 589 LINE",
"311 545 LINE"
);
}
);
width = 597;
}
);
leftKerningGroup = c;
note = eth;
rightKerningGroup = b;
unicode = 00F0;
},
{
color = 1;
glyphname = e;
lastChange = "2019-05-10 15:35:45 +0000";
layers = (
{
anchors = (
{
name = bottom;
position = "{229, 0}";
},
{
name = ogonek;
position = "{308, 5}";
},
{
name = top;
position = "{317, 493}";
}
);
layerId = "F91D9E91-C1BC-4259-B0D8-112C0CBA2B8E";
paths = (
{
closed = 1;
nodes = (
"304 -5 OFFCURVE",
"353 14 OFFCURVE",
"422 70 CURVE",
"414 78 LINE",
"349 23 OFFCURVE",
"304 5 OFFCURVE",
"229 5 CURVE SMOOTH",
"130 5 OFFCURVE",
"70 67 OFFCURVE",
"70 176 CURVE SMOOTH",
"70 199 OFFCURVE",
"73 224 OFFCURVE",
"78 251 CURVE",
"466 251 LINE",
"476 277 OFFCURVE",
"481 307 OFFCURVE",
"481 335 CURVE SMOOTH",
"481 413 OFFCURVE",
"442 498 OFFCURVE",
"317 498 CURVE SMOOTH",
"167 498 OFFCURVE",
"59 334 OFFCURVE",
"59 176 CURVE SMOOTH",
"59 64 OFFCURVE",
"121 -5 OFFCURVE",
"229 -5 CURVE SMOOTH"
);
},
{
closed = 1;
nodes = (
"110 394 OFFCURVE",
"206 488 OFFCURVE",
"317 488 CURVE SMOOTH",
"435 488 OFFCURVE",
"471 410 OFFCURVE",
"471 336 CURVE SMOOTH",
"471 311 OFFCURVE",
"466 281 OFFCURVE",
"458 258 CURVE",
"463 261 LINE",
"76 261 LINE",
"79 258 LINE"
);
}
);
width = 528;
},
{
anchors = (
{
name = bottom;
position = "{223, 0}";
},
{
name = ogonek;
position = "{333, 11}";
},
{
name = top;
position = "{312, 493}";
}
);
background = {
paths = (
{
closed = 1;
nodes = (
"354 -10 OFFCURVE",
"419 19 OFFCURVE",
"473 79 CURVE",
"390 152 LINE",
"356 113 OFFCURVE",
"316 99 OFFCURVE",
"272 99 CURVE SMOOTH",
"194 99 OFFCURVE",
"154 142 OFFCURVE",
"149 207 CURVE",
"487 207 LINE",
"489 219 OFFCURVE",
"491 234 OFFCURVE",
"491 255 CURVE SMOOTH",
"491 365 OFFCURVE",
"432 503 OFFCURVE",
"263 503 CURVE SMOOTH",
"99 503 OFFCURVE",
"29 373 OFFCURVE",
"29 244 CURVE SMOOTH",
"29 112 OFFCURVE",
"101 -10 OFFCURVE",
"271 -10 CURVE SMOOTH"
);
},
{
closed = 1;
nodes = (
"155 346 OFFCURVE",
"184 402 OFFCURVE",
"262 402 CURVE SMOOTH",
"316 402 OFFCURVE",
"354 373 OFFCURVE",
"367 331 CURVE SMOOTH",
"371 319 OFFCURVE",
"373 307 OFFCURVE",
"373 294 CURVE",
"149 294 LINE"
);
}
);
};
layerId = "5EAB4D72-96CB-4765-AAD5-A13175319428";
paths = (
{
closed = 1;
nodes = (
"307 -10 OFFCURVE",
"376 16 OFFCURVE",
"442 76 CURVE",
"370 156 LINE",
"329 117 OFFCURVE",
"285 99 OFFCURVE",
"238 99 CURVE SMOOTH",
"170 99 OFFCURVE",
"139 130 OFFCURVE",
"139 184 CURVE SMOOTH",
"139 190 OFFCURVE",
"139 196 OFFCURVE",
"140 202 CURVE",
"479 202 LINE",
"487 229 OFFCURVE",
"496 278 OFFCURVE",
"496 312 CURVE SMOOTH",
"496 421 OFFCURVE",
"437 503 OFFCURVE",
"307 503 CURVE SMOOTH",
"140 503 OFFCURVE",
"24 359 OFFCURVE",
"24 188 CURVE SMOOTH",
"24 79 OFFCURVE",
"82 -10 OFFCURVE",
"227 -10 CURVE SMOOTH"
);
},
{
closed = 1;
nodes = (
"159 316 OFFCURVE",
"202 403 OFFCURVE",
"298 403 CURVE SMOOTH",
"354 403 OFFCURVE",
"387 371 OFFCURVE",
"387 326 CURVE SMOOTH",
"387 305 OFFCURVE",
"379 275 OFFCURVE",
"357 254 CURVE",
"434 289 LINE",
"104 289 LINE",
"152 262 LINE"
);
}
);
width = 518;
},
{
anchors = (
{
name = bottom;
position = "{229, 0}";
},
{
name = ogonek;
position = "{308, 5}";
},
{
name = top;
position = "{317, 493}";
}
);
associatedMasterId = "F91D9E91-C1BC-4259-B0D8-112C0CBA2B8E";
layerId = "53751825-CB7B-4971-87F0-7DBD00A65D7B";
paths = (
{
closed = 1;
nodes = (
"304 -5 OFFCURVE",
"353 14 OFFCURVE",
"422 70 CURVE",
"414 78 LINE",
"349 23 OFFCURVE",
"304 5 OFFCURVE",
"229 5 CURVE SMOOTH",
"130 5 OFFCURVE",
"70 67 OFFCURVE",
"70 176 CURVE SMOOTH",
"70 199 OFFCURVE",
"73 224 OFFCURVE",
"78 251 CURVE",
"466 251 LINE",
"476 277 OFFCURVE",
"481 307 OFFCURVE",
"481 335 CURVE SMOOTH",
"481 413 OFFCURVE",
"442 498 OFFCURVE",
"317 498 CURVE SMOOTH",
"167 498 OFFCURVE",
"59 334 OFFCURVE",
"59 176 CURVE SMOOTH",
"59 64 OFFCURVE",
"121 -5 OFFCURVE",
"229 -5 CURVE SMOOTH"
);
},
{
closed = 1;
nodes = (
"112 396 OFFCURVE",
"207 488 OFFCURVE",
"317 488 CURVE SMOOTH",
"435 488 OFFCURVE",
"471 410 OFFCURVE",
"471 336 CURVE SMOOTH",
"471 312 OFFCURVE",
"466 283 OFFCURVE",
"459 261 CURVE",
"80 261 LINE"
);
}
);
width = 528;
},
{
anchors = (
{
name = bottom;
position = "{223, 0}";
},
{
name = ogonek;
position = "{319, 8}";
},
{
name = top;
position = "{312, 493}";
}
);
layerId = "D76894BF-AD8F-4700-A820-B81A81AE60D1";
paths = (
{
closed = 1;
nodes = (
"302 -8 OFFCURVE",
"363 15 OFFCURVE",
"430 73 CURVE",
"388 120 LINE",
"336 73 OFFCURVE",
"291 55 OFFCURVE",
"231 55 CURVE SMOOTH",
"149 55 OFFCURVE",
"104 101 OFFCURVE",
"104 180 CURVE SMOOTH",
"104 196 OFFCURVE",
"106 209 OFFCURVE",
"109 225 CURVE",
"471 225 LINE",
"480 253 OFFCURVE",
"487 293 OFFCURVE",
"487 323 CURVE SMOOTH",
"487 417 OFFCURVE",
"437 501 OFFCURVE",
"309 501 CURVE SMOOTH",
"150 501 OFFCURVE",
"38 347 OFFCURVE",
"38 182 CURVE SMOOTH",
"38 72 OFFCURVE",
"98 -8 OFFCURVE",
"226 -8 CURVE SMOOTH"
);
},
{
closed = 1;
nodes = (
"142 365 OFFCURVE",
"209 439 OFFCURVE",
"305 439 CURVE SMOOTH",
"389 439 OFFCURVE",
"424 389 OFFCURVE",
"424 331 CURVE SMOOTH",
"424 314 OFFCURVE",
"421 293 OFFCURVE",
"414 273 CURVE",
"419 281 LINE",
"115 281 LINE",
"118 273 LINE"
);
}
);
width = 520;
}
);
leftKerningGroup = c;
note = e;
rightKerningGroup = e;
unicode = 0065;
},
{
color = 1;
glyphname = f;
lastChange = "2019-05-10 15:30:21 +0000";
layers = (
{
anchors = (
{
name = bottom;
position = "{101, 0}";
},
{
name = top;
position = "{266, 697}";
}
);
layerId = "F91D9E91-C1BC-4259-B0D8-112C0CBA2B8E";
paths = (
{
closed = 1;
nodes = (
"106 0 LINE",
"200 483 LINE",
"373 483 LINE",
"375 493 LINE",
"202 493 LINE",
"219 580 LINE SMOOTH",
"232 649 OFFCURVE",
"269 692 OFFCURVE",
"353 692 CURVE SMOOTH",
"370 692 OFFCURVE",
"385 687 OFFCURVE",
"403 677 CURVE",
"408 685 LINE",
"391 696 OFFCURVE",
"373 702 OFFCURVE",
"354 702 CURVE SMOOTH",
"272 702 OFFCURVE",
"225 662 OFFCURVE",
"209 580 CURVE SMOOTH",
"192 493 LINE",
"76 493 LINE",
"74 483 LINE",
"190 483 LINE",
"96 0 LINE"
);
}
);
width = 355;
},
{
anchors = (
{
name = bottom;
position = "{110, 0}";
},
{
name = top;
position = "{251, 697}";
}
);
guideLines = (
{
position = "{126, 403}";
}
);
layerId = "5EAB4D72-96CB-4765-AAD5-A13175319428";
paths = (
{
closed = 1;
nodes = (
"170 0 LINE",
"248 403 LINE",
"363 403 LINE",
"381 493 LINE",
"266 493 LINE",
"276 545 LINE SMOOTH",
"279 562 OFFCURVE",
"293 607 OFFCURVE",
"337 607 CURVE SMOOTH",
"350 607 OFFCURVE",
"363 604 OFFCURVE",
"373 597 CURVE",
"425 685 LINE",
"400 697 OFFCURVE",
"373 707 OFFCURVE",
"332 707 CURVE SMOOTH",
"257 707 OFFCURVE",
"184 679 OFFCURVE",
"159 554 CURVE SMOOTH",
"147 493 LINE",
"52 493 LINE",
"34 403 LINE",
"128 403 LINE",
"50 0 LINE"
);
}
);
width = 329;
},
{
anchors = (
{
name = bottom;
position = "{101, 0}";
},
{
name = top;
position = "{266, 697}";
}
);
associatedMasterId = "F91D9E91-C1BC-4259-B0D8-112C0CBA2B8E";
layerId = "53751825-CB7B-4971-87F0-7DBD00A65D7B";
paths = (
{
closed = 1;
nodes = (
"106 0 LINE",
"200 483 LINE",
"373 483 LINE",
"375 493 LINE",
"202 493 LINE",
"219 580 LINE SMOOTH",
"233 651 OFFCURVE",
"271 692 OFFCURVE",
"353 692 CURVE SMOOTH",
"370 692 OFFCURVE",
"385 687 OFFCURVE",
"403 677 CURVE",
"408 685 LINE",
"391 696 OFFCURVE",
"373 702 OFFCURVE",
"354 702 CURVE SMOOTH",
"272 702 OFFCURVE",
"225 662 OFFCURVE",
"209 580 CURVE SMOOTH",
"192 493 LINE",
"76 493 LINE",
"74 483 LINE",
"190 483 LINE",
"96 0 LINE"
);
}
);
width = 355;
},
{
anchors = (
{
name = bottom;
position = "{101, 0}";
},
{
name = top;
position = "{253, 697}";
}
);
layerId = "D76894BF-AD8F-4700-A820-B81A81AE60D1";
paths = (
{
closed = 1;
nodes = (
"135 0 LINE",
"221 440 LINE",
"363 440 LINE",
"374 493 LINE",
"231 493 LINE",
"245 561 LINE SMOOTH",
"254 605 OFFCURVE",
"279 647 OFFCURVE",
"340 647 CURVE SMOOTH",
"354 647 OFFCURVE",
"368 643 OFFCURVE",
"382 634 CURVE",
"412 685 LINE",
"392 696 OFFCURVE",
"369 705 OFFCURVE",
"338 705 CURVE SMOOTH",
"252 705 OFFCURVE",
"198 663 OFFCURVE",
"178 566 CURVE SMOOTH",
"163 493 LINE",
"59 493 LINE",
"48 440 LINE",
"152 440 LINE",
"67 0 LINE"
);
}
);
width = 336;
}
);
leftKerningGroup = f;
note = f;
rightKerningGroup = f;
unicode = 0066;
},
{
color = 1;
glyphname = g;
lastChange = "2019-05-10 15:39:21 +0000";
layers = (
{
anchors = (
{
name = bottom;
position = "{155, -254}";
},
{
name = top;
position = "{300, 493}";
}
);
layerId = "F91D9E91-C1BC-4259-B0D8-112C0CBA2B8E";
paths = (
{
closed = 1;
nodes = (
"293 -210 OFFCURVE",
"396 -164 OFFCURVE",
"396 -65 CURVE SMOOTH",
"396 77 OFFCURVE",
"57 2 OFFCURVE",
"57 123 CURVE SMOOTH",
"57 165 OFFCURVE",
"87 198 OFFCURVE",
"139 220 CURVE",
"136 230 LINE",
"84 208 OFFCURVE",
"47 173 OFFCURVE",
"47 123 CURVE SMOOTH",
"47 -10 OFFCURVE",
"387 67 OFFCURVE",
"387 -66 CURVE SMOOTH",
"387 -156 OFFCURVE",
"289 -200 OFFCURVE",
"178 -200 CURVE SMOOTH",
"71 -200 OFFCURVE",
"6 -161 OFFCURVE",
"6 -90 CURVE SMOOTH",
"6 -83 OFFCURVE",
"10 -54 OFFCURVE",
"14 -44 CURVE",
"128 49 LINE",
"115 53 LINE",
"4 -40 LINE",
"1 -53 OFFCURVE",
"-4 -76 OFFCURVE",
"-4 -90 CURVE SMOOTH",
"-4 -167 OFFCURVE",
"66 -210 OFFCURVE",
"178 -210 CURVE SMOOTH"
);
},
{
closed = 1;
nodes = (
"356 184 OFFCURVE",
"447 263 OFFCURVE",
"447 371 CURVE SMOOTH",
"447 447 OFFCURVE",
"394 498 OFFCURVE",
"306 498 CURVE SMOOTH",
"195 498 OFFCURVE",
"101 415 OFFCURVE",
"101 307 CURVE SMOOTH",
"101 233 OFFCURVE",
"156 184 OFFCURVE",
"246 184 CURVE SMOOTH"
);
},
{
closed = 1;
nodes = (
"162 194 OFFCURVE",
"111 240 OFFCURVE",
"111 308 CURVE SMOOTH",
"111 407 OFFCURVE",
"198 488 OFFCURVE",
"306 488 CURVE SMOOTH",
"387 488 OFFCURVE",
"437 441 OFFCURVE",
"437 371 CURVE SMOOTH",
"437 268 OFFCURVE",
"351 194 OFFCURVE",
"246 194 CURVE SMOOTH"
);
},
{
closed = 1;
nodes = (
"503 493 LINE",
"498 501 LINE",
"422 442 LINE",
"428 435 LINE"
);
}
);
width = 503;
},
{
anchors = (
{
name = bottom;
position = "{159, -254}";
},
{
name = top;
position = "{305, 493}";
}
);
background = {
components = (
{
name = p;
}
);
};
layerId = "5EAB4D72-96CB-4765-AAD5-A13175319428";
paths = (
{
closed = 1;
nodes = (
"303 -214 OFFCURVE",
"419 -165 OFFCURVE",
"419 -56 CURVE SMOOTH",
"419 118 OFFCURVE",
"122 32 OFFCURVE",
"122 116 CURVE SMOOTH",
"122 141 OFFCURVE",
"149 161 OFFCURVE",
"189 167 CURVE",
"130 240 LINE",
"72 212 OFFCURVE",
"17 167 OFFCURVE",
"17 95 CURVE SMOOTH",
"17 -70 OFFCURVE",
"298 15 OFFCURVE",
"298 -73 CURVE SMOOTH",
"298 -106 OFFCURVE",
"259 -131 OFFCURVE",
"177 -131 CURVE SMOOTH",
"113 -131 OFFCURVE",
"77 -116 OFFCURVE",
"77 -83 CURVE SMOOTH",
"77 -74 OFFCURVE",
"80 -69 OFFCURVE",
"81 -65 CURVE",
"190 27 LINE",
"121 51 LINE",
"-32 -31 LINE",
"-36 -49 OFFCURVE",
"-39 -61 OFFCURVE",
"-39 -79 CURVE SMOOTH",
"-39 -168 OFFCURVE",
"36 -214 OFFCURVE",
"167 -214 CURVE SMOOTH"
);
},
{
closed = 1;
nodes = (
"366 136 OFFCURVE",
"473 226 OFFCURVE",
"473 343 CURVE SMOOTH",
"473 441 OFFCURVE",
"398 503 OFFCURVE",
"297 503 CURVE SMOOTH",
"172 503 OFFCURVE",
"63 411 OFFCURVE",
"63 296 CURVE SMOOTH",
"63 203 OFFCURVE",
"135 136 OFFCURVE",
"242 136 CURVE SMOOTH"
);
},
{
closed = 1;
nodes = (
"203 234 OFFCURVE",
"181 258 OFFCURVE",
"181 294 CURVE SMOOTH",
"181 347 OFFCURVE",
"228 403 OFFCURVE",
"293 403 CURVE SMOOTH",
"332 403 OFFCURVE",
"355 382 OFFCURVE",
"355 343 CURVE SMOOTH",
"355 290 OFFCURVE",
"311 234 OFFCURVE",
"246 234 CURVE SMOOTH"
);
},
{
closed = 1;
nodes = (
"548 460 LINE",
"498 536 LINE",
"382 449 LINE",
"453 392 LINE"
);
}
);
width = 512;
},
{
anchors = (
{
name = bottom;
position = "{155, -254}";
},
{
name = top;
position = "{300, 493}";
}
);
associatedMasterId = "F91D9E91-C1BC-4259-B0D8-112C0CBA2B8E";
layerId = "53751825-CB7B-4971-87F0-7DBD00A65D7B";
paths = (
{
closed = 1;
nodes = (
"293 -210 OFFCURVE",
"396 -164 OFFCURVE",
"396 -65 CURVE SMOOTH",
"396 77 OFFCURVE",
"57 2 OFFCURVE",
"57 123 CURVE SMOOTH",
"57 165 OFFCURVE",
"87 198 OFFCURVE",
"139 220 CURVE",
"136 230 LINE",
"84 208 OFFCURVE",
"47 173 OFFCURVE",
"47 123 CURVE SMOOTH",
"47 -10 OFFCURVE",
"387 67 OFFCURVE",
"387 -66 CURVE SMOOTH",
"387 -156 OFFCURVE",
"289 -200 OFFCURVE",
"178 -200 CURVE SMOOTH",
"71 -200 OFFCURVE",
"6 -161 OFFCURVE",
"6 -90 CURVE SMOOTH",
"6 -83 OFFCURVE",
"10 -54 OFFCURVE",
"14 -44 CURVE",
"128 49 LINE",
"115 53 LINE",
"4 -40 LINE",
"1 -53 OFFCURVE",
"-4 -76 OFFCURVE",
"-4 -90 CURVE SMOOTH",
"-4 -167 OFFCURVE",
"66 -210 OFFCURVE",
"178 -210 CURVE SMOOTH"
);
},
{
closed = 1;
nodes = (
"356 184 OFFCURVE",
"447 263 OFFCURVE",
"447 371 CURVE SMOOTH",
"447 447 OFFCURVE",
"394 498 OFFCURVE",
"306 498 CURVE SMOOTH",
"195 498 OFFCURVE",
"101 415 OFFCURVE",
"101 307 CURVE SMOOTH",
"101 233 OFFCURVE",
"156 184 OFFCURVE",
"246 184 CURVE SMOOTH"
);
},
{
closed = 1;
nodes = (
"162 194 OFFCURVE",
"111 240 OFFCURVE",
"111 308 CURVE SMOOTH",
"111 407 OFFCURVE",
"198 488 OFFCURVE",
"306 488 CURVE SMOOTH",
"387 488 OFFCURVE",
"437 441 OFFCURVE",
"437 371 CURVE SMOOTH",
"437 268 OFFCURVE",
"351 194 OFFCURVE",
"246 194 CURVE SMOOTH"
);
},
{
closed = 1;
nodes = (
"503 493 LINE",
"498 501 LINE",
"422 442 LINE",
"428 435 LINE"
);
}
);
width = 503;
},
{
anchors = (
{
name = bottom;
position = "{157, -254}";
},
{
name = top;
position = "{302, 493}";
}
);
layerId = "D76894BF-AD8F-4700-A820-B81A81AE60D1";
paths = (
{
closed = 1;
nodes = (
"300 -212 OFFCURVE",
"408 -162 OFFCURVE",
"408 -63 CURVE SMOOTH",
"408 104 OFFCURVE",
"99 16 OFFCURVE",
"99 122 CURVE SMOOTH",
"99 157 OFFCURVE",
"133 180 OFFCURVE",
"173 192 CURVE",
"132 235 LINE",
"77 210 OFFCURVE",
"31 170 OFFCURVE",
"31 111 CURVE SMOOTH",
"31 -43 OFFCURVE",
"339 40 OFFCURVE",
"339 -73 CURVE SMOOTH",
"339 -129 OFFCURVE",
"263 -154 OFFCURVE",
"174 -154 CURVE SMOOTH",
"102 -154 OFFCURVE",
"45 -138 OFFCURVE",
"45 -83 CURVE SMOOTH",
"45 -76 OFFCURVE",
"46 -66 OFFCURVE",
"49 -55 CURVE",
"161 37 LINE",
"118 52 LINE",
"-16 -35 LINE",
"-21 -54 OFFCURVE",
"-24 -71 OFFCURVE",
"-24 -88 CURVE SMOOTH",
"-24 -171 OFFCURVE",
"52 -212 OFFCURVE",
"170 -212 CURVE SMOOTH"
);
},
{
closed = 1;
nodes = (
"361 158 OFFCURVE",
"461 244 OFFCURVE",
"461 356 CURVE SMOOTH",
"461 444 OFFCURVE",
"395 501 OFFCURVE",
"300 501 CURVE SMOOTH",
"179 501 OFFCURVE",
"80 409 OFFCURVE",
"80 303 CURVE SMOOTH",
"80 217 OFFCURVE",
"145 158 OFFCURVE",
"244 158 CURVE SMOOTH"
);
},
{
closed = 1;
nodes = (
"184 215 OFFCURVE",
"148 250 OFFCURVE",
"148 303 CURVE SMOOTH",
"148 374 OFFCURVE",
"214 443 OFFCURVE",
"299 443 CURVE SMOOTH",
"357 443 OFFCURVE",
"393 410 OFFCURVE",
"393 354 CURVE SMOOTH",
"393 280 OFFCURVE",
"329 215 OFFCURVE",
"245 215 CURVE SMOOTH"
);
},
{
closed = 1;
nodes = (
"527 475 LINE",
"498 520 LINE",
"400 446 LINE",
"441 412 LINE"
);
}
);
width = 509;
}
);
leftKerningGroup = c;
note = g;
rightKerningGroup = g;
unicode = 0067;
},
{
color = 1;
glyphname = h;
lastChange = "2019-05-10 16:44:45 +0000";
layers = (
{
anchors = (
{
name = bottom;
position = "{223, 0}";
},
{
name = center;
position = "{247, 608}";
},
{
name = top;
position = "{196, 697}";
}
);
layerId = "F91D9E91-C1BC-4259-B0D8-112C0CBA2B8E";
paths = (
{
closed = 1;
nodes = (
"65 0 LINE",
"116 263 LINE SMOOTH",
"146 419 OFFCURVE",
"227 488 OFFCURVE",
"328 488 CURVE SMOOTH",
"427 488 OFFCURVE",
"464 427 OFFCURVE",
"438 293 CURVE SMOOTH",
"381 0 LINE",
"391 0 LINE",
"448 295 LINE SMOOTH",
"476 438 OFFCURVE",
"424 498 OFFCURVE",
"325 498 CURVE SMOOTH",
"243 498 OFFCURVE",
"174 454 OFFCURVE",
"134 356 CURVE",
"134 355 LINE",
"201 697 LINE",
"191 697 LINE",
"55 0 LINE"
);
}
);
width = 530;
},
{
anchors = (
{
name = bottom;
position = "{248, 0}";
},
{
name = center;
position = "{252, 608}";
},
{
name = top;
position = "{219, 697}";
}
);
layerId = "5EAB4D72-96CB-4765-AAD5-A13175319428";
paths = (
{
closed = 1;
nodes = (
"143 0 LINE",
"180 192 LINE SMOOTH",
"197 280 OFFCURVE",
"223 398 OFFCURVE",
"338 398 CURVE SMOOTH",
"426 398 OFFCURVE",
"410 327 OFFCURVE",
"403 293 CURVE SMOOTH",
"346 0 LINE",
"466 0 LINE",
"525 303 LINE SMOOTH",
"545 408 OFFCURVE",
"509 503 OFFCURVE",
"382 503 CURVE SMOOTH",
"316 503 OFFCURVE",
"248 480 OFFCURVE",
"201 406 CURVE",
"216 387 LINE",
"279 697 LINE",
"159 697 LINE",
"23 0 LINE"
);
}
);
width = 571;
},
{
anchors = (
{
name = bottom;
position = "{223, 0}";
},
{
name = center;
position = "{247, 608}";
},
{
name = top;
position = "{196, 697}";
}
);
associatedMasterId = "F91D9E91-C1BC-4259-B0D8-112C0CBA2B8E";
layerId = "53751825-CB7B-4971-87F0-7DBD00A65D7B";
paths = (
{
closed = 1;
nodes = (
"65 0 LINE",
"116 263 LINE SMOOTH",
"146 419 OFFCURVE",
"225 488 OFFCURVE",
"328 488 CURVE SMOOTH",
"425 488 OFFCURVE",
"464 427 OFFCURVE",
"438 293 CURVE SMOOTH",
"381 0 LINE",
"391 0 LINE",
"448 295 LINE SMOOTH",
"476 438 OFFCURVE",
"426 498 OFFCURVE",
"325 498 CURVE SMOOTH",
"244 498 OFFCURVE",
"176 455 OFFCURVE",
"135 359 CURVE",
"201 697 LINE",
"191 697 LINE",
"55 0 LINE"
);
}
);
width = 530;
},
{
anchors = (
{
name = bottom;
position = "{235, 0}";
},
{
name = center;
position = "{249, 608}";
},
{
name = top;
position = "{207, 697}";
}
);
background = {
paths = (
{
closed = 1;
nodes = (
"106 0 LINE",
"149 225 LINE SMOOTH",
"172 345 OFFCURVE",
"224 440 OFFCURVE",
"332 440 CURVE SMOOTH",
"399 440 OFFCURVE",
"425 405 OFFCURVE",
"425 350 CURVE SMOOTH",
"425 329 OFFCURVE",
"421 309 OFFCURVE",
"418 293 CURVE SMOOTH",
"361 0 LINE",
"430 0 LINE",
"488 299 LINE SMOOTH",
"490 309 OFFCURVE",
"495 336 OFFCURVE",
"495 363 CURVE SMOOTH",
"495 447 OFFCURVE",
"446 501 OFFCURVE",
"352 501 CURVE SMOOTH",
"285 501 OFFCURVE",
"207 474 OFFCURVE",
"161 399 CURVE",
"182 398 LINE",
"202 493 LINE",
"133 493 LINE",
"37 0 LINE"
);
}
);
};
layerId = "D76894BF-AD8F-4700-A820-B81A81AE60D1";
paths = (
{
closed = 1;
nodes = (
"106 0 LINE",
"149 225 LINE SMOOTH",
"172 345 OFFCURVE",
"223 440 OFFCURVE",
"332 440 CURVE SMOOTH",
"444 440 OFFCURVE",
"427 338 OFFCURVE",
"418 293 CURVE SMOOTH",
"361 0 LINE",
"430 0 LINE",
"488 299 LINE SMOOTH",
"512 422 OFFCURVE",
"465 501 OFFCURVE",
"351 501 CURVE SMOOTH",
"285 501 OFFCURVE",
"207 474 OFFCURVE",
"161 399 CURVE",
"182 398 LINE",
"242 697 LINE",
"173 697 LINE",
"37 0 LINE"
);
}
);
width = 549;
}
);
leftKerningGroup = b;
note = h;
rightKerningGroup = h;
unicode = 0068;
},
{
color = 1;
glyphname = idotless;
lastChange = "2019-05-10 16:44:51 +0000";
layers = (
{
anchors = (
{
name = bottom;
position = "{60, 0}";
},
{
name = ogonek;
position = "{65, 0}";
},
{
name = top;
position = "{156, 493}";
}
);
layerId = "F91D9E91-C1BC-4259-B0D8-112C0CBA2B8E";
paths = (
{
closed = 1;
nodes = (
"65 0 LINE",
"161 493 LINE",
"151 493 LINE",
"55 0 LINE"
);
}
);
width = 216;
},
{
anchors = (
{
name = bottom;
position = "{82, 0}";
},
{
name = ogonek;
position = "{142, 0}";
},
{
name = top;
position = "{178, 493}";
}
);
layerId = "5EAB4D72-96CB-4765-AAD5-A13175319428";
paths = (
{
closed = 1;
nodes = (
"142 0 LINE",
"238 493 LINE",
"118 493 LINE",
"22 0 LINE"
);
}
);
width = 260;
},
{
anchors = (
{
name = bottom;
position = "{60, 0}";
},
{
name = ogonek;
position = "{65, 0}";
},
{
name = top;
position = "{156, 493}";
}
);
associatedMasterId = "F91D9E91-C1BC-4259-B0D8-112C0CBA2B8E";
layerId = "53751825-CB7B-4971-87F0-7DBD00A65D7B";
paths = (
{
closed = 1;
nodes = (
"65 0 LINE",
"161 493 LINE",
"151 493 LINE",
"55 0 LINE"
);
}
);
width = 216;
},
{
anchors = (
{
name = bottom;
position = "{71, 0}";
},
{
name = ogonek;
position = "{106, 0}";
},
{
name = top;
position = "{167, 493}";
}
);
layerId = "D76894BF-AD8F-4700-A820-B81A81AE60D1";
paths = (
{
closed = 1;
nodes = (
"106 0 LINE",
"202 493 LINE",
"133 493 LINE",
"37 0 LINE"
);
}
);
width = 239;
}
);
leftKerningGroup = i;
note = dotlessi;
rightKerningGroup = i;
unicode = 0131;
},
{
color = 1;
glyphname = jdotless;
lastChange = "2019-05-10 16:44:51 +0000";
layers = (
{
anchors = (
{
name = bottom;
position = "{1, -303}";
},
{
name = top;
position = "{156, 493}";
}
);
guideLines = (
{
position = "{206, -204}";
}
);
layerId = "F91D9E91-C1BC-4259-B0D8-112C0CBA2B8E";
paths = (
{
closed = 1;
nodes = (
"2 -209 OFFCURVE",
"30 -180 OFFCURVE",
"43 -114 CURVE SMOOTH",
"161 493 LINE",
"151 493 LINE",
"33 -114 LINE SMOOTH",
"21 -174 OFFCURVE",
"-4 -200 OFFCURVE",
"-45 -200 CURVE SMOOTH",
"-59 -200 OFFCURVE",
"-77 -196 OFFCURVE",
"-97 -188 CURVE",
"-100 -198 LINE",
"-79 -205 OFFCURVE",
"-60 -209 OFFCURVE",
"-44 -209 CURVE SMOOTH"
);
}
);
width = 216;
},
{
anchors = (
{
name = bottom;
position = "{24, -303}";
},
{
name = top;
position = "{179, 493}";
}
);
background = {
paths = (
{
closed = 1;
nodes = (
"146 -214 OFFCURVE",
"191 -182 OFFCURVE",
"191 -86 CURVE SMOOTH",
"191 493 LINE",
"71 493 LINE",
"71 -73 LINE SMOOTH",
"71 -95 OFFCURVE",
"58 -104 OFFCURVE",
"36 -104 CURVE SMOOTH",
"25 -104 OFFCURVE",
"12 -102 OFFCURVE",
"-2 -98 CURVE",
"-2 -199 LINE",
"28 -208 OFFCURVE",
"58 -214 OFFCURVE",
"83 -214 CURVE SMOOTH"
);
}
);
};
guideLines = (
{
position = "{206, -204}";
}
);
layerId = "5EAB4D72-96CB-4765-AAD5-A13175319428";
paths = (
{
closed = 1;
nodes = (
"52 -214 OFFCURVE",
"108 -179 OFFCURVE",
"125 -91 CURVE SMOOTH",
"239 493 LINE",
"119 493 LINE",
"9 -73 LINE SMOOTH",
"5 -95 OFFCURVE",
"-17 -109 OFFCURVE",
"-39 -109 CURVE SMOOTH",
"-47 -109 OFFCURVE",
"-60 -108 OFFCURVE",
"-73 -104 CURVE",
"-86 -197 LINE",
"-60 -207 OFFCURVE",
"-35 -214 OFFCURVE",
"-9 -214 CURVE SMOOTH"
);
}
);
width = 262;
},
{
anchors = (
{
name = bottom;
position = "{1, -303}";
},
{
name = top;
position = "{156, 493}";
}
);
associatedMasterId = "F91D9E91-C1BC-4259-B0D8-112C0CBA2B8E";
guideLines = (
{
position = "{206, -204}";
}
);
layerId = "53751825-CB7B-4971-87F0-7DBD00A65D7B";
paths = (
{
closed = 1;
nodes = (
"2 -209 OFFCURVE",
"30 -180 OFFCURVE",
"43 -114 CURVE SMOOTH",
"161 493 LINE",
"151 493 LINE",
"33 -114 LINE SMOOTH",
"21 -174 OFFCURVE",
"-4 -200 OFFCURVE",
"-45 -200 CURVE SMOOTH",
"-59 -200 OFFCURVE",
"-77 -196 OFFCURVE",
"-97 -188 CURVE",
"-100 -198 LINE",
"-79 -205 OFFCURVE",
"-60 -209 OFFCURVE",
"-44 -209 CURVE SMOOTH"
);
}
);
width = 216;
},
{
anchors = (
{
name = bottom;
position = "{12, -303}";
},
{
name = top;
position = "{167, 493}";
}
);
guideLines = (
{
position = "{205, -204}";
}
);
layerId = "D76894BF-AD8F-4700-A820-B81A81AE60D1";
paths = (
{
closed = 1;
nodes = (
"28 -212 OFFCURVE",
"70 -179 OFFCURVE",
"85 -102 CURVE SMOOTH",
"201 493 LINE",
"132 493 LINE",
"19 -92 LINE SMOOTH",
"11 -132 OFFCURVE",
"-12 -151 OFFCURVE",
"-43 -151 CURVE SMOOTH",
"-55 -151 OFFCURVE",
"-69 -149 OFFCURVE",
"-86 -143 CURVE",
"-94 -197 LINE",
"-70 -206 OFFCURVE",
"-48 -212 OFFCURVE",
"-27 -212 CURVE SMOOTH"
);
}
);
width = 238;
}
);
note = uni0237;
unicode = 0237;
},
{
color = 1;
glyphname = k;
lastChange = "2019-05-10 16:44:51 +0000";
layers = (
{
anchors = (
{
name = bottom;
position = "{246, 0}";
},
{
name = top;
position = "{196, 697}";
}
);
layerId = "F91D9E91-C1BC-4259-B0D8-112C0CBA2B8E";
paths = (
{
closed = 1;
nodes = (
"65 0 LINE",
"94 147 LINE",
"281 307 LINE",
"426 0 LINE",
"438 0 LINE",
"289 315 LINE",
"497 493 LINE",
"482 493 LINE",
"96 162 LINE",
"201 697 LINE",
"191 697 LINE",
"55 0 LINE"
);
}
);
width = 520;
},
{
anchors = (
{
name = bottom;
position = "{253, 0}";
},
{
name = top;
position = "{364, 707}";
}
);
layerId = "5EAB4D72-96CB-4765-AAD5-A13175319428";
paths = (
{
closed = 1;
nodes = (
"143 0 LINE",
"172 144 LINE",
"265 228 LINE",
"364 0 LINE",
"505 0 LINE",
"360 302 LINE",
"582 493 LINE",
"419 493 LINE",
"199 293 LINE",
"279 697 LINE",
"159 697 LINE",
"23 0 LINE"
);
}
);
width = 548;
},
{
anchors = (
{
name = bottom;
position = "{246, 0}";
},
{
name = top;
position = "{196, 697}";
}
);
associatedMasterId = "F91D9E91-C1BC-4259-B0D8-112C0CBA2B8E";
layerId = "53751825-CB7B-4971-87F0-7DBD00A65D7B";
paths = (
{
closed = 1;
nodes = (
"65 0 LINE",
"94 147 LINE",
"281 307 LINE",
"426 0 LINE",
"438 0 LINE",
"289 315 LINE",
"497 493 LINE",
"482 493 LINE",
"96 162 LINE",
"201 697 LINE",
"191 697 LINE",
"55 0 LINE"
);
}
);
width = 520;
},
{
anchors = (
{
name = bottom;
position = "{249, 0}";
},
{
name = top;
position = "{285, 702}";
}
);
layerId = "D76894BF-AD8F-4700-A820-B81A81AE60D1";
paths = (
{
closed = 1;
nodes = (
"106 0 LINE",
"135 145 LINE",
"272 265 LINE",
"392 0 LINE",
"473 0 LINE",
"326 308 LINE",
"541 493 LINE",
"447 493 LINE",
"150 232 LINE",
"242 697 LINE",
"173 697 LINE",
"37 0 LINE"
);
}
);
width = 533;
}
);
leftKerningGroup = b;
note = k;
rightKerningGroup = k;
unicode = 006B;
},
{
color = 1;
glyphname = kgreenlandic;
lastChange = "2019-05-10 16:44:51 +0000";
layers = (
{
anchors = (
{
name = bottom;
position = "{212, 0}";
},
{
name = top;
position = "{308, 493}";
}
);
layerId = "F91D9E91-C1BC-4259-B0D8-112C0CBA2B8E";
paths = (
{
closed = 1;
nodes = (
"65 0 LINE",
"94 147 LINE",
"281 307 LINE",
"426 0 LINE",
"438 0 LINE",
"289 315 LINE",
"497 493 LINE",
"482 493 LINE",
"96 162 LINE",
"161 493 LINE",
"151 493 LINE",
"55 0 LINE"
);
}
);
width = 520;
},
{
anchors = (
{
name = bottom;
position = "{226, 0}";
},
{
name = top;
position = "{322, 493}";
}
);
layerId = "5EAB4D72-96CB-4765-AAD5-A13175319428";
paths = (
{
closed = 1;
nodes = (
"142 0 LINE",
"171 144 LINE",
"264 228 LINE",
"363 0 LINE",
"504 0 LINE",
"359 302 LINE",
"581 493 LINE",
"423 493 LINE",
"197 288 LINE",
"238 493 LINE",
"118 493 LINE",
"22 0 LINE"
);
}
);
width = 547;
},
{
anchors = (
{
name = bottom;
position = "{212, 0}";
},
{
name = top;
position = "{308, 493}";
}
);
associatedMasterId = "F91D9E91-C1BC-4259-B0D8-112C0CBA2B8E";
layerId = "53751825-CB7B-4971-87F0-7DBD00A65D7B";
paths = (
{
closed = 1;
nodes = (
"65 0 LINE",
"94 147 LINE",
"281 307 LINE",
"426 0 LINE",
"438 0 LINE",
"289 315 LINE",
"497 493 LINE",
"482 493 LINE",
"96 162 LINE",
"161 493 LINE",
"151 493 LINE",
"55 0 LINE"
);
}
);
width = 520;
},
{
anchors = (
{
name = bottom;
position = "{219, 0}";
},
{
name = top;
position = "{315, 493}";
}
);
layerId = "D76894BF-AD8F-4700-A820-B81A81AE60D1";
paths = (
{
closed = 1;
nodes = (
"106 0 LINE",
"135 145 LINE",
"272 265 LINE",
"392 0 LINE",
"473 0 LINE",
"326 308 LINE",
"541 493 LINE",
"450 493 LINE",
"149 229 LINE",
"202 493 LINE",
"133 493 LINE",
"37 0 LINE"
);
}
);
width = 533;
}
);
note = kgreenlandic;
unicode = 0138;
},
{
color = 1;
glyphname = l;
lastChange = "2019-05-10 16:18:20 +0000";
layers = (
{
anchors = (
{
name = bottom;
position = "{114, 0}";
},
{
name = center;
position = "{161, 417}";
},
{
name = top;
position = "{194, 697}";
},
{
name = topright;
position = "{272, 493}";
}
);
layerId = "F91D9E91-C1BC-4259-B0D8-112C0CBA2B8E";
paths = (
{
closed = 1;
nodes = (
"137 -5 OFFCURVE",
"158 -1 OFFCURVE",
"182 6 CURVE",
"181 16 LINE",
"158 8 OFFCURVE",
"138 4 OFFCURVE",
"123 4 CURVE SMOOTH",
"83 4 OFFCURVE",
"69 30 OFFCURVE",
"81 90 CURVE SMOOTH",
"199 697 LINE",
"189 697 LINE",
"71 90 LINE SMOOTH",
"58 24 OFFCURVE",
"75 -5 OFFCURVE",
"122 -5 CURVE SMOOTH"
);
}
);
width = 257;
},
{
anchors = (
{
name = bottom;
position = "{124, 0}";
},
{
name = center;
position = "{146, 351}";
},
{
name = top;
position = "{213, 697}";
},
{
name = topright;
position = "{354, 493}";
}
);
layerId = "5EAB4D72-96CB-4765-AAD5-A13175319428";
paths = (
{
closed = 1;
nodes = (
"157 -10 OFFCURVE",
"184 -7 OFFCURVE",
"213 3 CURVE",
"227 102 LINE",
"213 98 OFFCURVE",
"199 95 OFFCURVE",
"185 95 CURVE SMOOTH",
"166 95 OFFCURVE",
"157 99 OFFCURVE",
"161 121 CURVE SMOOTH",
"273 697 LINE",
"153 697 LINE",
"41 123 LINE SMOOTH",
"24 35 OFFCURVE",
"67 -10 OFFCURVE",
"137 -10 CURVE SMOOTH"
);
}
);
width = 277;
},
{
anchors = (
{
name = bottom;
position = "{80, 0}";
},
{
name = center;
position = "{161, 417}";
},
{
name = top;
position = "{194, 697}";
},
{
name = topright;
position = "{272, 493}";
}
);
associatedMasterId = "F91D9E91-C1BC-4259-B0D8-112C0CBA2B8E";
layerId = "53751825-CB7B-4971-87F0-7DBD00A65D7B";
paths = (
{
closed = 1;
nodes = (
"137 -5 OFFCURVE",
"158 -1 OFFCURVE",
"182 6 CURVE",
"181 16 LINE",
"158 8 OFFCURVE",
"138 4 OFFCURVE",
"123 4 CURVE SMOOTH",
"83 4 OFFCURVE",
"69 30 OFFCURVE",
"81 90 CURVE SMOOTH",
"199 697 LINE",
"189 697 LINE",
"71 90 LINE SMOOTH",
"58 24 OFFCURVE",
"75 -5 OFFCURVE",
"122 -5 CURVE SMOOTH"
);
}
);
width = 257;
},
{
anchors = (
{
name = bottom;
position = "{115, 0}";
},
{
name = center;
position = "{146, 381}";
},
{
name = top;
position = "{202, 697}";
},
{
name = topright;
position = "{314, 493}";
}
);
layerId = "D76894BF-AD8F-4700-A820-B81A81AE60D1";
paths = (
{
closed = 1;
nodes = (
"146 -8 OFFCURVE",
"170 -4 OFFCURVE",
"197 4 CURVE",
"204 62 LINE",
"185 56 OFFCURVE",
"169 53 OFFCURVE",
"154 53 CURVE SMOOTH",
"125 53 OFFCURVE",
"114 67 OFFCURVE",
"122 107 CURVE SMOOTH",
"236 697 LINE",
"168 697 LINE",
"53 108 LINE SMOOTH",
"38 30 OFFCURVE",
"69 -8 OFFCURVE",
"128 -8 CURVE SMOOTH"
);
}
);
width = 256;
}
);
leftKerningGroup = b;
note = l;
rightKerningGroup = d;
unicode = 006C;
},
{
color = 1;
glyphname = m;
lastChange = "2019-05-10 16:44:50 +0000";
layers = (
{
anchors = (
{
name = bottom;
position = "{361, 0}";
},
{
name = top;
position = "{457, 493}";
}
);
background = {
paths = (
{
closed = 1;
nodes = (
"169 0 LINE",
"169 251 LINE SMOOTH",
"169 345 OFFCURVE",
"214 448 OFFCURVE",
"299 448 CURVE SMOOTH",
"388 448 OFFCURVE",
"408 363 OFFCURVE",
"408 294 CURVE SMOOTH",
"408 0 LINE",
"470 0 LINE",
"470 271 LINE SMOOTH",
"470 355 OFFCURVE",
"515 448 OFFCURVE",
"599 448 CURVE SMOOTH",
"689 448 OFFCURVE",
"710 360 OFFCURVE",
"710 292 CURVE SMOOTH",
"710 0 LINE",
"772 0 LINE",
"772 297 LINE SMOOTH",
"772 407 OFFCURVE",
"725 498 OFFCURVE",
"605 498 CURVE SMOOTH",
"535 498 OFFCURVE",
"485 459 OFFCURVE",
"456 392 CURVE",
"434 465 OFFCURVE",
"375 498 OFFCURVE",
"304 498 CURVE SMOOTH",
"239 498 OFFCURVE",
"186 454 OFFCURVE",
"169 406 CURVE",
"169 488 LINE",
"107 488 LINE",
"107 0 LINE"
);
}
);
};
layerId = "F91D9E91-C1BC-4259-B0D8-112C0CBA2B8E";
paths = (
{
closed = 1;
nodes = (
"66 0 LINE",
"123 293 LINE SMOOTH",
"147 418 OFFCURVE",
"226 488 OFFCURVE",
"315 488 CURVE SMOOTH",
"388 488 OFFCURVE",
"426 450 OFFCURVE",
"426 368 CURVE SMOOTH",
"426 344 OFFCURVE",
"423 319 OFFCURVE",
"418 293 CURVE SMOOTH",
"361 0 LINE",
"372 0 LINE",
"429 293 LINE SMOOTH",
"453 418 OFFCURVE",
"534 488 OFFCURVE",
"621 488 CURVE SMOOTH",
"703 488 OFFCURVE",
"732 441 OFFCURVE",
"732 366 CURVE SMOOTH",
"732 337 OFFCURVE",
"729 311 OFFCURVE",
"723 280 CURVE SMOOTH",
"668 0 LINE",
"679 0 LINE",
"733 280 LINE SMOOTH",
"739 312 OFFCURVE",
"743 339 OFFCURVE",
"743 368 CURVE SMOOTH",
"743 449 OFFCURVE",
"709 498 OFFCURVE",
"622 498 CURVE SMOOTH",
"540 498 OFFCURVE",
"471 446 OFFCURVE",
"435 351 CURVE",
"436 350 LINE",
"442 453 OFFCURVE",
"400 498 OFFCURVE",
"315 498 CURVE SMOOTH",
"239 498 OFFCURVE",
"173 454 OFFCURVE",
"136 368 CURVE",
"136 367 LINE",
"161 493 LINE",
"151 493 LINE",
"55 0 LINE"
);
}
);
width = 818;
},
{
anchors = (
{
name = bottom;
position = "{377, 0}";
},
{
name = top;
position = "{473, 493}";
}
);
background = {
components = (
{
name = n;
}
);
};
layerId = "5EAB4D72-96CB-4765-AAD5-A13175319428";
paths = (
{
closed = 1;
nodes = (
"143 0 LINE",
"179 183 LINE SMOOTH",
"198 279 OFFCURVE",
"219 398 OFFCURVE",
"324 398 CURVE SMOOTH",
"373 398 OFFCURVE",
"385 365 OFFCURVE",
"385 332 CURVE SMOOTH",
"385 317 OFFCURVE",
"382 299 OFFCURVE",
"379 283 CURVE SMOOTH",
"324 0 LINE",
"444 0 LINE",
"480 183 LINE SMOOTH",
"499 279 OFFCURVE",
"519 398 OFFCURVE",
"624 398 CURVE SMOOTH",
"674 398 OFFCURVE",
"686 365 OFFCURVE",
"686 331 CURVE SMOOTH",
"686 317 OFFCURVE",
"683 299 OFFCURVE",
"680 283 CURVE SMOOTH",
"625 0 LINE",
"745 0 LINE",
"805 309 LINE SMOOTH",
"808 325 OFFCURVE",
"810 337 OFFCURVE",
"810 357 CURVE SMOOTH",
"810 436 OFFCURVE",
"767 503 OFFCURVE",
"665 503 CURVE SMOOTH",
"595 503 OFFCURVE",
"526 477 OFFCURVE",
"463 360 CURVE",
"495 356 LINE",
"499 467 OFFCURVE",
"431 503 OFFCURVE",
"362 503 CURVE SMOOTH",
"306 503 OFFCURVE",
"241 484 OFFCURVE",
"194 392 CURVE",
"209 382 LINE",
"234 493 LINE",
"118 493 LINE",
"23 0 LINE"
);
}
);
width = 850;
},
{
anchors = (
{
name = bottom;
position = "{361, 0}";
},
{
name = top;
position = "{457, 493}";
}
);
associatedMasterId = "F91D9E91-C1BC-4259-B0D8-112C0CBA2B8E";
background = {
paths = (
{
closed = 1;
nodes = (
"169 0 LINE",
"169 251 LINE SMOOTH",
"169 345 OFFCURVE",
"214 448 OFFCURVE",
"299 448 CURVE SMOOTH",
"388 448 OFFCURVE",
"408 363 OFFCURVE",
"408 294 CURVE SMOOTH",
"408 0 LINE",
"470 0 LINE",
"470 271 LINE SMOOTH",
"470 355 OFFCURVE",
"515 448 OFFCURVE",
"599 448 CURVE SMOOTH",
"689 448 OFFCURVE",
"710 360 OFFCURVE",
"710 292 CURVE SMOOTH",
"710 0 LINE",
"772 0 LINE",
"772 297 LINE SMOOTH",
"772 407 OFFCURVE",
"725 498 OFFCURVE",
"605 498 CURVE SMOOTH",
"535 498 OFFCURVE",
"485 459 OFFCURVE",
"456 392 CURVE",
"434 465 OFFCURVE",
"375 498 OFFCURVE",
"304 498 CURVE SMOOTH",
"239 498 OFFCURVE",
"186 454 OFFCURVE",
"169 406 CURVE",
"169 488 LINE",
"107 488 LINE",
"107 0 LINE"
);
}
);
};
layerId = "53751825-CB7B-4971-87F0-7DBD00A65D7B";
paths = (
{
closed = 1;
nodes = (
"66 0 LINE",
"123 293 LINE SMOOTH",
"147 418 OFFCURVE",
"224 488 OFFCURVE",
"315 488 CURVE SMOOTH",
"388 488 OFFCURVE",
"426 450 OFFCURVE",
"426 368 CURVE SMOOTH",
"426 344 OFFCURVE",
"423 319 OFFCURVE",
"418 293 CURVE SMOOTH",
"361 0 LINE",
"372 0 LINE",
"429 293 LINE SMOOTH",
"453 418 OFFCURVE",
"532 488 OFFCURVE",
"621 488 CURVE SMOOTH",
"703 488 OFFCURVE",
"732 441 OFFCURVE",
"732 366 CURVE SMOOTH",
"732 339 OFFCURVE",
"729 311 OFFCURVE",
"723 280 CURVE SMOOTH",
"668 0 LINE",
"679 0 LINE",
"733 280 LINE SMOOTH",
"739 312 OFFCURVE",
"743 341 OFFCURVE",
"743 368 CURVE SMOOTH",
"743 449 OFFCURVE",
"709 498 OFFCURVE",
"622 498 CURVE SMOOTH",
"541 498 OFFCURVE",
"473 447 OFFCURVE",
"436 354 CURVE",
"441 454 OFFCURVE",
"399 498 OFFCURVE",
"315 498 CURVE SMOOTH",
"240 498 OFFCURVE",
"175 455 OFFCURVE",
"137 371 CURVE",
"161 493 LINE",
"151 493 LINE",
"55 0 LINE"
);
}
);
width = 818;
},
{
anchors = (
{
name = bottom;
position = "{369, 0}";
},
{
name = top;
position = "{465, 493}";
}
);
background = {
components = (
{
name = n;
}
);
};
layerId = "D76894BF-AD8F-4700-A820-B81A81AE60D1";
paths = (
{
closed = 1;
nodes = (
"106 0 LINE",
"152 234 LINE SMOOTH",
"174 345 OFFCURVE",
"220 440 OFFCURVE",
"319 440 CURVE SMOOTH",
"379 440 OFFCURVE",
"403 404 OFFCURVE",
"403 349 CURVE SMOOTH",
"403 330 OFFCURVE",
"400 309 OFFCURVE",
"396 288 CURVE SMOOTH",
"340 0 LINE",
"409 0 LINE",
"455 234 LINE SMOOTH",
"477 344 OFFCURVE",
"524 440 OFFCURVE",
"622 440 CURVE SMOOTH",
"687 440 OFFCURVE",
"707 398 OFFCURVE",
"707 350 CURVE SMOOTH",
"707 328 OFFCURVE",
"703 301 OFFCURVE",
"699 282 CURVE SMOOTH",
"644 0 LINE",
"713 0 LINE",
"770 296 LINE SMOOTH",
"774 319 OFFCURVE",
"778 333 OFFCURVE",
"778 360 CURVE SMOOTH",
"778 442 OFFCURVE",
"739 501 OFFCURVE",
"639 501 CURVE SMOOTH",
"564 501 OFFCURVE",
"487 463 OFFCURVE",
"446 379 CURVE",
"464 378 LINE",
"462 465 OFFCURVE",
"406 501 OFFCURVE",
"339 501 CURVE SMOOTH",
"277 501 OFFCURVE",
"203 470 OFFCURVE",
"165 402 CURVE",
"180 401 LINE",
"199 493 LINE",
"132 493 LINE",
"37 0 LINE"
);
}
);
width = 833;
}
);
leftKerningGroup = m;
note = m;
rightKerningGroup = h;
unicode = 006D;
},
{
color = 1;
glyphname = n;
lastChange = "2019-05-10 15:42:15 +0000";
layers = (
{
anchors = (
{
name = bottom;
position = "{223, 0}";
},
{
name = top;
position = "{314, 493}";
}
);
background = {
paths = (
{
closed = 1;
nodes = (
"142 0 LINE",
"142 250 LINE SMOOTH",
"142 380 OFFCURVE",
"208 446 OFFCURVE",
"287 446 CURVE SMOOTH",
"379 446 OFFCURVE",
"402 360 OFFCURVE",
"402 292 CURVE SMOOTH",
"402 0 LINE",
"463 0 LINE",
"463 297 LINE SMOOTH",
"463 406 OFFCURVE",
"416 496 OFFCURVE",
"303 496 CURVE SMOOTH",
"226 496 OFFCURVE",
"173 455 OFFCURVE",
"142 396 CURVE",
"142 488 LINE",
"81 488 LINE",
"81 0 LINE"
);
}
);
};
layerId = "F91D9E91-C1BC-4259-B0D8-112C0CBA2B8E";
paths = (
{
closed = 1;
nodes = (
"65 0 LINE",
"116 263 LINE SMOOTH",
"146 419 OFFCURVE",
"227 488 OFFCURVE",
"328 488 CURVE SMOOTH",
"405 488 OFFCURVE",
"446 449 OFFCURVE",
"446 365 CURVE SMOOTH",
"446 347 OFFCURVE",
"444 324 OFFCURVE",
"438 293 CURVE SMOOTH",
"381 0 LINE",
"391 0 LINE",
"448 295 LINE SMOOTH",
"453 322 OFFCURVE",
"456 340 OFFCURVE",
"456 367 CURVE SMOOTH",
"456 458 OFFCURVE",
"408 498 OFFCURVE",
"325 498 CURVE SMOOTH",
"243 498 OFFCURVE",
"174 454 OFFCURVE",
"134 356 CURVE",
"134 355 LINE",
"161 493 LINE",
"151 493 LINE",
"55 0 LINE"
);
}
);
width = 530;
},
{
anchors = (
{
name = bottom;
position = "{237, 0}";
},
{
name = top;
position = "{333, 493}";
}
);
background = {
components = (
{
name = m;
transform = "{1, 0, 0, 1, -280, 0}";
}
);
};
layerId = "5EAB4D72-96CB-4765-AAD5-A13175319428";
paths = (
{
closed = 1;
nodes = (
"142 0 LINE",
"179 192 LINE SMOOTH",
"196 280 OFFCURVE",
"221 398 OFFCURVE",
"336 398 CURVE SMOOTH",
"395 398 OFFCURVE",
"408 367 OFFCURVE",
"408 336 CURVE SMOOTH",
"408 317 OFFCURVE",
"404 304 OFFCURVE",
"402 293 CURVE SMOOTH",
"345 0 LINE",
"465 0 LINE",
"524 303 LINE SMOOTH",
"528 323 OFFCURVE",
"529 346 OFFCURVE",
"529 356 CURVE SMOOTH",
"529 438 OFFCURVE",
"487 503 OFFCURVE",
"379 503 CURVE SMOOTH",
"315 503 OFFCURVE",
"246 480 OFFCURVE",
"200 406 CURVE",
"214 387 LINE",
"238 493 LINE",
"118 493 LINE",
"22 0 LINE"
);
}
);
width = 570;
},
{
anchors = (
{
name = bottom;
position = "{223, 0}";
},
{
name = top;
position = "{314, 493}";
}
);
associatedMasterId = "F91D9E91-C1BC-4259-B0D8-112C0CBA2B8E";
background = {
paths = (
{
closed = 1;
nodes = (
"142 0 LINE",
"142 250 LINE SMOOTH",
"142 380 OFFCURVE",
"208 446 OFFCURVE",
"287 446 CURVE SMOOTH",
"379 446 OFFCURVE",
"402 360 OFFCURVE",
"402 292 CURVE SMOOTH",
"402 0 LINE",
"463 0 LINE",
"463 297 LINE SMOOTH",
"463 406 OFFCURVE",
"416 496 OFFCURVE",
"303 496 CURVE SMOOTH",
"226 496 OFFCURVE",
"173 455 OFFCURVE",
"142 396 CURVE",
"142 488 LINE",
"81 488 LINE",
"81 0 LINE"
);
}
);
};
layerId = "53751825-CB7B-4971-87F0-7DBD00A65D7B";
paths = (
{
closed = 1;
nodes = (
"65 0 LINE",
"116 263 LINE SMOOTH",
"146 419 OFFCURVE",
"227 488 OFFCURVE",
"328 488 CURVE SMOOTH",
"405 488 OFFCURVE",
"446 449 OFFCURVE",
"446 365 CURVE SMOOTH",
"446 347 OFFCURVE",
"444 324 OFFCURVE",
"438 293 CURVE SMOOTH",
"381 0 LINE",
"391 0 LINE",
"448 295 LINE SMOOTH",
"453 322 OFFCURVE",
"456 344 OFFCURVE",
"456 367 CURVE SMOOTH",
"456 458 OFFCURVE",
"408 498 OFFCURVE",
"325 498 CURVE SMOOTH",
"244 498 OFFCURVE",
"176 455 OFFCURVE",
"135 359 CURVE",
"161 493 LINE",
"151 493 LINE",
"55 0 LINE"
);
}
);
width = 530;
},
{
anchors = (
{
name = bottom;
position = "{230, 0}";
},
{
name = top;
position = "{324, 493}";
}
);
background = {
paths = (
{
closed = 1;
nodes = (
"142 0 LINE",
"142 250 LINE SMOOTH",
"142 380 OFFCURVE",
"208 446 OFFCURVE",
"287 446 CURVE SMOOTH",
"379 446 OFFCURVE",
"402 360 OFFCURVE",
"402 292 CURVE SMOOTH",
"402 0 LINE",
"463 0 LINE",
"463 297 LINE SMOOTH",
"463 406 OFFCURVE",
"416 496 OFFCURVE",
"303 496 CURVE SMOOTH",
"226 496 OFFCURVE",
"173 455 OFFCURVE",
"142 396 CURVE",
"142 488 LINE",
"81 488 LINE",
"81 0 LINE"
);
}
);
};
layerId = "D76894BF-AD8F-4700-A820-B81A81AE60D1";
paths = (
{
closed = 1;
nodes = (
"106 0 LINE",
"149 225 LINE SMOOTH",
"172 345 OFFCURVE",
"224 440 OFFCURVE",
"332 440 CURVE SMOOTH",
"399 440 OFFCURVE",
"425 405 OFFCURVE",
"425 350 CURVE SMOOTH",
"425 329 OFFCURVE",
"421 309 OFFCURVE",
"418 293 CURVE SMOOTH",
"361 0 LINE",
"430 0 LINE",
"488 299 LINE SMOOTH",
"490 309 OFFCURVE",
"495 336 OFFCURVE",
"495 363 CURVE SMOOTH",
"495 447 OFFCURVE",
"446 501 OFFCURVE",
"352 501 CURVE SMOOTH",
"285 501 OFFCURVE",
"207 474 OFFCURVE",
"161 399 CURVE",
"182 398 LINE",
"202 493 LINE",
"133 493 LINE",
"37 0 LINE"
);
}
);
width = 550;
}
);
leftKerningGroup = m;
note = n;
rightKerningGroup = h;
unicode = 006E;
},
{
color = 1;
glyphname = eng;
lastChange = "2019-05-10 15:44:00 +0000";
layers = (
{
guideLines = (
{
position = "{206, -204}";
}
);
layerId = "F91D9E91-C1BC-4259-B0D8-112C0CBA2B8E";
paths = (
{
closed = 1;
nodes = (
"328 -209 OFFCURVE",
"356 -180 OFFCURVE",
"369 -114 CURVE SMOOTH",
"455 328 LINE SMOOTH",
"458 344 OFFCURVE",
"460 352 OFFCURVE",
"460 375 CURVE SMOOTH",
"460 455 OFFCURVE",
"411 498 OFFCURVE",
"325 498 CURVE SMOOTH",
"243 498 OFFCURVE",
"173 454 OFFCURVE",
"138 380 CURVE",
"138 379 LINE",
"161 493 LINE",
"151 493 LINE",
"55 0 LINE",
"65 0 LINE",
"126 313 LINE SMOOTH",
"147 419 OFFCURVE",
"225 488 OFFCURVE",
"325 488 CURVE SMOOTH",
"406 488 OFFCURVE",
"448 447 OFFCURVE",
"448 369 CURVE SMOOTH",
"448 357 OFFCURVE",
"446 333 OFFCURVE",
"442 313 CURVE SMOOTH",
"359 -114 LINE SMOOTH",
"347 -174 OFFCURVE",
"322 -200 OFFCURVE",
"281 -200 CURVE SMOOTH",
"267 -200 OFFCURVE",
"249 -196 OFFCURVE",
"229 -188 CURVE",
"226 -198 LINE",
"247 -205 OFFCURVE",
"266 -209 OFFCURVE",
"282 -209 CURVE SMOOTH"
);
}
);
width = 532;
},
{
background = {
components = (
{
name = j;
transform = "{1, 0, 0, 1, 324, 0}";
}
);
};
guideLines = (
{
position = "{206, -204}";
}
);
layerId = "5EAB4D72-96CB-4765-AAD5-A13175319428";
paths = (
{
closed = 1;
nodes = (
"376 -214 OFFCURVE",
"430 -179 OFFCURVE",
"447 -91 CURVE SMOOTH",
"524 303 LINE SMOOTH",
"528 323 OFFCURVE",
"529 345 OFFCURVE",
"529 355 CURVE SMOOTH",
"529 437 OFFCURVE",
"486 503 OFFCURVE",
"381 503 CURVE SMOOTH",
"315 503 OFFCURVE",
"247 480 OFFCURVE",
"200 406 CURVE",
"214 387 LINE",
"238 493 LINE",
"118 493 LINE",
"22 0 LINE",
"142 0 LINE",
"168 132 LINE SMOOTH",
"196 275 OFFCURVE",
"221 393 OFFCURVE",
"336 393 CURVE SMOOTH",
"394 393 OFFCURVE",
"407 362 OFFCURVE",
"407 331 CURVE SMOOTH",
"407 312 OFFCURVE",
"403 299 OFFCURVE",
"401 288 CURVE SMOOTH",
"331 -73 LINE SMOOTH",
"327 -95 OFFCURVE",
"305 -109 OFFCURVE",
"283 -109 CURVE SMOOTH",
"275 -109 OFFCURVE",
"262 -108 OFFCURVE",
"249 -104 CURVE",
"236 -197 LINE",
"262 -207 OFFCURVE",
"288 -214 OFFCURVE",
"315 -214 CURVE SMOOTH"
);
}
);
width = 570;
},
{
associatedMasterId = "F91D9E91-C1BC-4259-B0D8-112C0CBA2B8E";
guideLines = (
{
position = "{206, -204}";
}
);
layerId = "53751825-CB7B-4971-87F0-7DBD00A65D7B";
paths = (
{
closed = 1;
nodes = (
"328 -209 OFFCURVE",
"356 -180 OFFCURVE",
"369 -114 CURVE SMOOTH",
"455 328 LINE SMOOTH",
"458 345 OFFCURVE",
"460 357 OFFCURVE",
"460 375 CURVE SMOOTH",
"460 455 OFFCURVE",
"411 498 OFFCURVE",
"325 498 CURVE SMOOTH",
"244 498 OFFCURVE",
"175 455 OFFCURVE",
"139 383 CURVE",
"161 493 LINE",
"151 493 LINE",
"55 0 LINE",
"65 0 LINE",
"126 313 LINE SMOOTH",
"147 419 OFFCURVE",
"225 488 OFFCURVE",
"325 488 CURVE SMOOTH",
"406 488 OFFCURVE",
"448 447 OFFCURVE",
"448 369 CURVE SMOOTH",
"448 354 OFFCURVE",
"446 333 OFFCURVE",
"442 313 CURVE SMOOTH",
"359 -114 LINE SMOOTH",
"347 -174 OFFCURVE",
"322 -200 OFFCURVE",
"281 -200 CURVE SMOOTH",
"267 -200 OFFCURVE",
"249 -196 OFFCURVE",
"229 -188 CURVE",
"226 -198 LINE",
"247 -205 OFFCURVE",
"266 -209 OFFCURVE",
"282 -209 CURVE SMOOTH"
);
}
);
width = 532;
},
{
background = {
paths = (
{
closed = 1;
nodes = (
"430 1 LINE",
"491 315 LINE SMOOTH",
"495 336 OFFCURVE",
"496 352 OFFCURVE",
"496 364 CURVE SMOOTH",
"496 444 OFFCURVE",
"451 501 OFFCURVE",
"354 501 CURVE SMOOTH",
"288 501 OFFCURVE",
"225 472 OFFCURVE",
"185 413 CURVE",
"202 493 LINE",
"133 493 LINE",
"37 0 LINE",
"106 0 LINE",
"148 217 LINE SMOOTH",
"172 342 OFFCURVE",
"223 437 OFFCURVE",
"330 437 CURVE SMOOTH",
"399 437 OFFCURVE",
"426 401 OFFCURVE",
"426 349 CURVE SMOOTH",
"426 334 OFFCURVE",
"423 315 OFFCURVE",
"420 300 CURVE SMOOTH",
"362 1 LINE"
);
}
);
};
guideLines = (
{
position = "{206, -204}";
}
);
layerId = "D76894BF-AD8F-4700-A820-B81A81AE60D1";
paths = (
{
closed = 1;
nodes = (
"354 -212 OFFCURVE",
"395 -179 OFFCURVE",
"410 -102 CURVE SMOOTH",
"488 299 LINE SMOOTH",
"490 309 OFFCURVE",
"495 336 OFFCURVE",
"495 363 CURVE SMOOTH",
"495 447 OFFCURVE",
"446 501 OFFCURVE",
"352 501 CURVE SMOOTH",
"297 501 OFFCURVE",
"234 482 OFFCURVE",
"188 434 CURVE",
"189 432 LINE",
"202 493 LINE",
"133 493 LINE",
"37 0 LINE",
"106 0 LINE",
"149 225 LINE SMOOTH",
"172 345 OFFCURVE",
"224 440 OFFCURVE",
"332 440 CURVE SMOOTH",
"399 440 OFFCURVE",
"425 405 OFFCURVE",
"425 350 CURVE SMOOTH",
"425 329 OFFCURVE",
"421 309 OFFCURVE",
"418 293 CURVE SMOOTH",
"343 -92 LINE SMOOTH",
"335 -132 OFFCURVE",
"313 -151 OFFCURVE",
"282 -151 CURVE SMOOTH",
"270 -151 OFFCURVE",
"256 -149 OFFCURVE",
"239 -143 CURVE",
"231 -197 LINE",
"255 -206 OFFCURVE",
"277 -212 OFFCURVE",
"299 -212 CURVE SMOOTH"
);
}
);
width = 551;
}
);
leftKerningGroup = m;
note = eng;
rightKerningGroup = h;
unicode = 014B;
},
{
color = 1;
glyphname = o;
lastChange = "2019-05-10 16:44:51 +0000";
layers = (
{
anchors = (
{
name = bottom;
position = "{241, 0}";
},
{
name = center;
position = "{289, 247}";
},
{
name = ogonek;
position = "{286, 0}";
},
{
name = top;
position = "{337, 493}";
},
{
name = topright;
position = "{546, 390}";
}
);
layerId = "F91D9E91-C1BC-4259-B0D8-112C0CBA2B8E";
paths = (
{
closed = 1;
nodes = (
"399 -5 OFFCURVE",
"520 145 OFFCURVE",
"520 309 CURVE SMOOTH",
"520 426 OFFCURVE",
"447 498 OFFCURVE",
"336 498 CURVE SMOOTH",
"176 498 OFFCURVE",
"58 345 OFFCURVE",
"58 184 CURVE SMOOTH",
"58 66 OFFCURVE",
"130 -5 OFFCURVE",
"240 -5 CURVE SMOOTH"
);
},
{
closed = 1;
nodes = (
"137 5 OFFCURVE",
"69 73 OFFCURVE",
"69 184 CURVE SMOOTH",
"69 340 OFFCURVE",
"179 488 OFFCURVE",
"336 488 CURVE SMOOTH",
"440 488 OFFCURVE",
"510 419 OFFCURVE",
"510 308 CURVE SMOOTH",
"510 152 OFFCURVE",
"398 5 OFFCURVE",
"240 5 CURVE SMOOTH"
);
}
);
width = 577;
},
{
anchors = (
{
name = bottom;
position = "{225, 0}";
},
{
name = center;
position = "{273, 247}";
},
{
name = ogonek;
position = "{298, 0}";
},
{
name = top;
position = "{321, 493}";
},
{
name = topright;
position = "{548, 340}";
}
);
layerId = "5EAB4D72-96CB-4765-AAD5-A13175319428";
paths = (
{
closed = 1;
nodes = (
"393 -10 OFFCURVE",
"524 132 OFFCURVE",
"524 297 CURVE SMOOTH",
"524 413 OFFCURVE",
"450 503 OFFCURVE",
"317 503 CURVE SMOOTH",
"151 503 OFFCURVE",
"22 362 OFFCURVE",
"22 197 CURVE SMOOTH",
"22 81 OFFCURVE",
"95 -10 OFFCURVE",
"229 -10 CURVE SMOOTH"
);
},
{
closed = 1;
nodes = (
"167 95 OFFCURVE",
"140 139 OFFCURVE",
"140 196 CURVE SMOOTH",
"140 299 OFFCURVE",
"205 398 OFFCURVE",
"308 398 CURVE SMOOTH",
"379 398 OFFCURVE",
"406 356 OFFCURVE",
"406 299 CURVE SMOOTH",
"406 195 OFFCURVE",
"341 95 OFFCURVE",
"238 95 CURVE SMOOTH"
);
}
);
width = 545;
},
{
anchors = (
{
name = bottom;
position = "{241, 0}";
},
{
name = center;
position = "{289, 247}";
},
{
name = ogonek;
position = "{286, 0}";
},
{
name = top;
position = "{337, 493}";
},
{
name = topright;
position = "{546, 390}";
}
);
associatedMasterId = "F91D9E91-C1BC-4259-B0D8-112C0CBA2B8E";
layerId = "53751825-CB7B-4971-87F0-7DBD00A65D7B";
paths = (
{
closed = 1;
nodes = (
"399 -5 OFFCURVE",
"520 145 OFFCURVE",
"520 309 CURVE SMOOTH",
"520 426 OFFCURVE",
"447 498 OFFCURVE",
"336 498 CURVE SMOOTH",
"176 498 OFFCURVE",
"58 345 OFFCURVE",
"58 184 CURVE SMOOTH",
"58 66 OFFCURVE",
"130 -5 OFFCURVE",
"240 -5 CURVE SMOOTH"
);
},
{
closed = 1;
nodes = (
"137 5 OFFCURVE",
"69 73 OFFCURVE",
"69 184 CURVE SMOOTH",
"69 340 OFFCURVE",
"179 488 OFFCURVE",
"336 488 CURVE SMOOTH",
"440 488 OFFCURVE",
"510 419 OFFCURVE",
"510 308 CURVE SMOOTH",
"510 152 OFFCURVE",
"398 5 OFFCURVE",
"240 5 CURVE SMOOTH"
);
}
);
width = 577;
},
{
anchors = (
{
name = bottom;
position = "{231, 0}";
},
{
name = center;
position = "{279, 247}";
},
{
name = ogonek;
position = "{291, 0}";
},
{
name = top;
position = "{327, 493}";
},
{
name = topright;
position = "{545, 363}";
}
);
layerId = "D76894BF-AD8F-4700-A820-B81A81AE60D1";
paths = (
{
closed = 1;
nodes = (
"394 -8 OFFCURVE",
"520 139 OFFCURVE",
"520 303 CURVE SMOOTH",
"520 419 OFFCURVE",
"446 501 OFFCURVE",
"324 501 CURVE SMOOTH",
"161 501 OFFCURVE",
"37 354 OFFCURVE",
"37 191 CURVE SMOOTH",
"37 74 OFFCURVE",
"110 -8 OFFCURVE",
"232 -8 CURVE SMOOTH"
);
},
{
closed = 1;
nodes = (
"152 53 OFFCURVE",
"105 108 OFFCURVE",
"105 190 CURVE SMOOTH",
"105 318 OFFCURVE",
"191 440 OFFCURVE",
"319 440 CURVE SMOOTH",
"406 440 OFFCURVE",
"453 385 OFFCURVE",
"453 303 CURVE SMOOTH",
"453 176 OFFCURVE",
"366 53 OFFCURVE",
"237 53 CURVE SMOOTH"
);
}
);
width = 557;
}
);
leftKerningGroup = c;
note = o;
rightKerningGroup = b;
unicode = 006F;
},
{
color = 1;
glyphname = oe;
lastChange = "2019-05-10 16:44:50 +0000";
layers = (
{
anchors = (
{
name = bottom;
position = "{436, 0}";
},
{
name = top;
position = "{532, 493}";
}
);
layerId = "F91D9E91-C1BC-4259-B0D8-112C0CBA2B8E";
paths = (
{
closed = 1;
nodes = (
"362 -5 OFFCURVE",
"457 79 OFFCURVE",
"498 190 CURVE",
"498 60 OFFCURVE",
"558 -5 OFFCURVE",
"668 -5 CURVE SMOOTH",
"743 -5 OFFCURVE",
"792 14 OFFCURVE",
"861 70 CURVE",
"853 78 LINE",
"788 23 OFFCURVE",
"743 5 OFFCURVE",
"668 5 CURVE SMOOTH",
"565 5 OFFCURVE",
"509 68 OFFCURVE",
"509 176 CURVE SMOOTH",
"509 199 OFFCURVE",
"512 224 OFFCURVE",
"517 251 CURVE",
"905 251 LINE",
"915 277 OFFCURVE",
"920 307 OFFCURVE",
"920 335 CURVE SMOOTH",
"920 413 OFFCURVE",
"881 498 OFFCURVE",
"756 498 CURVE SMOOTH",
"643 498 OFFCURVE",
"559 410 OFFCURVE",
"520 301 CURVE",
"520 426 OFFCURVE",
"450 498 OFFCURVE",
"336 498 CURVE SMOOTH",
"176 498 OFFCURVE",
"58 345 OFFCURVE",
"58 184 CURVE SMOOTH",
"58 66 OFFCURVE",
"130 -5 OFFCURVE",
"240 -5 CURVE SMOOTH"
);
},
{
closed = 1;
nodes = (
"137 5 OFFCURVE",
"69 73 OFFCURVE",
"69 184 CURVE SMOOTH",
"69 340 OFFCURVE",
"180 488 OFFCURVE",
"336 488 CURVE SMOOTH",
"440 488 OFFCURVE",
"510 419 OFFCURVE",
"510 308 CURVE SMOOTH",
"510 152 OFFCURVE",
"398 5 OFFCURVE",
"240 5 CURVE SMOOTH"
);
},
{
closed = 1;
nodes = (
"551 396 OFFCURVE",
"646 488 OFFCURVE",
"756 488 CURVE SMOOTH",
"874 488 OFFCURVE",
"910 410 OFFCURVE",
"910 336 CURVE SMOOTH",
"910 312 OFFCURVE",
"905 283 OFFCURVE",
"898 261 CURVE",
"519 261 LINE"
);
}
);
width = 967;
},
{
anchors = (
{
name = bottom;
position = "{399, 0}";
},
{
name = top;
position = "{495, 493}";
}
);
layerId = "5EAB4D72-96CB-4765-AAD5-A13175319428";
paths = (
{
closed = 1;
nodes = (
"306 -10 OFFCURVE",
"376 21 OFFCURVE",
"428 72 CURVE",
"459 22 OFFCURVE",
"515 -10 OFFCURVE",
"602 -10 CURVE SMOOTH",
"682 -10 OFFCURVE",
"751 16 OFFCURVE",
"817 76 CURVE",
"745 156 LINE",
"704 117 OFFCURVE",
"660 99 OFFCURVE",
"613 99 CURVE SMOOTH",
"545 99 OFFCURVE",
"514 130 OFFCURVE",
"514 184 CURVE SMOOTH",
"514 190 OFFCURVE",
"514 196 OFFCURVE",
"515 202 CURVE",
"854 202 LINE",
"862 229 OFFCURVE",
"871 278 OFFCURVE",
"871 312 CURVE SMOOTH",
"871 421 OFFCURVE",
"812 503 OFFCURVE",
"682 503 CURVE SMOOTH",
"604 503 OFFCURVE",
"538 472 OFFCURVE",
"488 421 CURVE",
"454 471 OFFCURVE",
"396 503 OFFCURVE",
"317 503 CURVE SMOOTH",
"151 503 OFFCURVE",
"22 362 OFFCURVE",
"22 197 CURVE SMOOTH",
"22 81 OFFCURVE",
"95 -10 OFFCURVE",
"229 -10 CURVE SMOOTH"
);
},
{
closed = 1;
nodes = (
"167 95 OFFCURVE",
"140 139 OFFCURVE",
"140 196 CURVE SMOOTH",
"140 299 OFFCURVE",
"205 398 OFFCURVE",
"308 398 CURVE SMOOTH",
"379 398 OFFCURVE",
"406 356 OFFCURVE",
"406 299 CURVE SMOOTH",
"406 195 OFFCURVE",
"341 95 OFFCURVE",
"238 95 CURVE SMOOTH"
);
},
{
closed = 1;
nodes = (
"549 341 OFFCURVE",
"592 403 OFFCURVE",
"673 403 CURVE SMOOTH",
"729 403 OFFCURVE",
"762 371 OFFCURVE",
"762 326 CURVE SMOOTH",
"762 315 OFFCURVE",
"760 302 OFFCURVE",
"755 289 CURVE",
"533 289 LINE"
);
}
);
width = 893;
},
{
anchors = (
{
name = bottom;
position = "{436, 0}";
},
{
name = top;
position = "{532, 493}";
}
);
associatedMasterId = "F91D9E91-C1BC-4259-B0D8-112C0CBA2B8E";
layerId = "53751825-CB7B-4971-87F0-7DBD00A65D7B";
paths = (
{
closed = 1;
nodes = (
"362 -5 OFFCURVE",
"457 79 OFFCURVE",
"498 190 CURVE",
"498 60 OFFCURVE",
"558 -5 OFFCURVE",
"668 -5 CURVE SMOOTH",
"743 -5 OFFCURVE",
"792 14 OFFCURVE",
"861 70 CURVE",
"853 78 LINE",
"788 23 OFFCURVE",
"743 5 OFFCURVE",
"668 5 CURVE SMOOTH",
"565 5 OFFCURVE",
"509 68 OFFCURVE",
"509 176 CURVE SMOOTH",
"509 199 OFFCURVE",
"512 224 OFFCURVE",
"517 251 CURVE",
"905 251 LINE",
"915 277 OFFCURVE",
"920 307 OFFCURVE",
"920 335 CURVE SMOOTH",
"920 413 OFFCURVE",
"881 498 OFFCURVE",
"756 498 CURVE SMOOTH",
"643 498 OFFCURVE",
"559 410 OFFCURVE",
"520 301 CURVE",
"520 426 OFFCURVE",
"450 498 OFFCURVE",
"336 498 CURVE SMOOTH",
"176 498 OFFCURVE",
"58 345 OFFCURVE",
"58 184 CURVE SMOOTH",
"58 66 OFFCURVE",
"130 -5 OFFCURVE",
"240 -5 CURVE SMOOTH"
);
},
{
closed = 1;
nodes = (
"137 5 OFFCURVE",
"69 73 OFFCURVE",
"69 184 CURVE SMOOTH",
"69 340 OFFCURVE",
"180 488 OFFCURVE",
"336 488 CURVE SMOOTH",
"440 488 OFFCURVE",
"510 419 OFFCURVE",
"510 308 CURVE SMOOTH",
"510 152 OFFCURVE",
"398 5 OFFCURVE",
"240 5 CURVE SMOOTH"
);
},
{
closed = 1;
nodes = (
"551 396 OFFCURVE",
"646 488 OFFCURVE",
"756 488 CURVE SMOOTH",
"874 488 OFFCURVE",
"910 410 OFFCURVE",
"910 336 CURVE SMOOTH",
"910 312 OFFCURVE",
"905 283 OFFCURVE",
"898 261 CURVE",
"519 261 LINE"
);
}
);
width = 967;
},
{
anchors = (
{
name = bottom;
position = "{414, 0}";
},
{
name = top;
position = "{510, 493}";
}
);
layerId = "D76894BF-AD8F-4700-A820-B81A81AE60D1";
paths = (
{
closed = 1;
nodes = (
"330 -8 OFFCURVE",
"412 48 OFFCURVE",
"459 127 CURVE",
"475 42 OFFCURVE",
"531 -8 OFFCURVE",
"631 -8 CURVE SMOOTH",
"708 -8 OFFCURVE",
"768 15 OFFCURVE",
"836 73 CURVE",
"794 120 LINE",
"741 73 OFFCURVE",
"698 55 OFFCURVE",
"637 55 CURVE SMOOTH",
"553 55 OFFCURVE",
"510 101 OFFCURVE",
"510 180 CURVE SMOOTH",
"510 192 OFFCURVE",
"511 207 OFFCURVE",
"514 225 CURVE",
"876 225 LINE",
"885 251 OFFCURVE",
"892 293 OFFCURVE",
"892 323 CURVE SMOOTH",
"892 417 OFFCURVE",
"842 501 OFFCURVE",
"715 501 CURVE SMOOTH",
"621 501 OFFCURVE",
"546 443 OFFCURVE",
"501 365 CURVE",
"483 450 OFFCURVE",
"419 501 OFFCURVE",
"324 501 CURVE SMOOTH",
"161 501 OFFCURVE",
"37 354 OFFCURVE",
"37 191 CURVE SMOOTH",
"37 74 OFFCURVE",
"110 -8 OFFCURVE",
"232 -8 CURVE SMOOTH"
);
},
{
closed = 1;
nodes = (
"152 53 OFFCURVE",
"105 108 OFFCURVE",
"105 190 CURVE SMOOTH",
"105 318 OFFCURVE",
"192 440 OFFCURVE",
"319 440 CURVE SMOOTH",
"406 440 OFFCURVE",
"453 385 OFFCURVE",
"453 303 CURVE SMOOTH",
"453 176 OFFCURVE",
"366 53 OFFCURVE",
"237 53 CURVE SMOOTH"
);
},
{
closed = 1;
nodes = (
"548 367 OFFCURVE",
"616 443 OFFCURVE",
"710 443 CURVE SMOOTH",
"795 443 OFFCURVE",
"829 389 OFFCURVE",
"829 331 CURVE SMOOTH",
"829 315 OFFCURVE",
"826 293 OFFCURVE",
"820 276 CURVE",
"525 276 LINE"
);
}
);
width = 925;
}
);
leftKerningGroup = c;
note = oe;
rightKerningGroup = e;
unicode = 0153;
},
{
color = 1;
glyphname = p;
lastChange = "2019-05-10 16:03:00 +0000";
layers = (
{
anchors = (
{
name = bottom;
position = "{250, 0}";
},
{
name = top;
position = "{346, 493}";
}
);
guideLines = (
{
position = "{205, -204}";
}
);
layerId = "F91D9E91-C1BC-4259-B0D8-112C0CBA2B8E";
paths = (
{
closed = 1;
nodes = (
"24 -204 LINE",
"98 172 LINE",
"97 171 LINE",
"103 68 OFFCURVE",
"171 -5 OFFCURVE",
"277 -5 CURVE SMOOTH",
"430 -5 OFFCURVE",
"538 152 OFFCURVE",
"538 314 CURVE SMOOTH",
"538 423 OFFCURVE",
"481 498 OFFCURVE",
"373 498 CURVE SMOOTH",
"269 498 OFFCURVE",
"172 426 OFFCURVE",
"126 321 CURVE",
"126 320 LINE",
"160 493 LINE",
"150 493 LINE",
"14 -204 LINE"
);
},
{
closed = 1;
nodes = (
"173 5 OFFCURVE",
"106 81 OFFCURVE",
"106 188 CURVE SMOOTH",
"106 336 OFFCURVE",
"222 488 OFFCURVE",
"373 488 CURVE SMOOTH",
"475 488 OFFCURVE",
"528 416 OFFCURVE",
"528 314 CURVE SMOOTH",
"528 160 OFFCURVE",
"428 5 OFFCURVE",
"277 5 CURVE SMOOTH"
);
}
);
width = 597;
},
{
anchors = (
{
name = bottom;
position = "{238, 0}";
},
{
name = top;
position = "{334, 493}";
}
);
guideLines = (
{
position = "{205, -204}";
}
);
layerId = "5EAB4D72-96CB-4765-AAD5-A13175319428";
paths = (
{
closed = 1;
nodes = (
"102 -204 LINE",
"165 107 LINE",
"142 81 LINE",
"155 31 OFFCURVE",
"215 -10 OFFCURVE",
"288 -10 CURVE SMOOTH",
"447 -10 OFFCURVE",
"546 149 OFFCURVE",
"546 314 CURVE SMOOTH",
"546 426 OFFCURVE",
"489 503 OFFCURVE",
"376 503 CURVE SMOOTH",
"315 503 OFFCURVE",
"245 484 OFFCURVE",
"201 416 CURVE",
"214 396 LINE",
"238 493 LINE",
"118 493 LINE",
"-18 -204 LINE"
);
},
{
closed = 1;
nodes = (
"200 95 OFFCURVE",
"172 135 OFFCURVE",
"172 193 CURVE SMOOTH",
"172 297 OFFCURVE",
"234 398 OFFCURVE",
"338 398 CURVE SMOOTH",
"399 398 OFFCURVE",
"428 367 OFFCURVE",
"428 308 CURVE SMOOTH",
"428 202 OFFCURVE",
"371 95 OFFCURVE",
"267 95 CURVE SMOOTH"
);
}
);
width = 572;
},
{
anchors = (
{
name = bottom;
position = "{250, 0}";
},
{
name = top;
position = "{346, 493}";
}
);
associatedMasterId = "F91D9E91-C1BC-4259-B0D8-112C0CBA2B8E";
guideLines = (
{
position = "{205, -204}";
}
);
layerId = "53751825-CB7B-4971-87F0-7DBD00A65D7B";
paths = (
{
closed = 1;
nodes = (
"24 -204 LINE",
"97 168 LINE",
"104 66 OFFCURVE",
"172 -5 OFFCURVE",
"277 -5 CURVE SMOOTH",
"430 -5 OFFCURVE",
"538 152 OFFCURVE",
"538 314 CURVE SMOOTH",
"538 423 OFFCURVE",
"481 498 OFFCURVE",
"373 498 CURVE SMOOTH",
"270 498 OFFCURVE",
"174 427 OFFCURVE",
"127 324 CURVE",
"160 493 LINE",
"150 493 LINE",
"14 -204 LINE"
);
},
{
closed = 1;
nodes = (
"173 5 OFFCURVE",
"106 81 OFFCURVE",
"106 188 CURVE SMOOTH",
"106 336 OFFCURVE",
"222 488 OFFCURVE",
"373 488 CURVE SMOOTH",
"475 488 OFFCURVE",
"528 416 OFFCURVE",
"528 314 CURVE SMOOTH",
"528 160 OFFCURVE",
"428 5 OFFCURVE",
"277 5 CURVE SMOOTH"
);
}
);
width = 597;
},
{
anchors = (
{
name = bottom;
position = "{253, 0}";
},
{
name = top;
position = "{349, 493}";
}
);
background = {
paths = (
{
closed = 1;
nodes = (
"65 -204 LINE",
"126 107 LINE",
"142 41 OFFCURVE",
"201 -8 OFFCURVE",
"282 -8 CURVE SMOOTH",
"438 -8 OFFCURVE",
"541 151 OFFCURVE",
"541 314 CURVE SMOOTH",
"541 424 OFFCURVE",
"484 501 OFFCURVE",
"374 501 CURVE SMOOTH",
"295 501 OFFCURVE",
"222 457 OFFCURVE",
"179 390 CURVE",
"201 493 LINE",
"132 493 LINE",
"-4 -204 LINE"
);
}
);
};
guideLines = (
{
position = "{204, -204}";
}
);
layerId = "D76894BF-AD8F-4700-A820-B81A81AE60D1";
paths = (
{
closed = 1;
nodes = (
"72 -204 LINE",
"137 127 LINE",
"106 110 LINE",
"122 40 OFFCURVE",
"190 -8 OFFCURVE",
"277 -8 CURVE SMOOTH",
"435 -8 OFFCURVE",
"551 148 OFFCURVE",
"551 305 CURVE SMOOTH",
"551 422 OFFCURVE",
"486 501 OFFCURVE",
"364 501 CURVE SMOOTH",
"278 501 OFFCURVE",
"193 458 OFFCURVE",
"158 381 CURVE",
"186 380 LINE",
"208.457 493 LINE",
"132.925 493 LINE",
"-4 -204 LINE"
);
},
{
closed = 1;
nodes = (
"181 55 OFFCURVE",
"133 121 OFFCURVE",
"144 220 CURVE SMOOTH",
"157 337 OFFCURVE",
"242 437 OFFCURVE",
"354 437 CURVE SMOOTH",
"436 437 OFFCURVE",
"483 384 OFFCURVE",
"483 298 CURVE SMOOTH",
"483 182 OFFCURVE",
"397 55 OFFCURVE",
"272 55 CURVE SMOOTH"
);
}
);
width = 589;
}
);
leftKerningGroup = m;
note = p;
rightKerningGroup = b;
unicode = 0070;
},
{
color = 1;
glyphname = thorn;
lastChange = "2019-05-10 16:03:32 +0000";
layers = (
{
anchors = (
{
name = bottom;
position = "{251, 0}";
},
{
name = top;
position = "{347, 493}";
}
);
guideLines = (
{
position = "{205, -204}";
}
);
layerId = "F91D9E91-C1BC-4259-B0D8-112C0CBA2B8E";
paths = (
{
closed = 1;
nodes = (
"25 -204 LINE",
"99 172 LINE",
"98 171 LINE",
"104 68 OFFCURVE",
"172 -5 OFFCURVE",
"278 -5 CURVE SMOOTH",
"431 -5 OFFCURVE",
"539 152 OFFCURVE",
"539 314 CURVE SMOOTH",
"539 423 OFFCURVE",
"482 498 OFFCURVE",
"374 498 CURVE SMOOTH",
"270 498 OFFCURVE",
"173 426 OFFCURVE",
"127 321 CURVE",
"127 320 LINE",
"201 697 LINE",
"191 697 LINE",
"15 -204 LINE"
);
},
{
closed = 1;
nodes = (
"174 5 OFFCURVE",
"107 81 OFFCURVE",
"107 188 CURVE SMOOTH",
"107 336 OFFCURVE",
"223 488 OFFCURVE",
"374 488 CURVE SMOOTH",
"476 488 OFFCURVE",
"529 416 OFFCURVE",
"529 314 CURVE SMOOTH",
"529 160 OFFCURVE",
"429 5 OFFCURVE",
"278 5 CURVE SMOOTH"
);
}
);
width = 598;
},
{
anchors = (
{
name = bottom;
position = "{237, 0}";
},
{
name = top;
position = "{333, 493}";
}
);
guideLines = (
{
position = "{205, -204}";
}
);
layerId = "5EAB4D72-96CB-4765-AAD5-A13175319428";
paths = (
{
closed = 1;
nodes = (
"102 -204 LINE",
"165 107 LINE",
"142 81 LINE",
"155 31 OFFCURVE",
"215 -10 OFFCURVE",
"288 -10 CURVE SMOOTH",
"447 -10 OFFCURVE",
"546 149 OFFCURVE",
"546 314 CURVE SMOOTH",
"546 426 OFFCURVE",
"489 503 OFFCURVE",
"376 503 CURVE SMOOTH",
"315 503 OFFCURVE",
"245 484 OFFCURVE",
"201 416 CURVE",
"216 395 LINE",
"278 697 LINE",
"158 697 LINE",
"-18 -204 LINE"
);
},
{
closed = 1;
nodes = (
"200 95 OFFCURVE",
"172 135 OFFCURVE",
"172 193 CURVE SMOOTH",
"172 297 OFFCURVE",
"234 398 OFFCURVE",
"338 398 CURVE SMOOTH",
"399 398 OFFCURVE",
"428 367 OFFCURVE",
"428 308 CURVE SMOOTH",
"428 202 OFFCURVE",
"371 95 OFFCURVE",
"267 95 CURVE SMOOTH"
);
}
);
width = 572;
},
{
anchors = (
{
name = bottom;
position = "{251, 0}";
},
{
name = top;
position = "{347, 493}";
}
);
associatedMasterId = "F91D9E91-C1BC-4259-B0D8-112C0CBA2B8E";
guideLines = (
{
position = "{205, -204}";
}
);
layerId = "53751825-CB7B-4971-87F0-7DBD00A65D7B";
paths = (
{
closed = 1;
nodes = (
"25 -204 LINE",
"98 168 LINE",
"105 66 OFFCURVE",
"173 -5 OFFCURVE",
"278 -5 CURVE SMOOTH",
"431 -5 OFFCURVE",
"539 152 OFFCURVE",
"539 314 CURVE SMOOTH",
"539 423 OFFCURVE",
"482 498 OFFCURVE",
"374 498 CURVE SMOOTH",
"271 498 OFFCURVE",
"175 427 OFFCURVE",
"128 324 CURVE",
"201 697 LINE",
"191 697 LINE",
"15 -204 LINE"
);
},
{
closed = 1;
nodes = (
"174 5 OFFCURVE",
"107 81 OFFCURVE",
"107 188 CURVE SMOOTH",
"107 336 OFFCURVE",
"223 488 OFFCURVE",
"374 488 CURVE SMOOTH",
"476 488 OFFCURVE",
"529 416 OFFCURVE",
"529 314 CURVE SMOOTH",
"529 160 OFFCURVE",
"429 5 OFFCURVE",
"278 5 CURVE SMOOTH"
);
}
);
width = 598;
},
{
anchors = (
{
name = bottom;
position = "{242, 0}";
},
{
name = top;
position = "{338, 493}";
}
);
background = {
paths = (
{
closed = 1;
nodes = (
"65 -204 LINE",
"126 107 LINE",
"142 41 OFFCURVE",
"201 -8 OFFCURVE",
"282 -8 CURVE SMOOTH",
"438 -8 OFFCURVE",
"541 151 OFFCURVE",
"541 314 CURVE SMOOTH",
"541 424 OFFCURVE",
"484 501 OFFCURVE",
"374 501 CURVE SMOOTH",
"295 501 OFFCURVE",
"222 457 OFFCURVE",
"179 390 CURVE",
"241 697 LINE",
"172 697 LINE",
"-4 -204 LINE"
);
},
{
closed = 1;
nodes = (
"187 53 OFFCURVE",
"140 110 OFFCURVE",
"140 191 CURVE SMOOTH",
"140 315 OFFCURVE",
"228 440 OFFCURVE",
"353 440 CURVE SMOOTH",
"433 440 OFFCURVE",
"474 390 OFFCURVE",
"474 311 CURVE SMOOTH",
"474 183 OFFCURVE",
"397 53 OFFCURVE",
"271 53 CURVE SMOOTH"
);
}
);
};
guideLines = (
{
position = "{204, -204}";
}
);
layerId = "D76894BF-AD8F-4700-A820-B81A81AE60D1";
paths = (
{
closed = 1;
nodes = (
"72 -204 LINE",
"137 127 LINE",
"106 110 LINE",
"122 40 OFFCURVE",
"190 -8 OFFCURVE",
"277 -8 CURVE SMOOTH",
"435 -8 OFFCURVE",
"551 148 OFFCURVE",
"551 305 CURVE SMOOTH",
"551 422 OFFCURVE",
"486 501 OFFCURVE",
"364 501 CURVE SMOOTH",
"278 501 OFFCURVE",
"193 458 OFFCURVE",
"158 381 CURVE",
"186 380 LINE",
"248 697 LINE",
"172 697 LINE",
"-4 -204 LINE"
);
},
{
closed = 1;
nodes = (
"181 55 OFFCURVE",
"133 121 OFFCURVE",
"144 220 CURVE SMOOTH",
"157 337 OFFCURVE",
"242 437 OFFCURVE",
"354 437 CURVE SMOOTH",
"436 437 OFFCURVE",
"483 384 OFFCURVE",
"483 298 CURVE SMOOTH",
"483 182 OFFCURVE",
"397 55 OFFCURVE",
"272 55 CURVE SMOOTH"
);
}
);
width = 589;
}
);
leftKerningGroup = b;
note = thorn;
rightKerningGroup = b;
unicode = 00FE;
},
{
color = 1;
glyphname = q;
lastChange = "2019-05-10 16:00:59 +0000";
layers = (
{
anchors = (
{
name = bottom;
position = "{250, 0}";
},
{
name = top;
position = "{346, 493}";
}
);
guideLines = (
{
position = "{205, -204}";
}
);
layerId = "F91D9E91-C1BC-4259-B0D8-112C0CBA2B8E";
paths = (
{
closed = 1;
nodes = (
"406 -204 LINE",
"542 493 LINE",
"532 493 LINE",
"498 320 LINE",
"499 321 LINE",
"493 425 OFFCURVE",
"425 498 OFFCURVE",
"319 498 CURVE SMOOTH",
"165 498 OFFCURVE",
"58 338 OFFCURVE",
"58 177 CURVE SMOOTH",
"58 70 OFFCURVE",
"115 -5 OFFCURVE",
"223 -5 CURVE SMOOTH",
"327 -5 OFFCURVE",
"424 67 OFFCURVE",
"470 171 CURVE",
"470 172 LINE",
"396 -204 LINE"
);
},
{
closed = 1;
nodes = (
"121 5 OFFCURVE",
"68 76 OFFCURVE",
"68 177 CURVE SMOOTH",
"68 331 OFFCURVE",
"167 488 OFFCURVE",
"319 488 CURVE SMOOTH",
"423 488 OFFCURVE",
"490 412 OFFCURVE",
"490 303 CURVE SMOOTH",
"490 155 OFFCURVE",
"374 5 OFFCURVE",
"223 5 CURVE SMOOTH"
);
}
);
width = 597;
},
{
anchors = (
{
name = bottom;
position = "{239, 0}";
},
{
name = top;
position = "{335, 493}";
}
);
guideLines = (
{
position = "{207, -204}";
}
);
layerId = "5EAB4D72-96CB-4765-AAD5-A13175319428";
paths = (
{
closed = 1;
nodes = (
"414 -204 LINE",
"550 493 LINE",
"430 493 LINE",
"406 387 LINE",
"432 407 LINE",
"416 471 OFFCURVE",
"353 503 OFFCURVE",
"284 503 CURVE SMOOTH",
"127 503 OFFCURVE",
"26 346 OFFCURVE",
"26 180 CURVE SMOOTH",
"26 60 OFFCURVE",
"92 -10 OFFCURVE",
"196 -10 CURVE SMOOTH",
"261 -10 OFFCURVE",
"333 18 OFFCURVE",
"367 73 CURVE",
"356 99 LINE",
"294 -204 LINE"
);
},
{
closed = 1;
nodes = (
"173 95 OFFCURVE",
"145 128 OFFCURVE",
"145 188 CURVE SMOOTH",
"145 294 OFFCURVE",
"199 398 OFFCURVE",
"304 398 CURVE SMOOTH",
"372 398 OFFCURVE",
"400 360 OFFCURVE",
"400 302 CURVE SMOOTH",
"400 199 OFFCURVE",
"338 95 OFFCURVE",
"235 95 CURVE SMOOTH"
);
}
);
width = 573;
},
{
anchors = (
{
name = bottom;
position = "{250, 0}";
},
{
name = top;
position = "{346, 493}";
}
);
associatedMasterId = "F91D9E91-C1BC-4259-B0D8-112C0CBA2B8E";
guideLines = (
{
position = "{205, -204}";
}
);
layerId = "53751825-CB7B-4971-87F0-7DBD00A65D7B";
paths = (
{
closed = 1;
nodes = (
"406 -204 LINE",
"542 493 LINE",
"532 493 LINE",
"499 324 LINE",
"492 427 OFFCURVE",
"424 498 OFFCURVE",
"319 498 CURVE SMOOTH",
"165 498 OFFCURVE",
"58 338 OFFCURVE",
"58 177 CURVE SMOOTH",
"58 70 OFFCURVE",
"115 -5 OFFCURVE",
"223 -5 CURVE SMOOTH",
"326 -5 OFFCURVE",
"422 66 OFFCURVE",
"469 168 CURVE",
"396 -204 LINE"
);
},
{
closed = 1;
nodes = (
"121 5 OFFCURVE",
"68 76 OFFCURVE",
"68 177 CURVE SMOOTH",
"68 331 OFFCURVE",
"167 488 OFFCURVE",
"319 488 CURVE SMOOTH",
"423 488 OFFCURVE",
"490 412 OFFCURVE",
"490 303 CURVE SMOOTH",
"490 155 OFFCURVE",
"374 5 OFFCURVE",
"223 5 CURVE SMOOTH"
);
}
);
width = 597;
},
{
anchors = (
{
name = bottom;
position = "{242, 0}";
},
{
name = top;
position = "{338, 493}";
}
);
background = {
paths = (
{
closed = 1;
nodes = (
"408 -204 LINE",
"544 493 LINE",
"476 493 LINE",
"454 386 LINE",
"437 456 OFFCURVE",
"378 501 OFFCURVE",
"298 501 CURVE SMOOTH",
"143 501 OFFCURVE",
"39 342 OFFCURVE",
"39 179 CURVE SMOOTH",
"39 65 OFFCURVE",
"101 -8 OFFCURVE",
"207 -8 CURVE SMOOTH",
"280 -8 OFFCURVE",
"357 33 OFFCURVE",
"401 103 CURVE",
"340 -204 LINE"
);
},
{
closed = 1;
nodes = (
"147 53 OFFCURVE",
"107 104 OFFCURVE",
"107 183 CURVE SMOOTH",
"107 311 OFFCURVE",
"182 440 OFFCURVE",
"309 440 CURVE SMOOTH",
"394 440 OFFCURVE",
"440 384 OFFCURVE",
"440 302 CURVE SMOOTH",
"440 179 OFFCURVE",
"353 53 OFFCURVE",
"227 53 CURVE SMOOTH"
);
}
);
};
guideLines = (
{
position = "{203, -204}";
}
);
layerId = "D76894BF-AD8F-4700-A820-B81A81AE60D1";
paths = (
{
closed = 1;
nodes = (
"416 -204 LINE",
"552 493 LINE",
"476 493 LINE",
"452 366 LINE",
"483 383 LINE",
"467 453 OFFCURVE",
"399 501 OFFCURVE",
"312 501 CURVE SMOOTH",
"154 501 OFFCURVE",
"38 345 OFFCURVE",
"38 188 CURVE SMOOTH",
"38 71 OFFCURVE",
"103 -8 OFFCURVE",
"225 -8 CURVE SMOOTH",
"311 -8 OFFCURVE",
"396 35 OFFCURVE",
"431 112 CURVE",
"403 113 LINE",
"340 -204 LINE"
);
},
{
closed = 1;
nodes = (
"153 56 OFFCURVE",
"106 109 OFFCURVE",
"106 195 CURVE SMOOTH",
"106 311 OFFCURVE",
"192 438 OFFCURVE",
"317 438 CURVE SMOOTH",
"408 438 OFFCURVE",
"456 372 OFFCURVE",
"445 273 CURVE SMOOTH",
"432 156 OFFCURVE",
"347 56 OFFCURVE",
"235 56 CURVE SMOOTH"
);
}
);
width = 589;
}
);
leftKerningGroup = c;
note = q;
rightKerningGroup = i;
unicode = 0071;
},
{
color = 1;
glyphname = r;
lastChange = "2019-05-10 15:41:45 +0000";
layers = (
{
anchors = (
{
name = bottom;
position = "{141, 0}";
},
{
name = top;
position = "{237, 493}";
}
);
layerId = "F91D9E91-C1BC-4259-B0D8-112C0CBA2B8E";
paths = (
{
closed = 1;
nodes = (
"65 0 LINE",
"122 295 LINE SMOOTH",
"150 439 OFFCURVE",
"259 488 OFFCURVE",
"333 488 CURVE SMOOTH",
"352 488 OFFCURVE",
"372 484 OFFCURVE",
"388 477 CURVE",
"395 486 LINE",
"377 494 OFFCURVE",
"356 498 OFFCURVE",
"333 498 CURVE SMOOTH",
"270 498 OFFCURVE",
"181 461 OFFCURVE",
"135 366 CURVE",
"136 365 LINE",
"161 493 LINE",
"151 493 LINE",
"55 0 LINE"
);
}
);
width = 376;
},
{
anchors = (
{
name = bottom;
position = "{155, 0}";
},
{
name = top;
position = "{251, 493}";
}
);
layerId = "5EAB4D72-96CB-4765-AAD5-A13175319428";
paths = (
{
closed = 1;
nodes = (
"142 0 LINE",
"189 243 LINE SMOOTH",
"207 336 OFFCURVE",
"256 386 OFFCURVE",
"332 386 CURVE SMOOTH",
"353 386 OFFCURVE",
"371 383 OFFCURVE",
"386 372 CURVE",
"460 473 LINE",
"431 493 OFFCURVE",
"403 503 OFFCURVE",
"367 503 CURVE SMOOTH",
"304 503 OFFCURVE",
"230 461 OFFCURVE",
"207 374 CURVE",
"212 361 LINE",
"239 493 LINE",
"118 493 LINE",
"22 0 LINE"
);
}
);
width = 405;
},
{
anchors = (
{
name = bottom;
position = "{141, 0}";
},
{
name = top;
position = "{237, 493}";
}
);
associatedMasterId = "F91D9E91-C1BC-4259-B0D8-112C0CBA2B8E";
layerId = "53751825-CB7B-4971-87F0-7DBD00A65D7B";
paths = (
{
closed = 1;
nodes = (
"65 0 LINE",
"122 295 LINE SMOOTH",
"150 439 OFFCURVE",
"259 488 OFFCURVE",
"333 488 CURVE SMOOTH",
"352 488 OFFCURVE",
"372 484 OFFCURVE",
"388 477 CURVE",
"395 486 LINE",
"377 494 OFFCURVE",
"356 498 OFFCURVE",
"333 498 CURVE SMOOTH",
"271 498 OFFCURVE",
"183 462 OFFCURVE",
"137 369 CURVE",
"161 493 LINE",
"151 493 LINE",
"55 0 LINE"
);
}
);
width = 376;
},
{
anchors = (
{
name = bottom;
position = "{148, 0}";
},
{
name = top;
position = "{244, 493}";
}
);
layerId = "D76894BF-AD8F-4700-A820-B81A81AE60D1";
paths = (
{
closed = 1;
nodes = (
"106 0 LINE",
"153 247 LINE SMOOTH",
"179 384 OFFCURVE",
"256 434 OFFCURVE",
"329 434 CURVE SMOOTH",
"354 434 OFFCURVE",
"375 428 OFFCURVE",
"387 421 CURVE",
"429 479 LINE",
"403 495 OFFCURVE",
"375 501 OFFCURVE",
"346 501 CURVE SMOOTH",
"289 501 OFFCURVE",
"208 478 OFFCURVE",
"167 390 CURVE",
"181 389 LINE",
"202 493 LINE",
"133 493 LINE",
"37 0 LINE"
);
}
);
width = 391;
}
);
leftKerningGroup = m;
note = r;
rightKerningGroup = r;
unicode = 0072;
},
{
color = 1;
glyphname = s;
lastChange = "2019-05-10 16:44:51 +0000";
layers = (
{
anchors = (
{
name = bottom;
position = "{184, 0}";
},
{
name = top;
position = "{280, 493}";
}
);
layerId = "F91D9E91-C1BC-4259-B0D8-112C0CBA2B8E";
paths = (
{
closed = 1;
nodes = (
"304 -5 OFFCURVE",
"386 37 OFFCURVE",
"386 144 CURVE SMOOTH",
"386 285 OFFCURVE",
"105 231 OFFCURVE",
"105 364 CURVE SMOOTH",
"105 438 OFFCURVE",
"169 488 OFFCURVE",
"258 488 CURVE SMOOTH",
"334 488 OFFCURVE",
"386 457 OFFCURVE",
"406 395 CURVE",
"414 399 LINE",
"396 463 OFFCURVE",
"340 498 OFFCURVE",
"258 498 CURVE SMOOTH",
"166 498 OFFCURVE",
"95 446 OFFCURVE",
"95 363 CURVE SMOOTH",
"95 221 OFFCURVE",
"376 276 OFFCURVE",
"376 143 CURVE SMOOTH",
"376 45 OFFCURVE",
"301 5 OFFCURVE",
"209 5 CURVE SMOOTH",
"110 5 OFFCURVE",
"49 51 OFFCURVE",
"40 120 CURVE",
"30 116 LINE",
"41 42 OFFCURVE",
"108 -5 OFFCURVE",
"209 -5 CURVE SMOOTH"
);
}
);
width = 464;
},
{
anchors = (
{
name = bottom;
position = "{177, 0}";
},
{
name = top;
position = "{273, 493}";
}
);
layerId = "5EAB4D72-96CB-4765-AAD5-A13175319428";
paths = (
{
closed = 1;
nodes = (
"306 -10 OFFCURVE",
"397 62 OFFCURVE",
"397 163 CURVE SMOOTH",
"397 317 OFFCURVE",
"185 293 OFFCURVE",
"185 363 CURVE SMOOTH",
"185 392 OFFCURVE",
"222 408 OFFCURVE",
"259 408 CURVE SMOOTH",
"308 408 OFFCURVE",
"335 380 OFFCURVE",
"346 349 CURVE",
"442 391 LINE",
"412 463 OFFCURVE",
"353 503 OFFCURVE",
"264 503 CURVE SMOOTH",
"152 503 OFFCURVE",
"67 440 OFFCURVE",
"67 350 CURVE SMOOTH",
"67 208 OFFCURVE",
"280 229 OFFCURVE",
"280 150 CURVE SMOOTH",
"280 117 OFFCURVE",
"244 90 OFFCURVE",
"192 90 CURVE SMOOTH",
"129 90 OFFCURVE",
"101 131 OFFCURVE",
"95 167 CURVE",
"-7 132 LINE",
"4 55 OFFCURVE",
"81 -10 OFFCURVE",
"191 -10 CURVE SMOOTH"
);
}
);
width = 446;
},
{
anchors = (
{
name = bottom;
position = "{184, 0}";
},
{
name = top;
position = "{280, 493}";
}
);
associatedMasterId = "F91D9E91-C1BC-4259-B0D8-112C0CBA2B8E";
layerId = "53751825-CB7B-4971-87F0-7DBD00A65D7B";
paths = (
{
closed = 1;
nodes = (
"304 -5 OFFCURVE",
"386 37 OFFCURVE",
"386 144 CURVE SMOOTH",
"386 285 OFFCURVE",
"105 231 OFFCURVE",
"105 364 CURVE SMOOTH",
"105 438 OFFCURVE",
"169 488 OFFCURVE",
"258 488 CURVE SMOOTH",
"334 488 OFFCURVE",
"386 457 OFFCURVE",
"406 395 CURVE",
"414 399 LINE",
"396 463 OFFCURVE",
"340 498 OFFCURVE",
"258 498 CURVE SMOOTH",
"166 498 OFFCURVE",
"95 446 OFFCURVE",
"95 363 CURVE SMOOTH",
"95 221 OFFCURVE",
"376 276 OFFCURVE",
"376 143 CURVE SMOOTH",
"376 45 OFFCURVE",
"301 5 OFFCURVE",
"209 5 CURVE SMOOTH",
"110 5 OFFCURVE",
"49 51 OFFCURVE",
"40 120 CURVE",
"30 116 LINE",
"41 42 OFFCURVE",
"108 -5 OFFCURVE",
"209 -5 CURVE SMOOTH"
);
}
);
width = 464;
},
{
anchors = (
{
name = bottom;
position = "{181, 0}";
},
{
name = top;
position = "{277, 493}";
}
);
layerId = "D76894BF-AD8F-4700-A820-B81A81AE60D1";
paths = (
{
closed = 1;
nodes = (
"306 -8 OFFCURVE",
"393 51 OFFCURVE",
"393 154 CURVE SMOOTH",
"393 302 OFFCURVE",
"149 269 OFFCURVE",
"149 363 CURVE SMOOTH",
"149 413 OFFCURVE",
"198 439 OFFCURVE",
"259 439 CURVE SMOOTH",
"318 439 OFFCURVE",
"353 418 OFFCURVE",
"375 370 CURVE",
"435 397 LINE",
"408 461 OFFCURVE",
"348 501 OFFCURVE",
"262 501 CURVE SMOOTH",
"160 501 OFFCURVE",
"81 443 OFFCURVE",
"81 356 CURVE SMOOTH",
"81 214 OFFCURVE",
"325 246 OFFCURVE",
"325 147 CURVE SMOOTH",
"325 83 OFFCURVE",
"270 54 OFFCURVE",
"201 54 CURVE SMOOTH",
"120 54 OFFCURVE",
"81 95 OFFCURVE",
"70 145 CURVE",
"5 123 LINE",
"22 49 OFFCURVE",
"95 -8 OFFCURVE",
"200 -8 CURVE SMOOTH"
);
}
);
width = 454;
}
);
leftKerningGroup = s;
note = s;
rightKerningGroup = s;
unicode = 0073;
},
{
color = 1;
glyphname = germandbls;
lastChange = "2019-05-10 16:44:51 +0000";
layers = (
{
background = {
paths = (
{
closed = 1;
nodes = (
"452 -5 OFFCURVE",
"522 44 OFFCURVE",
"538 126 CURVE SMOOTH",
"540 136 OFFCURVE",
"541 146 OFFCURVE",
"541 154 CURVE SMOOTH",
"541 305 OFFCURVE",
"260 228 OFFCURVE",
"260 359 CURVE SMOOTH",
"260 431 OFFCURVE",
"307 470 OFFCURVE",
"375 488 CURVE SMOOTH",
"449 507 OFFCURVE",
"535 511 OFFCURVE",
"535 599 CURVE SMOOTH",
"535 659 OFFCURVE",
"473 707 OFFCURVE",
"380 707 CURVE SMOOTH",
"214 707 OFFCURVE",
"168 583 OFFCURVE",
"146 466 CURVE SMOOTH",
"55 0 LINE",
"65 0 LINE",
"156 466 LINE SMOOTH",
"178 579 OFFCURVE",
"220 697 OFFCURVE",
"379 697 CURVE SMOOTH",
"465 697 OFFCURVE",
"525 654 OFFCURVE",
"525 600 CURVE SMOOTH",
"525 519 OFFCURVE",
"443 515 OFFCURVE",
"370 496 CURVE SMOOTH",
"299 477 OFFCURVE",
"250 437 OFFCURVE",
"250 359 CURVE SMOOTH",
"250 218 OFFCURVE",
"531 295 OFFCURVE",
"531 153 CURVE SMOOTH",
"531 146 OFFCURVE",
"530 137 OFFCURVE",
"528 128 CURVE SMOOTH",
"513 51 OFFCURVE",
"448 5 OFFCURVE",
"354 5 CURVE SMOOTH",
"269 5 OFFCURVE",
"206 51 OFFCURVE",
"195 120 CURVE",
"185 116 LINE",
"196 42 OFFCURVE",
"263 -5 OFFCURVE",
"354 -5 CURVE SMOOTH"
);
}
);
};
layerId = "F91D9E91-C1BC-4259-B0D8-112C0CBA2B8E";
paths = (
{
closed = 1;
nodes = (
"459 -5 OFFCURVE",
"541 57 OFFCURVE",
"541 154 CURVE SMOOTH",
"541 305 OFFCURVE",
"260 228 OFFCURVE",
"260 359 CURVE SMOOTH",
"260 547 OFFCURVE",
"535 447 OFFCURVE",
"535 599 CURVE SMOOTH",
"535 659 OFFCURVE",
"473 707 OFFCURVE",
"380 707 CURVE SMOOTH",
"213 707 OFFCURVE",
"168 581 OFFCURVE",
"146 466 CURVE SMOOTH",
"55 0 LINE",
"65 0 LINE",
"156 466 LINE SMOOTH",
"178 577 OFFCURVE",
"218 697 OFFCURVE",
"379 697 CURVE SMOOTH",
"465 697 OFFCURVE",
"525 654 OFFCURVE",
"525 600 CURVE SMOOTH",
"525 455 OFFCURVE",
"250 559 OFFCURVE",
"250 359 CURVE SMOOTH",
"250 218 OFFCURVE",
"531 295 OFFCURVE",
"531 153 CURVE SMOOTH",
"531 65 OFFCURVE",
"456 5 OFFCURVE",
"354 5 CURVE SMOOTH",
"269 5 OFFCURVE",
"206 51 OFFCURVE",
"195 120 CURVE",
"185 116 LINE",
"196 42 OFFCURVE",
"263 -5 OFFCURVE",
"354 -5 CURVE SMOOTH"
);
}
);
width = 608;
},
{
background = {
paths = (
{
closed = 1;
nodes = (
"525 -10 OFFCURVE",
"610 66 OFFCURVE",
"610 160 CURVE SMOOTH",
"610 325 OFFCURVE",
"387 289 OFFCURVE",
"397 346 CURVE SMOOTH",
"408 402 OFFCURVE",
"600 389 OFFCURVE",
"630 544 CURVE SMOOTH",
"632 554 OFFCURVE",
"633 563 OFFCURVE",
"633 572 CURVE SMOOTH",
"633 656 OFFCURVE",
"551 707 OFFCURVE",
"421 707 CURVE SMOOTH",
"193 707 OFFCURVE",
"131 558 OFFCURVE",
"109 440 CURVE SMOOTH",
"23 -1 LINE",
"148 -1 LINE",
"232 430 LINE SMOOTH",
"243 488 OFFCURVE",
"266 595 OFFCURVE",
"415 595 CURVE SMOOTH",
"470 595 OFFCURVE",
"520 584 OFFCURVE",
"514 553 CURVE SMOOTH",
"500 483 OFFCURVE",
"311 511 OFFCURVE",
"282 362 CURVE SMOOTH",
"280 351 OFFCURVE",
"279 341 OFFCURVE",
"279 332 CURVE SMOOTH",
"279 191 OFFCURVE",
"491 231 OFFCURVE",
"491 157 CURVE SMOOTH",
"491 126 OFFCURVE",
"466 90 OFFCURVE",
"407 90 CURVE SMOOTH",
"344 90 OFFCURVE",
"313 131 OFFCURVE",
"307 167 CURVE",
"205 132 LINE",
"215 57 OFFCURVE",
"298 -10 OFFCURVE",
"405 -10 CURVE SMOOTH"
);
}
);
};
layerId = "5EAB4D72-96CB-4765-AAD5-A13175319428";
paths = (
{
closed = 1;
nodes = (
"525 -10 OFFCURVE",
"610 66 OFFCURVE",
"610 160 CURVE SMOOTH",
"610 325 OFFCURVE",
"397 288 OFFCURVE",
"397 346 CURVE SMOOTH",
"397 403 OFFCURVE",
"633 394 OFFCURVE",
"633 572 CURVE SMOOTH",
"633 656 OFFCURVE",
"551 707 OFFCURVE",
"421 707 CURVE SMOOTH",
"196 707 OFFCURVE",
"132 558 OFFCURVE",
"109 440 CURVE SMOOTH",
"23 -1 LINE",
"148 -1 LINE",
"232 430 LINE SMOOTH",
"243 488 OFFCURVE",
"269 595 OFFCURVE",
"415 595 CURVE SMOOTH",
"467 595 OFFCURVE",
"514 585 OFFCURVE",
"514 552 CURVE SMOOTH",
"514 475 OFFCURVE",
"279 488 OFFCURVE",
"279 339 CURVE SMOOTH",
"279 191 OFFCURVE",
"491 231 OFFCURVE",
"491 157 CURVE SMOOTH",
"491 126 OFFCURVE",
"466 90 OFFCURVE",
"407 90 CURVE SMOOTH",
"344 90 OFFCURVE",
"313 131 OFFCURVE",
"307 167 CURVE",
"205 132 LINE",
"215 57 OFFCURVE",
"298 -10 OFFCURVE",
"405 -10 CURVE SMOOTH"
);
}
);
width = 643;
},
{
associatedMasterId = "F91D9E91-C1BC-4259-B0D8-112C0CBA2B8E";
background = {
paths = (
{
closed = 1;
nodes = (
"452 -5 OFFCURVE",
"522 44 OFFCURVE",
"538 126 CURVE SMOOTH",
"540 136 OFFCURVE",
"541 146 OFFCURVE",
"541 154 CURVE SMOOTH",
"541 305 OFFCURVE",
"260 228 OFFCURVE",
"260 359 CURVE SMOOTH",
"260 431 OFFCURVE",
"307 470 OFFCURVE",
"375 488 CURVE SMOOTH",
"449 507 OFFCURVE",
"535 511 OFFCURVE",
"535 599 CURVE SMOOTH",
"535 659 OFFCURVE",
"473 707 OFFCURVE",
"380 707 CURVE SMOOTH",
"214 707 OFFCURVE",
"168 583 OFFCURVE",
"146 466 CURVE SMOOTH",
"55 0 LINE",
"65 0 LINE",
"156 466 LINE SMOOTH",
"178 579 OFFCURVE",
"220 697 OFFCURVE",
"379 697 CURVE SMOOTH",
"465 697 OFFCURVE",
"525 654 OFFCURVE",
"525 600 CURVE SMOOTH",
"525 519 OFFCURVE",
"443 515 OFFCURVE",
"370 496 CURVE SMOOTH",
"299 477 OFFCURVE",
"250 437 OFFCURVE",
"250 359 CURVE SMOOTH",
"250 218 OFFCURVE",
"531 295 OFFCURVE",
"531 153 CURVE SMOOTH",
"531 146 OFFCURVE",
"530 137 OFFCURVE",
"528 128 CURVE SMOOTH",
"513 51 OFFCURVE",
"448 5 OFFCURVE",
"354 5 CURVE SMOOTH",
"269 5 OFFCURVE",
"206 51 OFFCURVE",
"195 120 CURVE",
"185 116 LINE",
"196 42 OFFCURVE",
"263 -5 OFFCURVE",
"354 -5 CURVE SMOOTH"
);
}
);
};
layerId = "53751825-CB7B-4971-87F0-7DBD00A65D7B";
paths = (
{
closed = 1;
nodes = (
"459 -5 OFFCURVE",
"541 57 OFFCURVE",
"541 154 CURVE SMOOTH",
"541 305 OFFCURVE",
"260 228 OFFCURVE",
"260 359 CURVE SMOOTH",
"260 547 OFFCURVE",
"535 447 OFFCURVE",
"535 599 CURVE SMOOTH",
"535 659 OFFCURVE",
"473 707 OFFCURVE",
"380 707 CURVE SMOOTH",
"213 707 OFFCURVE",
"168 581 OFFCURVE",
"146 466 CURVE SMOOTH",
"55 0 LINE",
"65 0 LINE",
"156 466 LINE SMOOTH",
"178 577 OFFCURVE",
"218 697 OFFCURVE",
"379 697 CURVE SMOOTH",
"465 697 OFFCURVE",
"525 654 OFFCURVE",
"525 600 CURVE SMOOTH",
"525 455 OFFCURVE",
"250 559 OFFCURVE",
"250 359 CURVE SMOOTH",
"250 218 OFFCURVE",
"531 295 OFFCURVE",
"531 153 CURVE SMOOTH",
"531 65 OFFCURVE",
"456 5 OFFCURVE",
"354 5 CURVE SMOOTH",
"269 5 OFFCURVE",
"206 51 OFFCURVE",
"195 120 CURVE",
"185 116 LINE",
"196 42 OFFCURVE",
"263 -5 OFFCURVE",
"354 -5 CURVE SMOOTH"
);
}
);
width = 608;
},
{
background = {
paths = (
{
closed = 1;
nodes = (
"451 -5 OFFCURVE",
"521 44 OFFCURVE",
"537 126 CURVE SMOOTH",
"539 136 OFFCURVE",
"540 146 OFFCURVE",
"540 154 CURVE SMOOTH",
"540 305 OFFCURVE",
"259 228 OFFCURVE",
"259 359 CURVE SMOOTH",
"259 431 OFFCURVE",
"306 470 OFFCURVE",
"374 488 CURVE SMOOTH",
"448 507 OFFCURVE",
"534 511 OFFCURVE",
"534 599 CURVE SMOOTH",
"534 659 OFFCURVE",
"472 707 OFFCURVE",
"379 707 CURVE SMOOTH",
"213 707 OFFCURVE",
"167 583 OFFCURVE",
"145 466 CURVE SMOOTH",
"54 0 LINE",
"64 0 LINE",
"155 466 LINE SMOOTH",
"177 579 OFFCURVE",
"219 697 OFFCURVE",
"378 697 CURVE SMOOTH",
"464 697 OFFCURVE",
"524 654 OFFCURVE",
"524 600 CURVE SMOOTH",
"524 519 OFFCURVE",
"442 515 OFFCURVE",
"369 496 CURVE SMOOTH",
"298 477 OFFCURVE",
"249 437 OFFCURVE",
"249 359 CURVE SMOOTH",
"249 218 OFFCURVE",
"530 295 OFFCURVE",
"530 153 CURVE SMOOTH",
"530 146 OFFCURVE",
"529 137 OFFCURVE",
"527 128 CURVE SMOOTH",
"512 51 OFFCURVE",
"447 5 OFFCURVE",
"353 5 CURVE SMOOTH",
"268 5 OFFCURVE",
"205 51 OFFCURVE",
"194 120 CURVE",
"184 116 LINE",
"195 42 OFFCURVE",
"262 -5 OFFCURVE",
"353 -5 CURVE SMOOTH"
);
}
);
};
layerId = "D76894BF-AD8F-4700-A820-B81A81AE60D1";
paths = (
{
closed = 1;
nodes = (
"493 -8 OFFCURVE",
"577 62 OFFCURVE",
"577 157 CURVE SMOOTH",
"577 316 OFFCURVE",
"332 260 OFFCURVE",
"332 352 CURVE SMOOTH",
"332 470 OFFCURVE",
"586 419 OFFCURVE",
"586 585 CURVE SMOOTH",
"586 657 OFFCURVE",
"514 707 OFFCURVE",
"401 707 CURVE SMOOTH",
"200 707 OFFCURVE",
"147 565 OFFCURVE",
"125 452 CURVE SMOOTH",
"37 -1 LINE",
"108 -1 LINE",
"196 447 LINE SMOOTH",
"211 524 OFFCURVE",
"241 643 OFFCURVE",
"397 643 CURVE SMOOTH",
"465 643 OFFCURVE",
"518 617 OFFCURVE",
"518 574 CURVE SMOOTH",
"518 466 OFFCURVE",
"265 521 OFFCURVE",
"265 348 CURVE SMOOTH",
"265 204 OFFCURVE",
"509 261 OFFCURVE",
"509 155 CURVE SMOOTH",
"509 98 OFFCURVE",
"460 50 OFFCURVE",
"381 50 CURVE SMOOTH",
"308 50 OFFCURVE",
"262 94 OFFCURVE",
"254 145 CURVE",
"195 125 LINE",
"205 50 OFFCURVE",
"282 -8 OFFCURVE",
"380 -8 CURVE SMOOTH"
);
}
);
width = 622;
}
);
leftKerningGroup = germandbls;
rightKerningGroup = germandbls;
unicode = 00DF;
},
{
color = 1;
glyphname = t;
lastChange = "2019-05-10 16:44:47 +0000";
layers = (
{
anchors = (
{
name = bottom;
position = "{112, 0}";
},
{
name = center;
position = "{134, 247}";
},
{
name = top;
position = "{188, 493}";
},
{
name = topright;
position = "{326, 579}";
}
);
layerId = "F91D9E91-C1BC-4259-B0D8-112C0CBA2B8E";
paths = (
{
closed = 1;
nodes = (
"150 -5 OFFCURVE",
"171 -1 OFFCURVE",
"195 6 CURVE",
"194 16 LINE",
"171 8 OFFCURVE",
"151 4 OFFCURVE",
"136 4 CURVE SMOOTH",
"105 4 OFFCURVE",
"90 19 OFFCURVE",
"90 54 CURVE SMOOTH",
"90 65 OFFCURVE",
"91 74 OFFCURVE",
"94 90 CURVE SMOOTH",
"206 667 LINE",
"194 657 LINE",
"84 90 LINE SMOOTH",
"81 74 OFFCURVE",
"80 63 OFFCURVE",
"80 52 CURVE SMOOTH",
"80 13 OFFCURVE",
"98 -5 OFFCURVE",
"135 -5 CURVE SMOOTH"
);
},
{
closed = 1;
nodes = (
"285 483 LINE",
"287 493 LINE",
"78 493 LINE",
"76 483 LINE"
);
}
);
width = 282;
},
{
anchors = (
{
name = bottom;
position = "{166, 0}";
},
{
name = center;
position = "{169, 247}";
},
{
name = top;
position = "{230, 493}";
},
{
name = topright;
position = "{410, 581}";
}
);
guideLines = (
{
position = "{124, 403}";
}
);
layerId = "5EAB4D72-96CB-4765-AAD5-A13175319428";
paths = (
{
closed = 1;
nodes = (
"224 -10 OFFCURVE",
"254 -6 OFFCURVE",
"286 4 CURVE",
"300 102 LINE",
"277 95 OFFCURVE",
"255 90 OFFCURVE",
"235 90 CURVE SMOOTH",
"204 90 OFFCURVE",
"186 99 OFFCURVE",
"186 126 CURVE SMOOTH",
"186 132 OFFCURVE",
"187 137 OFFCURVE",
"188 142 CURVE SMOOTH",
"295 697 LINE",
"157 608 LINE",
"68 143 LINE SMOOTH",
"66 133 OFFCURVE",
"64 120 OFFCURVE",
"64 105 CURVE SMOOTH",
"64 26 OFFCURVE",
"122 -10 OFFCURVE",
"197 -10 CURVE SMOOTH"
);
},
{
closed = 1;
nodes = (
"361 403 LINE",
"379 493 LINE",
"56 493 LINE",
"38 403 LINE"
);
}
);
width = 362;
},
{
anchors = (
{
name = bottom;
position = "{112, 0}";
},
{
name = center;
position = "{134, 247}";
},
{
name = top;
position = "{188, 493}";
},
{
name = topright;
position = "{326, 579}";
}
);
associatedMasterId = "F91D9E91-C1BC-4259-B0D8-112C0CBA2B8E";
layerId = "53751825-CB7B-4971-87F0-7DBD00A65D7B";
paths = (
{
closed = 1;
nodes = (
"150 -5 OFFCURVE",
"171 -1 OFFCURVE",
"195 6 CURVE",
"194 16 LINE",
"171 8 OFFCURVE",
"151 4 OFFCURVE",
"136 4 CURVE SMOOTH",
"105 4 OFFCURVE",
"90 19 OFFCURVE",
"90 54 CURVE SMOOTH",
"90 62 OFFCURVE",
"91 74 OFFCURVE",
"94 90 CURVE SMOOTH",
"206 667 LINE",
"194 657 LINE",
"84 90 LINE SMOOTH",
"81 74 OFFCURVE",
"80 61 OFFCURVE",
"80 52 CURVE SMOOTH",
"80 13 OFFCURVE",
"98 -5 OFFCURVE",
"135 -5 CURVE SMOOTH"
);
},
{
closed = 1;
nodes = (
"285 483 LINE",
"287 493 LINE",
"78 493 LINE",
"76 483 LINE"
);
}
);
width = 282;
},
{
anchors = (
{
name = bottom;
position = "{150, 0}";
},
{
name = center;
position = "{161, 247}";
},
{
name = top;
position = "{211, 493}";
},
{
name = topright;
position = "{371, 580}";
}
);
layerId = "D76894BF-AD8F-4700-A820-B81A81AE60D1";
paths = (
{
closed = 1;
nodes = (
"191 -8 OFFCURVE",
"218 -3 OFFCURVE",
"244 5 CURVE",
"251 62 LINE",
"227 54 OFFCURVE",
"205 50 OFFCURVE",
"189 50 CURVE SMOOTH",
"158 50 OFFCURVE",
"141 62 OFFCURVE",
"141 92 CURVE SMOOTH",
"141 98 OFFCURVE",
"142 108 OFFCURVE",
"144 118 CURVE SMOOTH",
"254 683 LINE",
"175 631 LINE",
"76 118 LINE SMOOTH",
"74 108 OFFCURVE",
"72 93 OFFCURVE",
"72 80 CURVE SMOOTH",
"72 20 OFFCURVE",
"111 -8 OFFCURVE",
"168 -8 CURVE SMOOTH"
);
},
{
closed = 1;
nodes = (
"326 440 LINE",
"336 493 LINE",
"67 493 LINE",
"56 440 LINE"
);
}
);
width = 322;
}
);
leftKerningGroup = t;
note = t;
rightKerningGroup = t;
unicode = 0074;
},
